<svg width="303" height="166" viewBox="0 0 303 166" fill="none" xmlns="http://www.w3.org/2000/svg">
<path d="M52.113 9.15736C52.505 8.55147 53.7545 8.02287 55.8613 7.57154C56.4157 7.45278 57.8473 7.23308 60.156 6.91247C66.9793 5.74071 73.5512 4.47785 79.8716 3.12389C82.2556 2.61319 85.8316 1.84713 90.5996 0.825725C91.1223 0.829722 91.6034 1.85744 92.0429 3.90888C92.2091 4.6851 92.3774 5.60587 92.5476 6.67118C93.0781 10.5008 93.3967 12.6651 93.5036 13.1641C93.6818 13.9957 93.6778 14.5185 93.4917 14.7323C93.3055 14.9462 92.6917 15.1936 91.6502 15.4747C88.5375 16.3735 83.6943 17.585 77.1204 19.1092C75.2354 19.513 72.4138 20.1465 68.6556 21.0096C69.1782 23.4491 70.2353 28.3836 71.8269 35.8132C73.4347 35.4687 76.6563 34.8076 81.4916 33.8298C83.2222 33.517 86.6992 32.8302 91.9226 31.7692C92.6116 31.7376 93.2828 33.2465 93.936 36.2959C94.2211 37.6266 94.3438 38.876 94.3041 40.0443C94.2883 40.5116 94.2645 41.2126 94.2327 42.1472C91.9477 42.5787 88.5599 43.2754 84.0691 44.2375C79.5783 45.1995 76.1904 45.8963 73.9054 46.3278C74.6497 49.5317 75.7603 54.3098 77.237 60.6621C78.7693 67.0026 79.9887 72.0183 80.8954 75.7093C80.3726 76.5172 79.7073 77.0656 78.8994 77.3547C78.5232 77.4932 78.0856 77.616 77.5866 77.7229C76.8659 77.8773 75.9728 78.0396 74.9076 78.2098C71.0464 78.863 68.7694 79.0608 68.0764 78.8033C67.6408 78.6647 66.8826 76.0727 65.8017 71.0272C65.7067 70.5837 65.5642 69.9184 65.3741 69.0313C65.2554 68.4768 65.0178 67.3679 64.6615 65.7046C63.1768 58.7741 61.7515 52.5267 60.3856 46.9624C56.1215 29.4935 53.5915 18.9016 52.7958 15.1869C52.0356 11.6384 51.808 9.62861 52.113 9.15736Z" fill="#0FA376"/>
<path d="M43.4121 107.743C43.2179 107.419 42.2791 107.257 40.5957 107.257C38.2648 107.257 36.5167 107.516 35.3513 108.034C34.1858 108.616 33.3441 109.813 32.8262 111.625C32.5672 112.402 32.4377 113.114 32.4377 113.761C32.4377 114.472 32.729 115.249 33.3118 116.09C34.4124 117.773 35.8368 118.614 37.585 118.614C38.4267 118.614 39.4302 118.355 40.5957 117.837C41.6316 117.255 42.3114 116.705 42.6352 116.187C42.9589 115.605 43.2179 114.375 43.4121 112.499C43.5416 110.946 43.6064 109.943 43.6064 109.49C43.6064 108.584 43.5416 108.001 43.4121 107.743ZM31.855 74.7402C34.7038 74.2225 37.326 73.9636 39.7216 73.9636C46.5847 73.9636 52.8326 75.7432 58.4655 79.3022C64.0337 82.8613 68.3717 87.8117 71.4795 94.1533C72.7744 96.9359 73.6161 99.0066 74.0045 100.366C74.3283 101.789 74.5549 104.054 74.6844 107.16C74.6844 107.419 74.7168 107.807 74.7815 108.325C74.7815 108.843 74.7815 109.263 74.7815 109.587C74.7815 113.016 74.3606 115.928 73.519 118.323C72.6125 120.782 71.091 123.176 68.9544 125.506C65.7171 129.259 61.5733 131.588 56.5232 132.494C55.552 132.688 54.6132 132.786 53.7067 132.786C51.1816 132.786 49.1421 131.88 47.5882 130.068C47.135 129.55 46.6818 129.291 46.2286 129.291C45.9696 129.291 44.9984 129.55 43.315 130.068C41.8258 130.521 40.1424 130.747 38.2648 130.747C35.2218 130.747 32.3406 130.068 29.6212 128.709C26.9019 127.35 24.7653 125.506 23.2114 123.176C21.2043 120.199 20.2007 116.996 20.2007 113.567C20.2007 110.137 21.1395 106.901 23.0172 103.86C24.9595 100.819 27.5817 98.4242 30.8838 96.677C33.1499 95.577 36.1282 95.0269 39.8187 95.0269C42.797 95.0269 46.0667 95.4475 49.6277 96.2888C53.5125 97.2594 55.6491 97.9389 56.0376 98.3272C56.3613 98.6507 56.5232 102.08 56.5232 108.616C56.6526 115.411 56.8469 118.937 57.1059 119.196C57.4296 119.52 58.2065 119.132 59.4367 118.032C61.5086 115.961 62.5445 112.984 62.5445 109.101C62.5445 102.695 60.246 97.1624 55.6491 92.5032C53.4477 90.303 51.214 88.7823 48.9479 87.9411C46.6818 87.0999 43.6711 86.6793 39.9158 86.6793C36.9375 86.6793 34.8333 86.8087 33.6031 87.0675C32.4377 87.3264 30.819 88.0058 28.7472 89.1059C23.0495 92.0179 18.9382 95.4799 16.4131 99.4919C13.8232 103.569 12.5283 108.616 12.5283 114.634C12.5283 119.682 13.7585 123.791 16.2188 126.962C18.6792 130.197 22.5639 132.786 27.8731 134.727C30.9809 135.827 34.8009 136.377 39.3331 136.377C39.8511 136.377 40.6604 136.377 41.7611 136.377C43.315 136.377 46.4228 136.345 51.0845 136.28C51.1492 136.733 51.3111 137.606 51.5701 138.901C51.8938 141.424 52.0557 143.366 52.0557 144.725C52.0557 145.436 52.0881 146.504 52.1528 147.928C51.5701 147.993 50.3723 148.154 48.5594 148.413C45.7106 148.737 43.1208 148.898 40.7899 148.898C34.4448 148.898 28.4882 147.928 22.92 145.987C17.4166 144.045 12.8197 141.23 9.12917 137.542C3.04306 131.33 0 123.791 0 114.925C0 108.066 1.87763 100.948 5.63289 93.5709C7.44578 89.8824 11.1363 86.0645 16.7044 82.1172C22.2726 78.1698 27.3228 75.7108 31.855 74.7402Z" fill="#0FA376"/>
<path d="M287.361 103.517C286.319 102.631 285.068 102.188 283.608 102.188C282.305 102.188 281.054 102.579 279.855 103.361C278.708 104.143 277.822 105.237 277.196 106.645C276.518 108.156 276.18 109.173 276.18 109.694C276.18 110.268 276.544 110.607 277.274 110.711C278.004 110.815 279.62 110.867 282.122 110.867C282.487 110.867 283.008 110.867 283.686 110.867C284.937 110.867 287.466 110.867 291.271 110.867C291.167 110.659 291.01 110.242 290.802 109.616C289.916 106.593 288.769 104.56 287.361 103.517ZM277.274 93.039C278.108 92.7262 279.855 92.5698 282.513 92.5698C288.143 92.5698 291.792 92.9869 293.46 93.8209C295.493 94.8114 297.083 95.88 298.23 97.0269C299.325 98.1216 300.341 99.6333 301.28 101.562C302.062 103.335 302.557 104.69 302.765 105.628C302.922 106.619 303 108.261 303 110.554C303 114.203 302.739 116.758 302.218 118.217C301.801 119.416 301.41 120.12 301.045 120.329C300.628 120.589 300.133 120.72 299.56 120.72C297.057 120.72 293.278 120.72 288.221 120.72C287.596 120.72 286.371 120.72 284.546 120.72C280.689 120.72 278.134 120.798 276.883 120.954C275.684 121.058 275.085 121.397 275.085 121.971C275.085 122.388 275.632 123.509 276.727 125.333C277.978 127.21 279.333 128.435 280.793 129.008C282.409 129.634 284.755 129.946 287.83 129.946C290.75 129.946 293.174 129.66 295.102 129.086C295.78 128.93 296.823 128.643 298.23 128.226C298.387 128.643 298.725 129.477 299.247 130.728C300.811 134.482 301.593 136.775 301.593 137.609C301.54 137.662 301.514 137.714 301.514 137.766C301.462 137.818 299.56 138.444 295.806 139.643C292.574 140.633 290.098 141.128 288.378 141.128C287.075 141.128 285.12 141.05 282.513 140.894C278.708 140.633 276.258 140.372 275.163 140.112C274.016 139.903 272.557 139.304 270.784 138.313C267.813 136.749 265.519 134.821 263.903 132.527C262.339 130.233 261.218 127.392 260.541 124.004C260.332 122.596 260.228 121.449 260.228 120.563C260.228 117.488 260.801 114.177 261.948 110.633C263.043 107.14 264.529 104.143 266.405 101.64C267.604 100.129 269.22 98.5386 271.253 96.8705C273.339 95.2023 275.345 93.9252 277.274 93.039Z" fill="#0FA376"/>
<path d="M187.208 159.051C186.369 151.801 184.662 137.279 182.086 115.484C182.456 114.601 184.01 113.739 186.746 112.898C187.758 112.571 188.626 112.365 189.351 112.281C190.542 112.143 191.349 112.312 191.771 112.788C191.837 113.358 191.936 114.212 192.068 115.352C192.302 117.371 192.936 118.321 193.972 118.201C194.697 118.117 196.302 117.249 198.787 115.597C202.598 113.162 206.316 111.734 209.941 111.315C211.443 111.141 212.713 111.23 213.751 111.582C215.342 112.185 216.933 113.234 218.523 114.729C220.119 116.276 221.24 117.8 221.886 119.299C222.171 119.948 222.573 120.925 223.091 122.23C223.268 121.947 223.571 121.387 223.999 120.55C224.723 119.102 226.437 117.591 229.142 116.019C231.852 114.498 234.666 113.648 237.584 113.467C239.311 113.425 240.781 113.438 241.996 113.508C243.16 113.583 244.067 113.714 244.718 113.901C246.943 114.535 248.975 115.77 250.814 117.603C252.66 119.489 254.002 121.564 254.841 123.828C255.11 124.794 255.663 125.937 256.498 127.257C257.454 128.721 258.742 133.268 260.36 140.9C260.565 141.769 260.752 142.928 260.92 144.378C261.123 146.138 261.029 147.592 260.637 148.74C260.246 149.887 259.434 151.267 258.204 152.878C255.944 154.662 253.474 155.761 250.793 156.177C250.534 156.207 250.301 156.234 250.094 156.258C247.815 156.521 246.587 156.112 246.41 155.031C246.254 153.685 246.023 151.691 245.717 149.05C245.05 144.194 244.485 140.901 244.023 139.171C243.085 135.606 242.475 133.052 242.191 131.511C241.545 128.647 241.079 126.89 240.794 126.241C240.451 125.546 239.755 124.971 238.705 124.515C237.777 124.203 236.95 124.089 236.225 124.173C234.258 124.4 232.466 125.92 230.849 128.731C229.428 131.414 228.513 133.934 228.103 136.29C227.7 138.699 227.669 142.061 228.012 146.377C228.516 152.091 228.619 155.254 228.323 155.865C228.112 156.31 227.566 156.583 226.686 156.685C225.599 156.81 224.096 156.748 222.178 156.498C220.311 156.242 219.228 155.947 218.927 155.615C218.544 155.029 218.212 153.52 217.93 151.086C217.387 146.846 216.076 140.963 213.998 133.437C213.435 131.298 212.948 129.806 212.535 128.962C212.123 128.117 211.419 127.254 210.425 126.372C208.899 124.974 207.437 124.357 206.038 124.518C204.847 124.656 203.483 125.339 201.946 126.566C199.823 128.177 198.686 131.273 198.535 135.856C198.331 140.445 198.565 145.64 199.237 151.44C199.303 152.009 199.399 152.838 199.524 153.925C199.902 157.188 199.926 159.205 199.595 159.978C199.259 160.699 198.081 161.177 196.062 161.41C195.699 161.452 195.129 161.518 194.353 161.608C192.385 161.836 190.758 161.605 189.471 160.914C188.241 160.269 187.487 159.648 187.208 159.051Z" fill="#0FA376"/>
<path d="M81.6629 93.6345C82.0901 91.9921 82.8887 88.6965 84.0586 83.7479C86.2357 84.1609 90.6455 84.9973 97.2883 86.2573C97.2073 86.9888 97.0402 88.4795 96.787 90.7295C96.7344 91.0068 96.2509 95.0802 95.3365 102.95C95.0768 104.624 94.743 107.146 94.3352 110.516C95.2388 110.63 97.0741 110.863 99.8409 111.215C101.481 111.411 102.608 111.568 103.222 111.684C107.799 112.552 112.302 114.728 116.73 118.21C118.54 119.645 119.952 120.89 120.967 121.944C121.915 123.043 122.323 125.16 122.191 128.294C122.109 129.945 121.932 131.491 121.658 132.933C121.385 134.375 120.959 136.621 120.38 139.671C119.202 145.882 118.128 150.475 117.159 153.451C116.179 156.482 114.588 160.145 112.386 164.438C112.257 164.815 111.885 164.946 111.271 164.83C110.489 164.681 109.024 164.174 106.875 163.307C103.429 161.963 101.501 160.851 101.09 159.969C100.577 159.01 101.11 154.371 102.688 146.053C103.172 143.502 103.563 141.594 103.86 140.329C103.882 140.218 103.924 139.996 103.987 139.664C104.418 137.39 104.722 134.719 104.899 131.65C105.049 128.117 104.746 125.905 103.99 125.014C103.278 124.19 102.253 123.651 100.913 123.397C99.2945 123.09 97.3577 123.24 95.103 123.846C94.2479 124.086 93.0315 124.401 91.4539 124.791C91.089 127.02 90.3539 131.505 89.2487 138.247C88.4768 142.926 87.9909 145.793 87.791 146.847C87.0547 150.728 86.3318 153.32 85.6223 154.622C84.9022 155.979 83.8598 156.902 82.495 157.389C81.1197 157.933 79.3993 158.009 77.3339 157.617C77.0548 157.564 76.692 157.495 76.2454 157.411C75.5861 157.228 74.2674 156.863 72.2894 156.315C72.3072 155.917 72.3149 155.114 72.3125 153.907C72.3556 144.838 74.0654 131.403 77.4418 113.602C78.5778 107.613 79.9848 100.957 81.6629 93.6345Z" fill="#0FA376"/>
<path d="M209.313 58.5251C208.159 57.7019 207.111 57.1341 206.171 56.8218C202.758 55.6874 199.248 56.9105 195.641 60.4909C194.505 61.5964 193.558 63.287 192.802 65.5626C192.029 67.8876 191.595 70.3525 191.498 72.9571C191.402 75.5618 191.676 77.6304 192.32 79.1629C192.782 80.0856 193.302 80.7528 193.88 81.1644C194.424 81.5101 195.784 82.0446 197.961 82.7679C200.088 83.4748 201.547 83.8774 202.339 83.9756C203.081 84.0573 203.979 83.9164 205.034 83.5528C205.577 83.4039 206.352 83.1395 207.357 82.7594C208.409 79.5934 210.522 73.2366 213.695 63.6891C213.464 63.3926 212.993 62.7418 212.284 61.7369C211.31 60.3696 210.32 59.299 209.313 58.5251ZM221.661 41.4522C221.984 40.4804 222.577 38.6968 223.44 36.1011C223.694 35.3364 224.533 34.935 225.29 35.2118C226.414 35.6231 227.816 36.1266 229.496 36.7222C231.208 37.3297 232.621 37.8374 233.733 38.2452C234.448 38.5077 234.822 39.291 234.588 40.0166C234.004 41.8291 233.249 44.2578 232.324 47.3028C230.779 52.2826 229.267 57.658 227.789 63.429C226.54 68.1777 225.456 71.9372 224.535 74.7075C224.437 75.0043 224.297 75.4248 224.116 75.969C224.067 76.1174 223.96 76.4389 223.795 76.9336C222.908 79.6049 221.757 83.3975 220.344 88.3112C218.963 92.9611 217.936 96.3002 217.262 98.3285C217.238 98.4005 217.214 98.4726 217.19 98.5446C217.14 98.6962 217.067 98.8406 216.958 98.9575C216.243 99.7248 214.961 100.209 213.11 100.409C211.509 100.639 210.018 100.705 208.636 100.605C208.077 100.565 207.614 100.168 207.466 99.627C207.234 98.7788 207.062 98.0276 206.95 97.3735C206.785 96.5494 206.603 96.1045 206.405 96.0387C206.158 95.9565 205.844 95.9073 205.465 95.8912C205.135 95.8915 204.633 95.9167 203.957 95.9667C203.347 95.9838 202.786 96.0173 202.276 96.0672C200.429 96.1678 196.934 95.4456 191.789 93.9007C188.211 93.2611 185.837 92.5544 184.666 91.7806C183.495 91.0069 182.101 89.912 180.484 88.4957C177.366 85.8116 175.402 82.9615 174.591 79.9455C173.83 76.946 173.983 72.9318 175.05 67.903C175.691 65.1495 176.274 62.9812 176.8 61.3982C177.819 58.3311 178.987 56.0552 180.305 54.5704C181.441 53.3 183.608 51.7402 186.804 49.891C190 48.0419 192.538 46.8527 194.417 46.3234C196.872 45.7113 199.74 45.5109 203.021 45.7222C206.351 45.9499 209.401 46.5241 212.172 47.4448C213.903 48.0202 215.222 48.5959 216.13 49.1721C216.575 49.4849 216.971 49.6988 217.317 49.8139C217.96 50.0276 218.529 49.6397 219.022 48.6502C219.516 47.6606 220.396 45.2613 221.661 41.4522Z" fill="#0FA376"/>
<path d="M158.264 23.1282C156.36 22.6681 154.693 22.585 153.263 22.8789C151.119 23.3197 149.15 25.0018 147.356 27.9251C146.13 29.9866 145.341 31.7186 144.991 33.1211C144.59 34.5341 144.492 36.3902 144.699 38.6894C144.828 39.8337 144.913 40.508 144.955 40.7123C145.165 41.7335 145.743 42.7323 146.689 43.7087C148.745 45.9469 151.932 47.3407 156.25 47.8901C158.766 48.2243 160.791 48.2339 162.322 47.919C164.059 47.5621 165.327 46.7425 166.128 45.4603C167.031 44.1571 167.645 42.4874 167.972 40.4512C168.298 38.4149 168.294 36.5798 167.958 34.9459C167.37 32.0864 166.155 29.5421 164.313 27.313C162.461 25.0329 160.444 23.6379 158.264 23.1282ZM147.36 14.3534C148.696 13.8657 150.003 13.4907 151.28 13.2283C153.322 12.8084 155.315 12.6648 157.258 12.7976C160.5 13.0358 163.563 14.0827 166.445 15.9382C167.513 16.7299 168.673 17.7154 169.927 18.8946C171.119 20.0333 171.987 20.8925 172.532 21.4723C174.559 23.8231 176.099 26.0078 177.153 28.0265C178.206 30.0451 179.053 32.6118 179.693 35.7265C179.725 35.8797 179.767 36.084 179.819 36.3393C180.302 38.6881 180.552 40.4197 180.568 41.5339C180.635 42.6377 180.463 43.8706 180.051 45.2325C179.58 47.0855 178.39 49.0599 176.479 51.1557C174.568 53.2515 172.435 54.914 170.08 56.1432C168.5 57.0002 166.612 57.6544 164.417 58.1058C161.251 58.7565 158.021 58.9681 154.728 58.7403C151.394 58.5741 148.774 57.9952 146.867 57.0034C145.083 56.0929 143.102 54.6108 140.924 52.5573C138.786 50.4423 137.361 48.6863 136.648 47.2895C136.225 46.525 135.819 45.1981 135.43 43.3089C134.832 40.3983 134.494 37.328 134.415 34.0978C134.322 32.0945 135.581 28.5095 138.191 23.3429C139.193 21.4871 140.579 19.6854 142.349 17.938C144.159 16.1289 145.829 14.9341 147.36 14.3534Z" fill="#0FA376"/>
<path d="M117.619 45.8107C115.846 44.9766 114.23 44.5596 112.771 44.5596C110.581 44.5596 108.313 45.8107 105.968 48.3129C104.352 50.0853 103.231 51.6231 102.605 52.9263C101.928 54.2295 101.458 56.028 101.198 58.3217C101.094 59.4685 101.041 60.1462 101.041 60.3547C101.041 61.3973 101.406 62.492 102.136 63.6389C103.7 66.2453 106.541 68.2523 110.659 69.6598C113.057 70.4939 115.038 70.9109 116.602 70.9109C118.374 70.9109 119.782 70.3635 120.824 69.2688C121.971 68.1741 122.91 66.6624 123.639 64.7336C124.369 62.8048 124.734 61.0063 124.734 59.3382C124.734 56.419 124.056 53.6822 122.701 51.1279C121.346 48.5214 119.652 46.749 117.619 45.8107ZM108.704 35.0199C110.112 34.8114 111.467 34.7072 112.771 34.7072C114.856 34.7072 116.837 34.9678 118.713 35.4891C121.841 36.3753 124.63 38.0174 127.08 40.4153C127.966 41.4058 128.905 42.6047 129.895 44.0122C130.833 45.3676 131.511 46.3841 131.928 47.0618C133.44 49.7725 134.508 52.2226 135.134 54.412C135.76 56.6014 136.072 59.2861 136.072 62.466C136.072 62.6224 136.072 62.8309 136.072 63.0915C136.072 65.4895 135.968 67.2358 135.76 68.3305C135.603 69.4252 135.186 70.5981 134.508 71.8492C133.674 73.5695 132.11 75.2637 129.817 76.9318C127.523 78.6 125.099 79.7989 122.545 80.5287C120.824 81.05 118.844 81.3107 116.602 81.3107C113.37 81.3107 110.164 80.8676 106.984 79.9814C103.752 79.1473 101.302 78.0526 99.634 76.6972C98.0701 75.4461 96.428 73.5956 94.7077 71.1455C93.0396 68.6433 91.997 66.6363 91.58 65.1246C91.3193 64.2905 91.189 62.9091 91.189 60.9803C91.189 58.0089 91.4757 54.9333 92.0492 51.7534C92.3619 49.7725 94.3168 46.5144 97.9137 41.9792C99.2691 40.3632 100.989 38.8775 103.074 37.5221C105.212 36.1146 107.088 35.2806 108.704 35.0199Z" fill="#0FA376"/>
<g filter="url(#filter0_g_3641_5704)">
<path fill-rule="evenodd" clip-rule="evenodd" d="M177.089 108.531L193.237 107.361C193.688 107.329 193.905 106.793 193.604 106.456L179.171 90.2865L170.688 81.8133L161.979 73.6228L151.495 63.6869C151.222 63.4281 150.796 63.4211 150.514 63.6707L147.292 66.5283C147.168 66.641 146.994 66.8012 146.777 67.0046C146.344 67.4111 145.739 67.9928 145.022 68.7175C143.595 70.159 141.69 72.2037 139.818 74.5878C138.251 76.5828 133.057 82.6997 127.697 88.3803C124.914 91.3302 122.091 94.1674 119.958 96.2732C118.893 97.3242 118.005 98.189 117.383 98.7894C117.073 99.0896 116.83 99.3235 116.665 99.4814C116.583 99.5603 116.52 99.6203 116.478 99.6599C116.462 99.6754 116.449 99.6879 116.439 99.6971L116.432 99.7041L116.421 99.7145L116.419 99.7164L116.419 99.717L108.942 106.91C108.573 107.265 108.812 107.89 109.324 107.908L126.715 108.531L127.569 118.695L127.571 118.723L127.574 118.752L128.639 129.952V145.785C128.639 145.825 128.673 145.858 128.714 145.857L158.678 144.993L179.423 143.885C179.463 143.883 179.493 143.85 179.492 143.811L178.635 116.701L178.633 116.643C178.62 116.348 178.585 116.055 178.528 115.766L177.089 108.531ZM145.5 108.531H136.974L137.753 117.811L138.863 129.467V135.337L158.258 134.778L168.96 134.206L168.429 117.395L166.564 108.016L160.908 107.281L145.5 108.531ZM150.973 77.2772C149.998 78.3237 148.914 79.5574 147.858 80.9019C146.062 83.188 140.658 89.5405 135.133 95.3964C134.399 96.174 133.664 96.9427 132.94 97.6921C132.717 97.9227 132.88 98.3084 133.201 98.3084H145.086L161.156 97.0046L171.192 98.3084H172.831L172.431 98.0037L163.572 89.1548L154.966 81.0611L154.959 81.0546L154.952 81.0479L150.973 77.2772Z" fill="#0FA376"/>
</g>
<defs>
<filter id="filter0_g_3641_5704" x="108.644" y="63.3683" width="85.2191" height="82.6084" filterUnits="userSpaceOnUse" color-interpolation-filters="sRGB">
<feFlood flood-opacity="0" result="BackgroundImageFix"/>
<feBlend mode="normal" in="SourceGraphic" in2="BackgroundImageFix" result="shape"/>
<feTurbulence type="fractalNoise" baseFrequency="0.27571043372154236 0.27571043372154236" numOctaves="3" seed="5088" />
<feDisplacementMap in="shape" scale="0.23938153684139252" xChannelSelector="R" yChannelSelector="G" result="displacedImage" width="100%" height="100%" />
<feMerge result="effect1_texture_3641_5704">
<feMergeNode in="displacedImage"/>
</feMerge>
</filter>
</defs>
</svg>
