<svg width="378" height="316" viewBox="0 0 378 316" fill="none" xmlns="http://www.w3.org/2000/svg">
<g filter="url(#filter0_dd_5466_7389)">
<path d="M4 11C4 6.58172 7.58172 3 12 3H366C370.418 3 374 6.58172 374 11V303C374 307.418 370.418 311 366 311H12C7.58173 311 4 307.418 4 303V11Z" fill="white"/>
<path d="M23.9977 47.32V36.9801H24.5477V47.32H23.9977ZM24.2287 46.066C23.6567 46.066 23.1067 45.9743 22.5787 45.791C22.0581 45.6003 21.6547 45.3583 21.3687 45.065L21.6877 44.438C21.9591 44.702 22.3221 44.9257 22.7767 45.109C23.2387 45.285 23.7227 45.373 24.2287 45.373C24.7127 45.373 25.105 45.3143 25.4057 45.197C25.7137 45.0723 25.9374 44.9073 26.0767 44.702C26.2234 44.4967 26.2967 44.2693 26.2967 44.02C26.2967 43.7193 26.2087 43.4774 26.0327 43.294C25.864 43.1107 25.6404 42.9677 25.3617 42.865C25.083 42.755 24.775 42.6597 24.4377 42.579C24.1004 42.4984 23.763 42.414 23.4257 42.326C23.0884 42.2307 22.7767 42.106 22.4907 41.952C22.2121 41.798 21.9847 41.5964 21.8087 41.347C21.6401 41.0904 21.5557 40.7567 21.5557 40.346C21.5557 39.9647 21.6547 39.6164 21.8527 39.301C22.0581 38.9784 22.3697 38.7217 22.7877 38.5311C23.2057 38.3331 23.741 38.2341 24.3937 38.2341C24.8264 38.2341 25.2554 38.2964 25.6807 38.4211C26.106 38.5384 26.4727 38.7034 26.7807 38.916L26.5057 39.565C26.1757 39.345 25.8237 39.1837 25.4497 39.081C25.083 38.9784 24.7274 38.9271 24.3827 38.9271C23.9207 38.9271 23.5394 38.9894 23.2387 39.114C22.9381 39.2387 22.7144 39.4074 22.5677 39.62C22.4284 39.8254 22.3587 40.06 22.3587 40.324C22.3587 40.6247 22.4431 40.8667 22.6117 41.05C22.7877 41.2334 23.0151 41.3764 23.2937 41.479C23.5797 41.5817 23.8914 41.6734 24.2287 41.754C24.566 41.8347 24.8997 41.9227 25.2297 42.018C25.567 42.1134 25.875 42.238 26.1537 42.392C26.4397 42.5387 26.667 42.7367 26.8357 42.986C27.0117 43.2354 27.0997 43.5617 27.0997 43.965C27.0997 44.339 26.997 44.6873 26.7917 45.01C26.5864 45.3253 26.271 45.582 25.8457 45.78C25.4277 45.9707 24.8887 46.066 24.2287 46.066ZM29.4258 46V38.6301L29.7778 39.004H27.6108V38.3001H30.2178V46H29.4258ZM34.4894 46.066C33.9394 46.066 33.4151 45.978 32.9164 45.802C32.4178 45.6187 32.0218 45.3767 31.7284 45.076L32.1134 44.449C32.3554 44.7057 32.6854 44.9183 33.1034 45.087C33.5287 45.2557 33.9871 45.34 34.4784 45.34C35.1311 45.34 35.6261 45.197 35.9634 44.911C36.3081 44.6177 36.4804 44.2363 36.4804 43.767C36.4804 43.437 36.3997 43.1547 36.2384 42.92C36.0844 42.678 35.8204 42.491 35.4464 42.359C35.0724 42.227 34.5591 42.161 33.9064 42.161H32.2674L32.6634 38.3001H36.8764V39.004H32.9824L33.3894 38.6191L33.0484 41.853L32.6414 41.457H34.0824C34.8597 41.457 35.4831 41.5524 35.9524 41.743C36.4217 41.9337 36.7591 42.2014 36.9644 42.546C37.1771 42.8834 37.2834 43.2794 37.2834 43.734C37.2834 44.1667 37.1807 44.5627 36.9754 44.922C36.7701 45.274 36.4621 45.5527 36.0514 45.758C35.6407 45.9633 35.1201 46.066 34.4894 46.066ZM41.3578 46.066C40.7638 46.066 40.2358 45.912 39.7738 45.604C39.3118 45.2887 38.9488 44.8413 38.6848 44.262C38.4208 43.6753 38.2888 42.9714 38.2888 42.15C38.2888 41.3287 38.4208 40.6284 38.6848 40.049C38.9488 39.4624 39.3118 39.015 39.7738 38.7071C40.2358 38.3917 40.7638 38.2341 41.3578 38.2341C41.9518 38.2341 42.4798 38.3917 42.9418 38.7071C43.4038 39.015 43.7668 39.4624 44.0308 40.049C44.3021 40.6284 44.4378 41.3287 44.4378 42.15C44.4378 42.9714 44.3021 43.6753 44.0308 44.262C43.7668 44.8413 43.4038 45.2887 42.9418 45.604C42.4798 45.912 41.9518 46.066 41.3578 46.066ZM41.3578 45.34C41.8125 45.34 42.2085 45.219 42.5458 44.977C42.8831 44.7277 43.1471 44.3683 43.3378 43.899C43.5285 43.4224 43.6238 42.8394 43.6238 42.15C43.6238 41.4607 43.5285 40.8814 43.3378 40.412C43.1471 39.9354 42.8831 39.576 42.5458 39.334C42.2085 39.0847 41.8125 38.96 41.3578 38.96C40.9178 38.96 40.5255 39.0847 40.1808 39.334C39.8362 39.576 39.5685 39.9354 39.3778 40.412C39.1872 40.8814 39.0918 41.4607 39.0918 42.15C39.0918 42.8394 39.1872 43.4224 39.3778 43.899C39.5685 44.3683 39.8362 44.7277 40.1808 44.977C40.5255 45.219 40.9178 45.34 41.3578 45.34Z" fill="#444955"/>
<path d="M23.9977 87.32V76.9801H24.5477V87.32H23.9977ZM24.2287 86.066C23.6567 86.066 23.1067 85.9743 22.5787 85.791C22.0581 85.6003 21.6547 85.3583 21.3687 85.065L21.6877 84.438C21.9591 84.702 22.3221 84.9257 22.7767 85.109C23.2387 85.285 23.7227 85.373 24.2287 85.373C24.7127 85.373 25.105 85.3143 25.4057 85.197C25.7137 85.0723 25.9374 84.9073 26.0767 84.702C26.2234 84.4967 26.2967 84.2693 26.2967 84.02C26.2967 83.7193 26.2087 83.4774 26.0327 83.294C25.864 83.1107 25.6404 82.9677 25.3617 82.865C25.083 82.755 24.775 82.6597 24.4377 82.579C24.1004 82.4984 23.763 82.414 23.4257 82.326C23.0884 82.2307 22.7767 82.106 22.4907 81.952C22.2121 81.798 21.9847 81.5964 21.8087 81.347C21.6401 81.0904 21.5557 80.7567 21.5557 80.346C21.5557 79.9647 21.6547 79.6164 21.8527 79.301C22.0581 78.9784 22.3697 78.7217 22.7877 78.5311C23.2057 78.3331 23.741 78.2341 24.3937 78.2341C24.8264 78.2341 25.2554 78.2964 25.6807 78.4211C26.106 78.5384 26.4727 78.7034 26.7807 78.916L26.5057 79.565C26.1757 79.345 25.8237 79.1837 25.4497 79.081C25.083 78.9784 24.7274 78.9271 24.3827 78.9271C23.9207 78.9271 23.5394 78.9894 23.2387 79.114C22.9381 79.2387 22.7144 79.4074 22.5677 79.62C22.4284 79.8254 22.3587 80.06 22.3587 80.324C22.3587 80.6247 22.4431 80.8667 22.6117 81.05C22.7877 81.2334 23.0151 81.3764 23.2937 81.479C23.5797 81.5817 23.8914 81.6734 24.2287 81.754C24.566 81.8347 24.8997 81.9227 25.2297 82.018C25.567 82.1134 25.875 82.238 26.1537 82.392C26.4397 82.5387 26.667 82.7367 26.8357 82.986C27.0117 83.2354 27.0997 83.5617 27.0997 83.965C27.0997 84.339 26.997 84.6873 26.7917 85.01C26.5864 85.3253 26.271 85.582 25.8457 85.78C25.4277 85.9707 24.8887 86.066 24.2287 86.066ZM29.4258 86V78.6301L29.7778 79.004H27.6108V78.3001H30.2178V86H29.4258ZM31.9154 86V85.439L35.1164 82.304C35.4097 82.018 35.6297 81.7687 35.7764 81.556C35.9231 81.336 36.0221 81.1307 36.0734 80.94C36.1247 80.7494 36.1504 80.5697 36.1504 80.401C36.1504 79.9537 35.9964 79.6017 35.6884 79.345C35.3877 79.0884 34.9404 78.96 34.3464 78.96C33.8917 78.96 33.4884 79.0297 33.1364 79.169C32.7917 79.3084 32.4948 79.5247 32.2454 79.818L31.6844 79.334C31.9851 78.982 32.3701 78.7107 32.8394 78.5201C33.3087 78.3294 33.8331 78.2341 34.4124 78.2341C34.9331 78.2341 35.3841 78.3184 35.7654 78.4871C36.1467 78.6484 36.4401 78.8867 36.6454 79.202C36.8581 79.5174 36.9644 79.8877 36.9644 80.313C36.9644 80.5624 36.9277 80.808 36.8544 81.05C36.7884 81.292 36.6637 81.5487 36.4804 81.82C36.3044 82.084 36.0441 82.3847 35.6994 82.722L32.7624 85.604L32.5424 85.296H37.3164V86H31.9154ZM41.3578 86.066C40.7638 86.066 40.2358 85.912 39.7738 85.604C39.3118 85.2887 38.9488 84.8413 38.6848 84.262C38.4208 83.6753 38.2888 82.9714 38.2888 82.15C38.2888 81.3287 38.4208 80.6284 38.6848 80.049C38.9488 79.4624 39.3118 79.015 39.7738 78.7071C40.2358 78.3917 40.7638 78.2341 41.3578 78.2341C41.9518 78.2341 42.4798 78.3917 42.9418 78.7071C43.4038 79.015 43.7668 79.4624 44.0308 80.049C44.3021 80.6284 44.4378 81.3287 44.4378 82.15C44.4378 82.9714 44.3021 83.6753 44.0308 84.262C43.7668 84.8413 43.4038 85.2887 42.9418 85.604C42.4798 85.912 41.9518 86.066 41.3578 86.066ZM41.3578 85.34C41.8125 85.34 42.2085 85.219 42.5458 84.977C42.8831 84.7277 43.1471 84.3683 43.3378 83.899C43.5285 83.4224 43.6238 82.8394 43.6238 82.15C43.6238 81.4607 43.5285 80.8814 43.3378 80.412C43.1471 79.9354 42.8831 79.576 42.5458 79.334C42.2085 79.0847 41.8125 78.96 41.3578 78.96C40.9178 78.96 40.5255 79.0847 40.1808 79.334C39.8362 79.576 39.5685 79.9354 39.3778 80.412C39.1872 80.8814 39.0918 81.4607 39.0918 82.15C39.0918 82.8394 39.1872 83.4224 39.3778 83.899C39.5685 84.3683 39.8362 84.7277 40.1808 84.977C40.5255 85.219 40.9178 85.34 41.3578 85.34Z" fill="#444955"/>
<path d="M27.4996 127.32V116.98H28.0496V127.32H27.4996ZM27.7306 126.066C27.1586 126.066 26.6086 125.974 26.0807 125.791C25.56 125.6 25.1567 125.358 24.8707 125.065L25.1897 124.438C25.461 124.702 25.824 124.926 26.2786 125.109C26.7406 125.285 27.2246 125.373 27.7306 125.373C28.2146 125.373 28.607 125.314 28.9076 125.197C29.2156 125.072 29.4393 124.907 29.5786 124.702C29.7253 124.497 29.7986 124.269 29.7986 124.02C29.7986 123.719 29.7106 123.477 29.5346 123.294C29.366 123.111 29.1423 122.968 28.8636 122.865C28.585 122.755 28.277 122.66 27.9396 122.579C27.6023 122.498 27.265 122.414 26.9276 122.326C26.5903 122.231 26.2786 122.106 25.9927 121.952C25.714 121.798 25.4867 121.596 25.3107 121.347C25.142 121.09 25.0577 120.757 25.0577 120.346C25.0577 119.965 25.1567 119.616 25.3547 119.301C25.56 118.978 25.8717 118.722 26.2896 118.531C26.7076 118.333 27.243 118.234 27.8956 118.234C28.3283 118.234 28.7573 118.296 29.1826 118.421C29.608 118.538 29.9746 118.703 30.2826 118.916L30.0076 119.565C29.6776 119.345 29.3256 119.184 28.9516 119.081C28.585 118.978 28.2293 118.927 27.8846 118.927C27.4226 118.927 27.0413 118.989 26.7406 119.114C26.44 119.239 26.2163 119.407 26.0697 119.62C25.9303 119.825 25.8607 120.06 25.8607 120.324C25.8607 120.625 25.945 120.867 26.1137 121.05C26.2896 121.233 26.517 121.376 26.7956 121.479C27.0816 121.582 27.3933 121.673 27.7306 121.754C28.068 121.835 28.4016 121.923 28.7316 122.018C29.069 122.113 29.377 122.238 29.6556 122.392C29.9416 122.539 30.169 122.737 30.3376 122.986C30.5136 123.235 30.6016 123.562 30.6016 123.965C30.6016 124.339 30.499 124.687 30.2936 125.01C30.0883 125.325 29.773 125.582 29.3476 125.78C28.9296 125.971 28.3906 126.066 27.7306 126.066ZM33.9838 118.234C34.6657 118.234 35.2414 118.388 35.7107 118.696C36.1801 118.997 36.5357 119.433 36.7777 120.005C37.0197 120.577 37.1407 121.27 37.1407 122.084C37.1407 122.949 36.9904 123.679 36.6897 124.273C36.3964 124.867 35.9857 125.314 35.4577 125.615C34.9297 125.916 34.3174 126.066 33.6208 126.066C33.2761 126.066 32.9461 126.033 32.6308 125.967C32.3228 125.901 32.0441 125.795 31.7948 125.648L32.1138 125.01C32.3118 125.142 32.5391 125.237 32.7958 125.296C33.0598 125.347 33.3311 125.373 33.6098 125.373C34.4384 125.373 35.0984 125.109 35.5897 124.581C36.0884 124.053 36.3377 123.265 36.3377 122.216C36.3377 122.047 36.3267 121.846 36.3047 121.611C36.2901 121.376 36.2497 121.142 36.1837 120.907L36.4587 121.116C36.3854 121.497 36.2277 121.824 35.9857 122.095C35.7511 122.359 35.4577 122.561 35.1057 122.7C34.7611 122.839 34.3761 122.909 33.9508 122.909C33.4448 122.909 32.9938 122.814 32.5978 122.623C32.2091 122.432 31.9048 122.165 31.6848 121.82C31.4648 121.475 31.3548 121.068 31.3548 120.599C31.3548 120.115 31.4684 119.697 31.6958 119.345C31.9231 118.993 32.2348 118.722 32.6308 118.531C33.0341 118.333 33.4851 118.234 33.9838 118.234ZM34.0167 118.905C33.6501 118.905 33.3238 118.975 33.0378 119.114C32.7591 119.246 32.5391 119.437 32.3778 119.686C32.2164 119.935 32.1358 120.232 32.1358 120.577C32.1358 121.083 32.3081 121.486 32.6528 121.787C33.0048 122.088 33.4778 122.238 34.0717 122.238C34.4677 122.238 34.8124 122.165 35.1057 122.018C35.4064 121.871 35.6374 121.67 35.7987 121.413C35.9674 121.156 36.0517 120.87 36.0517 120.555C36.0517 120.269 35.9747 120.001 35.8207 119.752C35.6667 119.503 35.4394 119.301 35.1387 119.147C34.8381 118.986 34.4641 118.905 34.0167 118.905ZM41.3578 126.066C40.7638 126.066 40.2358 125.912 39.7738 125.604C39.3118 125.289 38.9488 124.841 38.6848 124.262C38.4208 123.675 38.2888 122.971 38.2888 122.15C38.2888 121.329 38.4208 120.628 38.6848 120.049C38.9488 119.462 39.3118 119.015 39.7738 118.707C40.2358 118.392 40.7638 118.234 41.3578 118.234C41.9518 118.234 42.4798 118.392 42.9418 118.707C43.4038 119.015 43.7668 119.462 44.0308 120.049C44.3021 120.628 44.4378 121.329 44.4378 122.15C44.4378 122.971 44.3021 123.675 44.0308 124.262C43.7668 124.841 43.4038 125.289 42.9418 125.604C42.4798 125.912 41.9518 126.066 41.3578 126.066ZM41.3578 125.34C41.8125 125.34 42.2085 125.219 42.5458 124.977C42.8831 124.728 43.1471 124.368 43.3378 123.899C43.5285 123.422 43.6238 122.839 43.6238 122.15C43.6238 121.461 43.5285 120.881 43.3378 120.412C43.1471 119.935 42.8831 119.576 42.5458 119.334C42.2085 119.085 41.8125 118.96 41.3578 118.96C40.9178 118.96 40.5255 119.085 40.1808 119.334C39.8362 119.576 39.5685 119.935 39.3778 120.412C39.1872 120.881 39.0918 121.461 39.0918 122.15C39.0918 122.839 39.1872 123.422 39.3778 123.899C39.5685 124.368 39.8362 124.728 40.1808 124.977C40.5255 125.219 40.9178 125.34 41.3578 125.34Z" fill="#444955"/>
<path d="M27.3922 167.32V156.98H27.9422V167.32H27.3922ZM27.6232 166.066C27.0512 166.066 26.5012 165.974 25.9732 165.791C25.4526 165.6 25.0492 165.358 24.7632 165.065L25.0822 164.438C25.3536 164.702 25.7166 164.926 26.1712 165.109C26.6332 165.285 27.1172 165.373 27.6232 165.373C28.1072 165.373 28.4995 165.314 28.8002 165.197C29.1082 165.072 29.3319 164.907 29.4712 164.702C29.6179 164.497 29.6912 164.269 29.6912 164.02C29.6912 163.719 29.6032 163.477 29.4272 163.294C29.2585 163.111 29.0349 162.968 28.7562 162.865C28.4775 162.755 28.1695 162.66 27.8322 162.579C27.4949 162.498 27.1576 162.414 26.8202 162.326C26.4829 162.231 26.1712 162.106 25.8852 161.952C25.6066 161.798 25.3792 161.596 25.2032 161.347C25.0346 161.09 24.9502 160.757 24.9502 160.346C24.9502 159.965 25.0492 159.616 25.2472 159.301C25.4526 158.978 25.7642 158.722 26.1822 158.531C26.6002 158.333 27.1356 158.234 27.7882 158.234C28.2209 158.234 28.6499 158.296 29.0752 158.421C29.5005 158.538 29.8672 158.703 30.1752 158.916L29.9002 159.565C29.5702 159.345 29.2182 159.184 28.8442 159.081C28.4775 158.978 28.1219 158.927 27.7772 158.927C27.3152 158.927 26.9339 158.989 26.6332 159.114C26.3326 159.239 26.1089 159.407 25.9622 159.62C25.8229 159.825 25.7532 160.06 25.7532 160.324C25.7532 160.625 25.8376 160.867 26.0062 161.05C26.1822 161.233 26.4096 161.376 26.6882 161.479C26.9742 161.582 27.2859 161.673 27.6232 161.754C27.9605 161.835 28.2942 161.923 28.6242 162.018C28.9615 162.113 29.2695 162.238 29.5482 162.392C29.8342 162.539 30.0615 162.737 30.2302 162.986C30.4062 163.235 30.4942 163.562 30.4942 163.965C30.4942 164.339 30.3915 164.687 30.1862 165.01C29.9809 165.325 29.6655 165.582 29.2402 165.78C28.8222 165.971 28.2832 166.066 27.6232 166.066ZM34.7427 166.066C34.0608 166.066 33.4851 165.916 33.0158 165.615C32.5464 165.307 32.1908 164.867 31.9488 164.295C31.7068 163.716 31.5858 163.023 31.5858 162.216C31.5858 161.343 31.7324 160.614 32.0258 160.027C32.3264 159.433 32.7408 158.986 33.2688 158.685C33.7968 158.384 34.4091 158.234 35.1057 158.234C35.4504 158.234 35.7804 158.267 36.0957 158.333C36.4111 158.399 36.6897 158.505 36.9317 158.652L36.6127 159.29C36.4147 159.158 36.1874 159.066 35.9307 159.015C35.6741 158.956 35.4027 158.927 35.1167 158.927C34.2881 158.927 33.6244 159.191 33.1258 159.719C32.6344 160.247 32.3888 161.035 32.3888 162.084C32.3888 162.245 32.3961 162.447 32.4108 162.689C32.4328 162.924 32.4768 163.158 32.5428 163.393L32.2678 163.184C32.3484 162.803 32.5061 162.48 32.7408 162.216C32.9754 161.945 33.2688 161.739 33.6208 161.6C33.9728 161.461 34.3577 161.391 34.7757 161.391C35.2891 161.391 35.7401 161.486 36.1287 161.677C36.5174 161.868 36.8217 162.135 37.0417 162.48C37.2617 162.825 37.3717 163.232 37.3717 163.701C37.3717 164.178 37.2581 164.596 37.0307 164.955C36.8034 165.307 36.4881 165.582 36.0847 165.78C35.6887 165.971 35.2414 166.066 34.7427 166.066ZM34.7097 165.395C35.0764 165.395 35.3991 165.329 35.6777 165.197C35.9637 165.058 36.1874 164.863 36.3487 164.614C36.5101 164.357 36.5907 164.06 36.5907 163.723C36.5907 163.217 36.4147 162.814 36.0627 162.513C35.7181 162.212 35.2487 162.062 34.6547 162.062C34.2588 162.062 33.9141 162.135 33.6208 162.282C33.3274 162.429 33.0964 162.63 32.9278 162.887C32.7591 163.136 32.6748 163.422 32.6748 163.745C32.6748 164.024 32.7518 164.291 32.9058 164.548C33.0598 164.797 33.2871 165.003 33.5878 165.164C33.8958 165.318 34.2698 165.395 34.7097 165.395ZM41.3578 166.066C40.7638 166.066 40.2358 165.912 39.7738 165.604C39.3118 165.289 38.9488 164.841 38.6848 164.262C38.4208 163.675 38.2888 162.971 38.2888 162.15C38.2888 161.329 38.4208 160.628 38.6848 160.049C38.9488 159.462 39.3118 159.015 39.7738 158.707C40.2358 158.392 40.7638 158.234 41.3578 158.234C41.9518 158.234 42.4798 158.392 42.9418 158.707C43.4038 159.015 43.7668 159.462 44.0308 160.049C44.3021 160.628 44.4378 161.329 44.4378 162.15C44.4378 162.971 44.3021 163.675 44.0308 164.262C43.7668 164.841 43.4038 165.289 42.9418 165.604C42.4798 165.912 41.9518 166.066 41.3578 166.066ZM41.3578 165.34C41.8125 165.34 42.2085 165.219 42.5458 164.977C42.8831 164.728 43.1471 164.368 43.3378 163.899C43.5285 163.422 43.6238 162.839 43.6238 162.15C43.6238 161.461 43.5285 160.881 43.3378 160.412C43.1471 159.935 42.8831 159.576 42.5458 159.334C42.2085 159.085 41.8125 158.96 41.3578 158.96C40.9178 158.96 40.5255 159.085 40.1808 159.334C39.8362 159.576 39.5685 159.935 39.3778 160.412C39.1872 160.881 39.0918 161.461 39.0918 162.15C39.0918 162.839 39.1872 163.422 39.3778 163.899C39.5685 164.368 39.8362 164.728 40.1808 164.977C40.5255 165.219 40.9178 165.34 41.3578 165.34Z" fill="#444955"/>
<path d="M27.9723 207.32V196.98H28.5223V207.32H27.9723ZM28.2033 206.066C27.6313 206.066 27.0813 205.974 26.5533 205.791C26.0326 205.6 25.6293 205.358 25.3433 205.065L25.6623 204.438C25.9336 204.702 26.2966 204.926 26.7513 205.109C27.2133 205.285 27.6973 205.373 28.2033 205.373C28.6873 205.373 29.0796 205.314 29.3803 205.197C29.6883 205.072 29.9119 204.907 30.0513 204.702C30.1979 204.497 30.2713 204.269 30.2713 204.02C30.2713 203.719 30.1833 203.477 30.0073 203.294C29.8386 203.111 29.6149 202.968 29.3363 202.865C29.0576 202.755 28.7496 202.66 28.4123 202.579C28.075 202.498 27.7376 202.414 27.4003 202.326C27.063 202.231 26.7513 202.106 26.4653 201.952C26.1866 201.798 25.9593 201.596 25.7833 201.347C25.6146 201.09 25.5303 200.757 25.5303 200.346C25.5303 199.965 25.6293 199.616 25.8273 199.301C26.0326 198.978 26.3443 198.722 26.7623 198.531C27.1803 198.333 27.7156 198.234 28.3683 198.234C28.801 198.234 29.23 198.296 29.6553 198.421C30.0806 198.538 30.4473 198.703 30.7553 198.916L30.4803 199.565C30.1503 199.345 29.7983 199.184 29.4243 199.081C29.0576 198.978 28.702 198.927 28.3573 198.927C27.8953 198.927 27.514 198.989 27.2133 199.114C26.9126 199.239 26.689 199.407 26.5423 199.62C26.403 199.825 26.3333 200.06 26.3333 200.324C26.3333 200.625 26.4176 200.867 26.5863 201.05C26.7623 201.233 26.9896 201.376 27.2683 201.479C27.5543 201.582 27.866 201.673 28.2033 201.754C28.5406 201.835 28.8743 201.923 29.2043 202.018C29.5416 202.113 29.8496 202.238 30.1283 202.392C30.4143 202.539 30.6416 202.737 30.8103 202.986C30.9863 203.235 31.0743 203.562 31.0743 203.965C31.0743 204.339 30.9716 204.687 30.7663 205.01C30.5609 205.325 30.2456 205.582 29.8203 205.78C29.4023 205.971 28.8633 206.066 28.2033 206.066ZM34.3789 206.066C33.8216 206.066 33.2936 205.978 32.7949 205.802C32.3036 205.619 31.9076 205.377 31.6069 205.076L31.9919 204.449C32.2412 204.706 32.5749 204.918 32.9929 205.087C33.4182 205.256 33.8802 205.34 34.3789 205.34C35.0169 205.34 35.5045 205.201 35.8419 204.922C36.1865 204.643 36.3589 204.269 36.3589 203.8C36.3589 203.331 36.1902 202.957 35.8529 202.678C35.5229 202.399 34.9986 202.26 34.2799 202.26H33.7299V201.677L36.1059 198.696L36.2159 199.004H31.9259V198.3H36.8759V198.861L34.4999 201.842L34.1149 201.589H34.4119C35.3359 201.589 36.0252 201.794 36.4799 202.205C36.9419 202.616 37.1729 203.144 37.1729 203.789C37.1729 204.222 37.0702 204.61 36.8649 204.955C36.6595 205.3 36.3479 205.571 35.9299 205.769C35.5192 205.967 35.0022 206.066 34.3789 206.066ZM41.3578 206.066C40.7638 206.066 40.2358 205.912 39.7738 205.604C39.3118 205.289 38.9488 204.841 38.6848 204.262C38.4208 203.675 38.2888 202.971 38.2888 202.15C38.2888 201.329 38.4208 200.628 38.6848 200.049C38.9488 199.462 39.3118 199.015 39.7738 198.707C40.2358 198.392 40.7638 198.234 41.3578 198.234C41.9518 198.234 42.4798 198.392 42.9418 198.707C43.4038 199.015 43.7668 199.462 44.0308 200.049C44.3021 200.628 44.4378 201.329 44.4378 202.15C44.4378 202.971 44.3021 203.675 44.0308 204.262C43.7668 204.841 43.4038 205.289 42.9418 205.604C42.4798 205.912 41.9518 206.066 41.3578 206.066ZM41.3578 205.34C41.8125 205.34 42.2085 205.219 42.5458 204.977C42.8831 204.728 43.1471 204.368 43.3378 203.899C43.5285 203.422 43.6238 202.839 43.6238 202.15C43.6238 201.461 43.5285 200.881 43.3378 200.412C43.1471 199.935 42.8831 199.576 42.5458 199.334C42.2085 199.085 41.8125 198.96 41.3578 198.96C40.9178 198.96 40.5255 199.085 40.1808 199.334C39.8362 199.576 39.5685 199.935 39.3778 200.412C39.1872 200.881 39.0918 201.461 39.0918 202.15C39.0918 202.839 39.1872 203.422 39.3778 203.899C39.5685 204.368 39.8362 204.728 40.1808 204.977C40.5255 205.219 40.9178 205.34 41.3578 205.34Z" fill="#444955"/>
<path d="M34.0953 247.32V236.98H34.6453V247.32H34.0953ZM34.3263 246.066C33.7543 246.066 33.2043 245.974 32.6763 245.791C32.1556 245.6 31.7523 245.358 31.4663 245.065L31.7853 244.438C32.0566 244.702 32.4196 244.926 32.8743 245.109C33.3363 245.285 33.8203 245.373 34.3263 245.373C34.8103 245.373 35.2026 245.314 35.5033 245.197C35.8113 245.072 36.0349 244.907 36.1743 244.702C36.3209 244.497 36.3943 244.269 36.3943 244.02C36.3943 243.719 36.3063 243.477 36.1303 243.294C35.9616 243.111 35.738 242.968 35.4593 242.865C35.1806 242.755 34.8726 242.66 34.5353 242.579C34.198 242.498 33.8606 242.414 33.5233 242.326C33.186 242.231 32.8743 242.106 32.5883 241.952C32.3096 241.798 32.0823 241.596 31.9063 241.347C31.7376 241.09 31.6533 240.757 31.6533 240.346C31.6533 239.965 31.7523 239.616 31.9503 239.301C32.1556 238.978 32.4673 238.722 32.8853 238.531C33.3033 238.333 33.8386 238.234 34.4913 238.234C34.924 238.234 35.353 238.296 35.7783 238.421C36.2036 238.538 36.5703 238.703 36.8783 238.916L36.6033 239.565C36.2733 239.345 35.9213 239.184 35.5473 239.081C35.1806 238.978 34.825 238.927 34.4803 238.927C34.0183 238.927 33.637 238.989 33.3363 239.114C33.0356 239.239 32.812 239.407 32.6653 239.62C32.526 239.825 32.4563 240.06 32.4563 240.324C32.4563 240.625 32.5406 240.867 32.7093 241.05C32.8853 241.233 33.1126 241.376 33.3913 241.479C33.6773 241.582 33.989 241.673 34.3263 241.754C34.6636 241.835 34.9973 241.923 35.3273 242.018C35.6646 242.113 35.9726 242.238 36.2513 242.392C36.5373 242.539 36.7646 242.737 36.9333 242.986C37.1093 243.235 37.1973 243.562 37.1973 243.965C37.1973 244.339 37.0946 244.687 36.8893 245.01C36.6839 245.325 36.3686 245.582 35.9433 245.78C35.5253 245.971 34.9863 246.066 34.3263 246.066ZM41.3578 246.066C40.7638 246.066 40.2358 245.912 39.7738 245.604C39.3118 245.289 38.9488 244.841 38.6848 244.262C38.4208 243.675 38.2888 242.971 38.2888 242.15C38.2888 241.329 38.4208 240.628 38.6848 240.049C38.9488 239.462 39.3118 239.015 39.7738 238.707C40.2358 238.392 40.7638 238.234 41.3578 238.234C41.9518 238.234 42.4798 238.392 42.9418 238.707C43.4038 239.015 43.7668 239.462 44.0308 240.049C44.3021 240.628 44.4378 241.329 44.4378 242.15C44.4378 242.971 44.3021 243.675 44.0308 244.262C43.7668 244.841 43.4038 245.289 42.9418 245.604C42.4798 245.912 41.9518 246.066 41.3578 246.066ZM41.3578 245.34C41.8125 245.34 42.2085 245.219 42.5458 244.977C42.8831 244.728 43.1471 244.368 43.3378 243.899C43.5285 243.422 43.6238 242.839 43.6238 242.15C43.6238 241.461 43.5285 240.881 43.3378 240.412C43.1471 239.935 42.8831 239.576 42.5458 239.334C42.2085 239.085 41.8125 238.96 41.3578 238.96C40.9178 238.96 40.5255 239.085 40.1808 239.334C39.8362 239.576 39.5685 239.935 39.3778 240.412C39.1872 240.881 39.0918 241.461 39.0918 242.15C39.0918 242.839 39.1872 243.422 39.3778 243.899C39.5685 244.368 39.8362 244.728 40.1808 244.977C40.5255 245.219 40.9178 245.34 41.3578 245.34Z" fill="#444955"/>
<path d="M23.9977 47.32V36.9801H24.5477V47.32H23.9977ZM24.2287 46.066C23.6567 46.066 23.1067 45.9743 22.5787 45.791C22.0581 45.6003 21.6547 45.3583 21.3687 45.065L21.6877 44.438C21.9591 44.702 22.3221 44.9257 22.7767 45.109C23.2387 45.285 23.7227 45.373 24.2287 45.373C24.7127 45.373 25.105 45.3143 25.4057 45.197C25.7137 45.0723 25.9374 44.9073 26.0767 44.702C26.2234 44.4967 26.2967 44.2693 26.2967 44.02C26.2967 43.7193 26.2087 43.4774 26.0327 43.294C25.864 43.1107 25.6404 42.9677 25.3617 42.865C25.083 42.755 24.775 42.6597 24.4377 42.579C24.1004 42.4984 23.763 42.414 23.4257 42.326C23.0884 42.2307 22.7767 42.106 22.4907 41.952C22.2121 41.798 21.9847 41.5964 21.8087 41.347C21.6401 41.0904 21.5557 40.7567 21.5557 40.346C21.5557 39.9647 21.6547 39.6164 21.8527 39.301C22.0581 38.9784 22.3697 38.7217 22.7877 38.5311C23.2057 38.3331 23.741 38.2341 24.3937 38.2341C24.8264 38.2341 25.2554 38.2964 25.6807 38.4211C26.106 38.5384 26.4727 38.7034 26.7807 38.916L26.5057 39.565C26.1757 39.345 25.8237 39.1837 25.4497 39.081C25.083 38.9784 24.7274 38.9271 24.3827 38.9271C23.9207 38.9271 23.5394 38.9894 23.2387 39.114C22.9381 39.2387 22.7144 39.4074 22.5677 39.62C22.4284 39.8254 22.3587 40.06 22.3587 40.324C22.3587 40.6247 22.4431 40.8667 22.6117 41.05C22.7877 41.2334 23.0151 41.3764 23.2937 41.479C23.5797 41.5817 23.8914 41.6734 24.2287 41.754C24.566 41.8347 24.8997 41.9227 25.2297 42.018C25.567 42.1134 25.875 42.238 26.1537 42.392C26.4397 42.5387 26.667 42.7367 26.8357 42.986C27.0117 43.2354 27.0997 43.5617 27.0997 43.965C27.0997 44.339 26.997 44.6873 26.7917 45.01C26.5864 45.3253 26.271 45.582 25.8457 45.78C25.4277 45.9707 24.8887 46.066 24.2287 46.066ZM29.4258 46V38.6301L29.7778 39.004H27.6108V38.3001H30.2178V46H29.4258ZM34.4894 46.066C33.9394 46.066 33.4151 45.978 32.9164 45.802C32.4178 45.6187 32.0218 45.3767 31.7284 45.076L32.1134 44.449C32.3554 44.7057 32.6854 44.9183 33.1034 45.087C33.5287 45.2557 33.9871 45.34 34.4784 45.34C35.1311 45.34 35.6261 45.197 35.9634 44.911C36.3081 44.6177 36.4804 44.2363 36.4804 43.767C36.4804 43.437 36.3997 43.1547 36.2384 42.92C36.0844 42.678 35.8204 42.491 35.4464 42.359C35.0724 42.227 34.5591 42.161 33.9064 42.161H32.2674L32.6634 38.3001H36.8764V39.004H32.9824L33.3894 38.6191L33.0484 41.853L32.6414 41.457H34.0824C34.8597 41.457 35.4831 41.5524 35.9524 41.743C36.4217 41.9337 36.7591 42.2014 36.9644 42.546C37.1771 42.8834 37.2834 43.2794 37.2834 43.734C37.2834 44.1667 37.1807 44.5627 36.9754 44.922C36.7701 45.274 36.4621 45.5527 36.0514 45.758C35.6407 45.9633 35.1201 46.066 34.4894 46.066ZM41.3578 46.066C40.7638 46.066 40.2358 45.912 39.7738 45.604C39.3118 45.2887 38.9488 44.8413 38.6848 44.262C38.4208 43.6753 38.2888 42.9714 38.2888 42.15C38.2888 41.3287 38.4208 40.6284 38.6848 40.049C38.9488 39.4624 39.3118 39.015 39.7738 38.7071C40.2358 38.3917 40.7638 38.2341 41.3578 38.2341C41.9518 38.2341 42.4798 38.3917 42.9418 38.7071C43.4038 39.015 43.7668 39.4624 44.0308 40.049C44.3021 40.6284 44.4378 41.3287 44.4378 42.15C44.4378 42.9714 44.3021 43.6753 44.0308 44.262C43.7668 44.8413 43.4038 45.2887 42.9418 45.604C42.4798 45.912 41.9518 46.066 41.3578 46.066ZM41.3578 45.34C41.8125 45.34 42.2085 45.219 42.5458 44.977C42.8831 44.7277 43.1471 44.3683 43.3378 43.899C43.5285 43.4224 43.6238 42.8394 43.6238 42.15C43.6238 41.4607 43.5285 40.8814 43.3378 40.412C43.1471 39.9354 42.8831 39.576 42.5458 39.334C42.2085 39.0847 41.8125 38.96 41.3578 38.96C40.9178 38.96 40.5255 39.0847 40.1808 39.334C39.8362 39.576 39.5685 39.9354 39.3778 40.412C39.1872 40.8814 39.0918 41.4607 39.0918 42.15C39.0918 42.8394 39.1872 43.4224 39.3778 43.899C39.5685 44.3683 39.8362 44.7277 40.1808 44.977C40.5255 45.219 40.9178 45.34 41.3578 45.34Z" fill="#444955"/>
<path d="M23.9977 87.32V76.9801H24.5477V87.32H23.9977ZM24.2287 86.066C23.6567 86.066 23.1067 85.9743 22.5787 85.791C22.0581 85.6003 21.6547 85.3583 21.3687 85.065L21.6877 84.438C21.9591 84.702 22.3221 84.9257 22.7767 85.109C23.2387 85.285 23.7227 85.373 24.2287 85.373C24.7127 85.373 25.105 85.3143 25.4057 85.197C25.7137 85.0723 25.9374 84.9073 26.0767 84.702C26.2234 84.4967 26.2967 84.2693 26.2967 84.02C26.2967 83.7193 26.2087 83.4774 26.0327 83.294C25.864 83.1107 25.6404 82.9677 25.3617 82.865C25.083 82.755 24.775 82.6597 24.4377 82.579C24.1004 82.4984 23.763 82.414 23.4257 82.326C23.0884 82.2307 22.7767 82.106 22.4907 81.952C22.2121 81.798 21.9847 81.5964 21.8087 81.347C21.6401 81.0904 21.5557 80.7567 21.5557 80.346C21.5557 79.9647 21.6547 79.6164 21.8527 79.301C22.0581 78.9784 22.3697 78.7217 22.7877 78.5311C23.2057 78.3331 23.741 78.2341 24.3937 78.2341C24.8264 78.2341 25.2554 78.2964 25.6807 78.4211C26.106 78.5384 26.4727 78.7034 26.7807 78.916L26.5057 79.565C26.1757 79.345 25.8237 79.1837 25.4497 79.081C25.083 78.9784 24.7274 78.9271 24.3827 78.9271C23.9207 78.9271 23.5394 78.9894 23.2387 79.114C22.9381 79.2387 22.7144 79.4074 22.5677 79.62C22.4284 79.8254 22.3587 80.06 22.3587 80.324C22.3587 80.6247 22.4431 80.8667 22.6117 81.05C22.7877 81.2334 23.0151 81.3764 23.2937 81.479C23.5797 81.5817 23.8914 81.6734 24.2287 81.754C24.566 81.8347 24.8997 81.9227 25.2297 82.018C25.567 82.1134 25.875 82.238 26.1537 82.392C26.4397 82.5387 26.667 82.7367 26.8357 82.986C27.0117 83.2354 27.0997 83.5617 27.0997 83.965C27.0997 84.339 26.997 84.6873 26.7917 85.01C26.5864 85.3253 26.271 85.582 25.8457 85.78C25.4277 85.9707 24.8887 86.066 24.2287 86.066ZM29.4258 86V78.6301L29.7778 79.004H27.6108V78.3001H30.2178V86H29.4258ZM31.9154 86V85.439L35.1164 82.304C35.4097 82.018 35.6297 81.7687 35.7764 81.556C35.9231 81.336 36.0221 81.1307 36.0734 80.94C36.1247 80.7494 36.1504 80.5697 36.1504 80.401C36.1504 79.9537 35.9964 79.6017 35.6884 79.345C35.3877 79.0884 34.9404 78.96 34.3464 78.96C33.8917 78.96 33.4884 79.0297 33.1364 79.169C32.7917 79.3084 32.4948 79.5247 32.2454 79.818L31.6844 79.334C31.9851 78.982 32.3701 78.7107 32.8394 78.5201C33.3087 78.3294 33.8331 78.2341 34.4124 78.2341C34.9331 78.2341 35.3841 78.3184 35.7654 78.4871C36.1467 78.6484 36.4401 78.8867 36.6454 79.202C36.8581 79.5174 36.9644 79.8877 36.9644 80.313C36.9644 80.5624 36.9277 80.808 36.8544 81.05C36.7884 81.292 36.6637 81.5487 36.4804 81.82C36.3044 82.084 36.0441 82.3847 35.6994 82.722L32.7624 85.604L32.5424 85.296H37.3164V86H31.9154ZM41.3578 86.066C40.7638 86.066 40.2358 85.912 39.7738 85.604C39.3118 85.2887 38.9488 84.8413 38.6848 84.262C38.4208 83.6753 38.2888 82.9714 38.2888 82.15C38.2888 81.3287 38.4208 80.6284 38.6848 80.049C38.9488 79.4624 39.3118 79.015 39.7738 78.7071C40.2358 78.3917 40.7638 78.2341 41.3578 78.2341C41.9518 78.2341 42.4798 78.3917 42.9418 78.7071C43.4038 79.015 43.7668 79.4624 44.0308 80.049C44.3021 80.6284 44.4378 81.3287 44.4378 82.15C44.4378 82.9714 44.3021 83.6753 44.0308 84.262C43.7668 84.8413 43.4038 85.2887 42.9418 85.604C42.4798 85.912 41.9518 86.066 41.3578 86.066ZM41.3578 85.34C41.8125 85.34 42.2085 85.219 42.5458 84.977C42.8831 84.7277 43.1471 84.3683 43.3378 83.899C43.5285 83.4224 43.6238 82.8394 43.6238 82.15C43.6238 81.4607 43.5285 80.8814 43.3378 80.412C43.1471 79.9354 42.8831 79.576 42.5458 79.334C42.2085 79.0847 41.8125 78.96 41.3578 78.96C40.9178 78.96 40.5255 79.0847 40.1808 79.334C39.8362 79.576 39.5685 79.9354 39.3778 80.412C39.1872 80.8814 39.0918 81.4607 39.0918 82.15C39.0918 82.8394 39.1872 83.4224 39.3778 83.899C39.5685 84.3683 39.8362 84.7277 40.1808 84.977C40.5255 85.219 40.9178 85.34 41.3578 85.34Z" fill="#444955"/>
<path d="M27.4996 127.32V116.98H28.0496V127.32H27.4996ZM27.7306 126.066C27.1586 126.066 26.6086 125.974 26.0807 125.791C25.56 125.6 25.1567 125.358 24.8707 125.065L25.1897 124.438C25.461 124.702 25.824 124.926 26.2786 125.109C26.7406 125.285 27.2246 125.373 27.7306 125.373C28.2146 125.373 28.607 125.314 28.9076 125.197C29.2156 125.072 29.4393 124.907 29.5786 124.702C29.7253 124.497 29.7986 124.269 29.7986 124.02C29.7986 123.719 29.7106 123.477 29.5346 123.294C29.366 123.111 29.1423 122.968 28.8636 122.865C28.585 122.755 28.277 122.66 27.9396 122.579C27.6023 122.498 27.265 122.414 26.9276 122.326C26.5903 122.231 26.2786 122.106 25.9927 121.952C25.714 121.798 25.4867 121.596 25.3107 121.347C25.142 121.09 25.0577 120.757 25.0577 120.346C25.0577 119.965 25.1567 119.616 25.3547 119.301C25.56 118.978 25.8717 118.722 26.2896 118.531C26.7076 118.333 27.243 118.234 27.8956 118.234C28.3283 118.234 28.7573 118.296 29.1826 118.421C29.608 118.538 29.9746 118.703 30.2826 118.916L30.0076 119.565C29.6776 119.345 29.3256 119.184 28.9516 119.081C28.585 118.978 28.2293 118.927 27.8846 118.927C27.4226 118.927 27.0413 118.989 26.7406 119.114C26.44 119.239 26.2163 119.407 26.0697 119.62C25.9303 119.825 25.8607 120.06 25.8607 120.324C25.8607 120.625 25.945 120.867 26.1137 121.05C26.2896 121.233 26.517 121.376 26.7956 121.479C27.0816 121.582 27.3933 121.673 27.7306 121.754C28.068 121.835 28.4016 121.923 28.7316 122.018C29.069 122.113 29.377 122.238 29.6556 122.392C29.9416 122.539 30.169 122.737 30.3376 122.986C30.5136 123.235 30.6016 123.562 30.6016 123.965C30.6016 124.339 30.499 124.687 30.2936 125.01C30.0883 125.325 29.773 125.582 29.3476 125.78C28.9296 125.971 28.3906 126.066 27.7306 126.066ZM33.9838 118.234C34.6657 118.234 35.2414 118.388 35.7107 118.696C36.1801 118.997 36.5357 119.433 36.7777 120.005C37.0197 120.577 37.1407 121.27 37.1407 122.084C37.1407 122.949 36.9904 123.679 36.6897 124.273C36.3964 124.867 35.9857 125.314 35.4577 125.615C34.9297 125.916 34.3174 126.066 33.6208 126.066C33.2761 126.066 32.9461 126.033 32.6308 125.967C32.3228 125.901 32.0441 125.795 31.7948 125.648L32.1138 125.01C32.3118 125.142 32.5391 125.237 32.7958 125.296C33.0598 125.347 33.3311 125.373 33.6098 125.373C34.4384 125.373 35.0984 125.109 35.5897 124.581C36.0884 124.053 36.3377 123.265 36.3377 122.216C36.3377 122.047 36.3267 121.846 36.3047 121.611C36.2901 121.376 36.2497 121.142 36.1837 120.907L36.4587 121.116C36.3854 121.497 36.2277 121.824 35.9857 122.095C35.7511 122.359 35.4577 122.561 35.1057 122.7C34.7611 122.839 34.3761 122.909 33.9508 122.909C33.4448 122.909 32.9938 122.814 32.5978 122.623C32.2091 122.432 31.9048 122.165 31.6848 121.82C31.4648 121.475 31.3548 121.068 31.3548 120.599C31.3548 120.115 31.4684 119.697 31.6958 119.345C31.9231 118.993 32.2348 118.722 32.6308 118.531C33.0341 118.333 33.4851 118.234 33.9838 118.234ZM34.0167 118.905C33.6501 118.905 33.3238 118.975 33.0378 119.114C32.7591 119.246 32.5391 119.437 32.3778 119.686C32.2164 119.935 32.1358 120.232 32.1358 120.577C32.1358 121.083 32.3081 121.486 32.6528 121.787C33.0048 122.088 33.4778 122.238 34.0717 122.238C34.4677 122.238 34.8124 122.165 35.1057 122.018C35.4064 121.871 35.6374 121.67 35.7987 121.413C35.9674 121.156 36.0517 120.87 36.0517 120.555C36.0517 120.269 35.9747 120.001 35.8207 119.752C35.6667 119.503 35.4394 119.301 35.1387 119.147C34.8381 118.986 34.4641 118.905 34.0167 118.905ZM41.3578 126.066C40.7638 126.066 40.2358 125.912 39.7738 125.604C39.3118 125.289 38.9488 124.841 38.6848 124.262C38.4208 123.675 38.2888 122.971 38.2888 122.15C38.2888 121.329 38.4208 120.628 38.6848 120.049C38.9488 119.462 39.3118 119.015 39.7738 118.707C40.2358 118.392 40.7638 118.234 41.3578 118.234C41.9518 118.234 42.4798 118.392 42.9418 118.707C43.4038 119.015 43.7668 119.462 44.0308 120.049C44.3021 120.628 44.4378 121.329 44.4378 122.15C44.4378 122.971 44.3021 123.675 44.0308 124.262C43.7668 124.841 43.4038 125.289 42.9418 125.604C42.4798 125.912 41.9518 126.066 41.3578 126.066ZM41.3578 125.34C41.8125 125.34 42.2085 125.219 42.5458 124.977C42.8831 124.728 43.1471 124.368 43.3378 123.899C43.5285 123.422 43.6238 122.839 43.6238 122.15C43.6238 121.461 43.5285 120.881 43.3378 120.412C43.1471 119.935 42.8831 119.576 42.5458 119.334C42.2085 119.085 41.8125 118.96 41.3578 118.96C40.9178 118.96 40.5255 119.085 40.1808 119.334C39.8362 119.576 39.5685 119.935 39.3778 120.412C39.1872 120.881 39.0918 121.461 39.0918 122.15C39.0918 122.839 39.1872 123.422 39.3778 123.899C39.5685 124.368 39.8362 124.728 40.1808 124.977C40.5255 125.219 40.9178 125.34 41.3578 125.34Z" fill="#444955"/>
<path d="M27.3922 167.32V156.98H27.9422V167.32H27.3922ZM27.6232 166.066C27.0512 166.066 26.5012 165.974 25.9732 165.791C25.4526 165.6 25.0492 165.358 24.7632 165.065L25.0822 164.438C25.3536 164.702 25.7166 164.926 26.1712 165.109C26.6332 165.285 27.1172 165.373 27.6232 165.373C28.1072 165.373 28.4995 165.314 28.8002 165.197C29.1082 165.072 29.3319 164.907 29.4712 164.702C29.6179 164.497 29.6912 164.269 29.6912 164.02C29.6912 163.719 29.6032 163.477 29.4272 163.294C29.2585 163.111 29.0349 162.968 28.7562 162.865C28.4775 162.755 28.1695 162.66 27.8322 162.579C27.4949 162.498 27.1576 162.414 26.8202 162.326C26.4829 162.231 26.1712 162.106 25.8852 161.952C25.6066 161.798 25.3792 161.596 25.2032 161.347C25.0346 161.09 24.9502 160.757 24.9502 160.346C24.9502 159.965 25.0492 159.616 25.2472 159.301C25.4526 158.978 25.7642 158.722 26.1822 158.531C26.6002 158.333 27.1356 158.234 27.7882 158.234C28.2209 158.234 28.6499 158.296 29.0752 158.421C29.5005 158.538 29.8672 158.703 30.1752 158.916L29.9002 159.565C29.5702 159.345 29.2182 159.184 28.8442 159.081C28.4775 158.978 28.1219 158.927 27.7772 158.927C27.3152 158.927 26.9339 158.989 26.6332 159.114C26.3326 159.239 26.1089 159.407 25.9622 159.62C25.8229 159.825 25.7532 160.06 25.7532 160.324C25.7532 160.625 25.8376 160.867 26.0062 161.05C26.1822 161.233 26.4096 161.376 26.6882 161.479C26.9742 161.582 27.2859 161.673 27.6232 161.754C27.9605 161.835 28.2942 161.923 28.6242 162.018C28.9615 162.113 29.2695 162.238 29.5482 162.392C29.8342 162.539 30.0615 162.737 30.2302 162.986C30.4062 163.235 30.4942 163.562 30.4942 163.965C30.4942 164.339 30.3915 164.687 30.1862 165.01C29.9809 165.325 29.6655 165.582 29.2402 165.78C28.8222 165.971 28.2832 166.066 27.6232 166.066ZM34.7427 166.066C34.0608 166.066 33.4851 165.916 33.0158 165.615C32.5464 165.307 32.1908 164.867 31.9488 164.295C31.7068 163.716 31.5858 163.023 31.5858 162.216C31.5858 161.343 31.7324 160.614 32.0258 160.027C32.3264 159.433 32.7408 158.986 33.2688 158.685C33.7968 158.384 34.4091 158.234 35.1057 158.234C35.4504 158.234 35.7804 158.267 36.0957 158.333C36.4111 158.399 36.6897 158.505 36.9317 158.652L36.6127 159.29C36.4147 159.158 36.1874 159.066 35.9307 159.015C35.6741 158.956 35.4027 158.927 35.1167 158.927C34.2881 158.927 33.6244 159.191 33.1258 159.719C32.6344 160.247 32.3888 161.035 32.3888 162.084C32.3888 162.245 32.3961 162.447 32.4108 162.689C32.4328 162.924 32.4768 163.158 32.5428 163.393L32.2678 163.184C32.3484 162.803 32.5061 162.48 32.7408 162.216C32.9754 161.945 33.2688 161.739 33.6208 161.6C33.9728 161.461 34.3577 161.391 34.7757 161.391C35.2891 161.391 35.7401 161.486 36.1287 161.677C36.5174 161.868 36.8217 162.135 37.0417 162.48C37.2617 162.825 37.3717 163.232 37.3717 163.701C37.3717 164.178 37.2581 164.596 37.0307 164.955C36.8034 165.307 36.4881 165.582 36.0847 165.78C35.6887 165.971 35.2414 166.066 34.7427 166.066ZM34.7097 165.395C35.0764 165.395 35.3991 165.329 35.6777 165.197C35.9637 165.058 36.1874 164.863 36.3487 164.614C36.5101 164.357 36.5907 164.06 36.5907 163.723C36.5907 163.217 36.4147 162.814 36.0627 162.513C35.7181 162.212 35.2487 162.062 34.6547 162.062C34.2588 162.062 33.9141 162.135 33.6208 162.282C33.3274 162.429 33.0964 162.63 32.9278 162.887C32.7591 163.136 32.6748 163.422 32.6748 163.745C32.6748 164.024 32.7518 164.291 32.9058 164.548C33.0598 164.797 33.2871 165.003 33.5878 165.164C33.8958 165.318 34.2698 165.395 34.7097 165.395ZM41.3578 166.066C40.7638 166.066 40.2358 165.912 39.7738 165.604C39.3118 165.289 38.9488 164.841 38.6848 164.262C38.4208 163.675 38.2888 162.971 38.2888 162.15C38.2888 161.329 38.4208 160.628 38.6848 160.049C38.9488 159.462 39.3118 159.015 39.7738 158.707C40.2358 158.392 40.7638 158.234 41.3578 158.234C41.9518 158.234 42.4798 158.392 42.9418 158.707C43.4038 159.015 43.7668 159.462 44.0308 160.049C44.3021 160.628 44.4378 161.329 44.4378 162.15C44.4378 162.971 44.3021 163.675 44.0308 164.262C43.7668 164.841 43.4038 165.289 42.9418 165.604C42.4798 165.912 41.9518 166.066 41.3578 166.066ZM41.3578 165.34C41.8125 165.34 42.2085 165.219 42.5458 164.977C42.8831 164.728 43.1471 164.368 43.3378 163.899C43.5285 163.422 43.6238 162.839 43.6238 162.15C43.6238 161.461 43.5285 160.881 43.3378 160.412C43.1471 159.935 42.8831 159.576 42.5458 159.334C42.2085 159.085 41.8125 158.96 41.3578 158.96C40.9178 158.96 40.5255 159.085 40.1808 159.334C39.8362 159.576 39.5685 159.935 39.3778 160.412C39.1872 160.881 39.0918 161.461 39.0918 162.15C39.0918 162.839 39.1872 163.422 39.3778 163.899C39.5685 164.368 39.8362 164.728 40.1808 164.977C40.5255 165.219 40.9178 165.34 41.3578 165.34Z" fill="#444955"/>
<path d="M27.9723 207.32V196.98H28.5223V207.32H27.9723ZM28.2033 206.066C27.6313 206.066 27.0813 205.974 26.5533 205.791C26.0326 205.6 25.6293 205.358 25.3433 205.065L25.6623 204.438C25.9336 204.702 26.2966 204.926 26.7513 205.109C27.2133 205.285 27.6973 205.373 28.2033 205.373C28.6873 205.373 29.0796 205.314 29.3803 205.197C29.6883 205.072 29.9119 204.907 30.0513 204.702C30.1979 204.497 30.2713 204.269 30.2713 204.02C30.2713 203.719 30.1833 203.477 30.0073 203.294C29.8386 203.111 29.6149 202.968 29.3363 202.865C29.0576 202.755 28.7496 202.66 28.4123 202.579C28.075 202.498 27.7376 202.414 27.4003 202.326C27.063 202.231 26.7513 202.106 26.4653 201.952C26.1866 201.798 25.9593 201.596 25.7833 201.347C25.6146 201.09 25.5303 200.757 25.5303 200.346C25.5303 199.965 25.6293 199.616 25.8273 199.301C26.0326 198.978 26.3443 198.722 26.7623 198.531C27.1803 198.333 27.7156 198.234 28.3683 198.234C28.801 198.234 29.23 198.296 29.6553 198.421C30.0806 198.538 30.4473 198.703 30.7553 198.916L30.4803 199.565C30.1503 199.345 29.7983 199.184 29.4243 199.081C29.0576 198.978 28.702 198.927 28.3573 198.927C27.8953 198.927 27.514 198.989 27.2133 199.114C26.9126 199.239 26.689 199.407 26.5423 199.62C26.403 199.825 26.3333 200.06 26.3333 200.324C26.3333 200.625 26.4176 200.867 26.5863 201.05C26.7623 201.233 26.9896 201.376 27.2683 201.479C27.5543 201.582 27.866 201.673 28.2033 201.754C28.5406 201.835 28.8743 201.923 29.2043 202.018C29.5416 202.113 29.8496 202.238 30.1283 202.392C30.4143 202.539 30.6416 202.737 30.8103 202.986C30.9863 203.235 31.0743 203.562 31.0743 203.965C31.0743 204.339 30.9716 204.687 30.7663 205.01C30.5609 205.325 30.2456 205.582 29.8203 205.78C29.4023 205.971 28.8633 206.066 28.2033 206.066ZM34.3789 206.066C33.8216 206.066 33.2936 205.978 32.7949 205.802C32.3036 205.619 31.9076 205.377 31.6069 205.076L31.9919 204.449C32.2412 204.706 32.5749 204.918 32.9929 205.087C33.4182 205.256 33.8802 205.34 34.3789 205.34C35.0169 205.34 35.5045 205.201 35.8419 204.922C36.1865 204.643 36.3589 204.269 36.3589 203.8C36.3589 203.331 36.1902 202.957 35.8529 202.678C35.5229 202.399 34.9986 202.26 34.2799 202.26H33.7299V201.677L36.1059 198.696L36.2159 199.004H31.9259V198.3H36.8759V198.861L34.4999 201.842L34.1149 201.589H34.4119C35.3359 201.589 36.0252 201.794 36.4799 202.205C36.9419 202.616 37.1729 203.144 37.1729 203.789C37.1729 204.222 37.0702 204.61 36.8649 204.955C36.6595 205.3 36.3479 205.571 35.9299 205.769C35.5192 205.967 35.0022 206.066 34.3789 206.066ZM41.3578 206.066C40.7638 206.066 40.2358 205.912 39.7738 205.604C39.3118 205.289 38.9488 204.841 38.6848 204.262C38.4208 203.675 38.2888 202.971 38.2888 202.15C38.2888 201.329 38.4208 200.628 38.6848 200.049C38.9488 199.462 39.3118 199.015 39.7738 198.707C40.2358 198.392 40.7638 198.234 41.3578 198.234C41.9518 198.234 42.4798 198.392 42.9418 198.707C43.4038 199.015 43.7668 199.462 44.0308 200.049C44.3021 200.628 44.4378 201.329 44.4378 202.15C44.4378 202.971 44.3021 203.675 44.0308 204.262C43.7668 204.841 43.4038 205.289 42.9418 205.604C42.4798 205.912 41.9518 206.066 41.3578 206.066ZM41.3578 205.34C41.8125 205.34 42.2085 205.219 42.5458 204.977C42.8831 204.728 43.1471 204.368 43.3378 203.899C43.5285 203.422 43.6238 202.839 43.6238 202.15C43.6238 201.461 43.5285 200.881 43.3378 200.412C43.1471 199.935 42.8831 199.576 42.5458 199.334C42.2085 199.085 41.8125 198.96 41.3578 198.96C40.9178 198.96 40.5255 199.085 40.1808 199.334C39.8362 199.576 39.5685 199.935 39.3778 200.412C39.1872 200.881 39.0918 201.461 39.0918 202.15C39.0918 202.839 39.1872 203.422 39.3778 203.899C39.5685 204.368 39.8362 204.728 40.1808 204.977C40.5255 205.219 40.9178 205.34 41.3578 205.34Z" fill="#444955"/>
<path d="M34.0953 247.32V236.98H34.6453V247.32H34.0953ZM34.3263 246.066C33.7543 246.066 33.2043 245.974 32.6763 245.791C32.1556 245.6 31.7523 245.358 31.4663 245.065L31.7853 244.438C32.0566 244.702 32.4196 244.926 32.8743 245.109C33.3363 245.285 33.8203 245.373 34.3263 245.373C34.8103 245.373 35.2026 245.314 35.5033 245.197C35.8113 245.072 36.0349 244.907 36.1743 244.702C36.3209 244.497 36.3943 244.269 36.3943 244.02C36.3943 243.719 36.3063 243.477 36.1303 243.294C35.9616 243.111 35.738 242.968 35.4593 242.865C35.1806 242.755 34.8726 242.66 34.5353 242.579C34.198 242.498 33.8606 242.414 33.5233 242.326C33.186 242.231 32.8743 242.106 32.5883 241.952C32.3096 241.798 32.0823 241.596 31.9063 241.347C31.7376 241.09 31.6533 240.757 31.6533 240.346C31.6533 239.965 31.7523 239.616 31.9503 239.301C32.1556 238.978 32.4673 238.722 32.8853 238.531C33.3033 238.333 33.8386 238.234 34.4913 238.234C34.924 238.234 35.353 238.296 35.7783 238.421C36.2036 238.538 36.5703 238.703 36.8783 238.916L36.6033 239.565C36.2733 239.345 35.9213 239.184 35.5473 239.081C35.1806 238.978 34.825 238.927 34.4803 238.927C34.0183 238.927 33.637 238.989 33.3363 239.114C33.0356 239.239 32.812 239.407 32.6653 239.62C32.526 239.825 32.4563 240.06 32.4563 240.324C32.4563 240.625 32.5406 240.867 32.7093 241.05C32.8853 241.233 33.1126 241.376 33.3913 241.479C33.6773 241.582 33.989 241.673 34.3263 241.754C34.6636 241.835 34.9973 241.923 35.3273 242.018C35.6646 242.113 35.9726 242.238 36.2513 242.392C36.5373 242.539 36.7646 242.737 36.9333 242.986C37.1093 243.235 37.1973 243.562 37.1973 243.965C37.1973 244.339 37.0946 244.687 36.8893 245.01C36.6839 245.325 36.3686 245.582 35.9433 245.78C35.5253 245.971 34.9863 246.066 34.3263 246.066ZM41.3578 246.066C40.7638 246.066 40.2358 245.912 39.7738 245.604C39.3118 245.289 38.9488 244.841 38.6848 244.262C38.4208 243.675 38.2888 242.971 38.2888 242.15C38.2888 241.329 38.4208 240.628 38.6848 240.049C38.9488 239.462 39.3118 239.015 39.7738 238.707C40.2358 238.392 40.7638 238.234 41.3578 238.234C41.9518 238.234 42.4798 238.392 42.9418 238.707C43.4038 239.015 43.7668 239.462 44.0308 240.049C44.3021 240.628 44.4378 241.329 44.4378 242.15C44.4378 242.971 44.3021 243.675 44.0308 244.262C43.7668 244.841 43.4038 245.289 42.9418 245.604C42.4798 245.912 41.9518 246.066 41.3578 246.066ZM41.3578 245.34C41.8125 245.34 42.2085 245.219 42.5458 244.977C42.8831 244.728 43.1471 244.368 43.3378 243.899C43.5285 243.422 43.6238 242.839 43.6238 242.15C43.6238 241.461 43.5285 240.881 43.3378 240.412C43.1471 239.935 42.8831 239.576 42.5458 239.334C42.2085 239.085 41.8125 238.96 41.3578 238.96C40.9178 238.96 40.5255 239.085 40.1808 239.334C39.8362 239.576 39.5685 239.935 39.3778 240.412C39.1872 240.881 39.0918 241.461 39.0918 242.15C39.0918 242.839 39.1872 243.422 39.3778 243.899C39.5685 244.368 39.8362 244.728 40.1808 244.977C40.5255 245.219 40.9178 245.34 41.3578 245.34Z" fill="#444955"/>
<g clip-path="url(#clip0_5466_7389)">
<path d="M49.9961 250H1056" stroke="#DADBDD" stroke-width="0.999993" stroke-dasharray="3 3"/>
<path d="M49.9961 76H1258" stroke="#DADBDD" stroke-width="0.999993" stroke-dasharray="3 3"/>
<path d="M49.9961 208H1258" stroke="#DADBDD" stroke-width="0.999993" stroke-dasharray="3 3"/>
<path d="M49.9961 165H1258" stroke="#DADBDD" stroke-width="0.999993" stroke-dasharray="3 3"/>
<path d="M49.9961 121H1258" stroke="#DADBDD" stroke-width="0.999993" stroke-dasharray="3 3"/>
<path d="M49.9961 36H1258" stroke="#DADBDD" stroke-width="0.999993" stroke-dasharray="3 3"/>
</g>
<path d="M50 250H49.5V250.5H50V250ZM358 250V249.5H50V250V250.5H358V250ZM50 250H50.5V35H50H49.5V250H50Z" fill="#444955"/>
<path d="M63.3039 268.661C63.1439 268.661 63.0239 268.625 62.9439 268.551C62.8706 268.471 62.8339 268.365 62.8339 268.231C62.8339 268.151 62.8539 268.071 62.8939 267.991C62.9339 267.911 62.9939 267.831 63.0739 267.751L65.2639 265.401C65.5972 265.048 65.8372 264.721 65.9839 264.421C66.1306 264.121 66.2039 263.818 66.2039 263.511C66.2039 263.125 66.0839 262.831 65.8439 262.631C65.6106 262.425 65.2672 262.321 64.8139 262.321C64.5339 262.321 64.2639 262.368 64.0039 262.461C63.7506 262.548 63.5006 262.685 63.2539 262.871C63.1606 262.938 63.0739 262.968 62.9939 262.961C62.9139 262.955 62.8439 262.925 62.7839 262.871C62.7306 262.811 62.6906 262.745 62.6639 262.671C62.6439 262.591 62.6472 262.508 62.6739 262.421C62.7006 262.335 62.7572 262.261 62.8439 262.201C63.1172 261.988 63.4339 261.821 63.7939 261.701C64.1539 261.581 64.5239 261.521 64.9039 261.521C65.3839 261.521 65.7872 261.598 66.1139 261.751C66.4472 261.898 66.7006 262.115 66.8739 262.401C67.0472 262.681 67.1339 263.025 67.1339 263.431C67.1339 263.711 67.0872 263.988 66.9939 264.261C66.9006 264.528 66.7606 264.801 66.5739 265.081C66.3939 265.361 66.1606 265.651 65.8739 265.951L63.7939 268.141V267.871H67.0739C67.2072 267.871 67.3072 267.905 67.3739 267.971C67.4472 268.038 67.4839 268.135 67.4839 268.261C67.4839 268.388 67.4472 268.488 67.3739 268.561C67.3072 268.628 67.2072 268.661 67.0739 268.661H63.3039ZM70.5 268.751C70.2 268.751 69.8867 268.695 69.56 268.581C69.24 268.468 68.9533 268.305 68.7 268.091C68.6267 268.038 68.5767 267.971 68.55 267.891C68.53 267.805 68.53 267.725 68.55 267.651C68.57 267.571 68.6067 267.505 68.66 267.451C68.72 267.391 68.79 267.358 68.87 267.351C68.95 267.345 69.0367 267.375 69.13 267.441C69.3567 267.621 69.5867 267.751 69.82 267.831C70.0533 267.911 70.2867 267.951 70.52 267.951C70.94 267.951 71.2967 267.848 71.59 267.641C71.8833 267.428 72.1067 267.115 72.26 266.701C72.4133 266.281 72.49 265.765 72.49 265.151V264.261H72.59C72.55 264.628 72.44 264.948 72.26 265.221C72.08 265.488 71.8467 265.695 71.56 265.841C71.28 265.988 70.9633 266.061 70.61 266.061C70.1967 266.061 69.83 265.965 69.51 265.771C69.1967 265.578 68.9467 265.315 68.76 264.981C68.58 264.641 68.49 264.255 68.49 263.821C68.49 263.375 68.5867 262.978 68.78 262.631C68.9733 262.285 69.24 262.015 69.58 261.821C69.92 261.621 70.31 261.521 70.75 261.521C71.3167 261.521 71.7933 261.658 72.18 261.931C72.5733 262.198 72.8733 262.591 73.08 263.111C73.2867 263.625 73.39 264.245 73.39 264.971C73.39 265.585 73.3233 266.125 73.19 266.591C73.0633 267.058 72.8733 267.451 72.62 267.771C72.3733 268.091 72.07 268.335 71.71 268.501C71.3567 268.668 70.9533 268.751 70.5 268.751ZM70.82 265.291C71.1 265.291 71.3467 265.228 71.56 265.101C71.78 264.968 71.95 264.788 72.07 264.561C72.19 264.335 72.25 264.075 72.25 263.781C72.25 263.481 72.19 263.221 72.07 263.001C71.95 262.775 71.78 262.598 71.56 262.471C71.3467 262.345 71.1 262.281 70.82 262.281C70.5333 262.281 70.2833 262.345 70.07 262.471C69.8567 262.598 69.6867 262.775 69.56 263.001C69.44 263.221 69.38 263.481 69.38 263.781C69.38 264.075 69.44 264.335 69.56 264.561C69.6867 264.788 69.8567 264.968 70.07 265.101C70.2833 265.228 70.5333 265.291 70.82 265.291Z" fill="#444955"/>
<path d="M56.5918 211.918C56.4598 211.918 56.3518 211.873 56.2678 211.783C56.1838 211.699 56.1418 211.594 56.1418 211.468V210.667L56.3488 210.865C55.9348 210.853 55.5658 210.799 55.2418 210.703C54.9238 210.607 54.6538 210.496 54.4318 210.37C54.3238 210.304 54.2488 210.223 54.2068 210.127C54.1648 210.025 54.1498 209.923 54.1618 209.821C54.1738 209.719 54.2098 209.632 54.2698 209.56C54.3358 209.482 54.4168 209.434 54.5128 209.416C54.6088 209.392 54.7198 209.416 54.8458 209.488C55.0138 209.584 55.2328 209.677 55.5028 209.767C55.7788 209.851 56.1088 209.893 56.4928 209.893C56.7928 209.893 57.0358 209.857 57.2218 209.785C57.4078 209.713 57.5428 209.614 57.6268 209.488C57.7168 209.362 57.7618 209.218 57.7618 209.056C57.7618 208.924 57.7318 208.81 57.6718 208.714C57.6118 208.612 57.5128 208.525 57.3748 208.453C57.2368 208.375 57.0508 208.312 56.8168 208.264L55.8628 208.057C55.3168 207.937 54.9088 207.736 54.6388 207.454C54.3688 207.172 54.2338 206.803 54.2338 206.347C54.2338 205.993 54.3208 205.678 54.4948 205.402C54.6688 205.12 54.9118 204.895 55.2238 204.727C55.5358 204.559 55.9018 204.46 56.3218 204.43L56.1418 204.565V203.809C56.1418 203.683 56.1838 203.578 56.2678 203.494C56.3518 203.404 56.4598 203.359 56.5918 203.359C56.7178 203.359 56.8228 203.404 56.9068 203.494C56.9968 203.578 57.0418 203.683 57.0418 203.809V204.565L56.8528 204.421C57.1108 204.427 57.3928 204.478 57.6988 204.574C58.0108 204.67 58.2778 204.805 58.4998 204.979C58.5898 205.051 58.6498 205.135 58.6798 205.231C58.7098 205.321 58.7128 205.411 58.6888 205.501C58.6648 205.585 58.6198 205.657 58.5538 205.717C58.4878 205.777 58.4038 205.813 58.3018 205.825C58.2058 205.831 58.0948 205.798 57.9688 205.726C57.7948 205.624 57.5998 205.543 57.3838 205.483C57.1678 205.417 56.9098 205.384 56.6098 205.384C56.2258 205.384 55.9228 205.471 55.7008 205.645C55.4848 205.813 55.3768 206.035 55.3768 206.311C55.3768 206.515 55.4428 206.68 55.5748 206.806C55.7068 206.926 55.9318 207.022 56.2498 207.094L57.2308 207.31C57.8068 207.436 58.2298 207.637 58.4998 207.913C58.7698 208.183 58.9048 208.54 58.9048 208.984C58.9048 209.332 58.8178 209.641 58.6438 209.911C58.4698 210.175 58.2298 210.388 57.9238 210.55C57.6238 210.706 57.2728 210.805 56.8708 210.847L57.0418 210.658V211.468C57.0418 211.594 56.9998 211.699 56.9158 211.783C56.8318 211.873 56.7238 211.918 56.5918 211.918Z" fill="#444955"/>
<path d="M60.7878 210.811C60.5958 210.811 60.4548 210.769 60.3648 210.685C60.2808 210.595 60.2388 210.466 60.2388 210.298C60.2388 210.196 60.2658 210.097 60.3198 210.001C60.3738 209.905 60.4518 209.803 60.5538 209.695L62.3628 207.769C62.6388 207.481 62.8368 207.22 62.9568 206.986C63.0768 206.746 63.1368 206.506 63.1368 206.266C63.1368 205.966 63.0408 205.738 62.8488 205.582C62.6628 205.426 62.3898 205.348 62.0298 205.348C61.8258 205.348 61.6218 205.378 61.4178 205.438C61.2138 205.492 61.0068 205.588 60.7968 205.726C60.6888 205.798 60.5868 205.828 60.4908 205.816C60.4008 205.804 60.3198 205.765 60.2478 205.699C60.1818 205.633 60.1368 205.552 60.1128 205.456C60.0888 205.36 60.0918 205.264 60.1218 205.168C60.1578 205.066 60.2298 204.979 60.3378 204.907C60.5958 204.733 60.8838 204.601 61.2018 204.511C61.5258 204.421 61.8498 204.376 62.1738 204.376C62.6298 204.376 63.0138 204.445 63.3258 204.583C63.6378 204.721 63.8748 204.922 64.0368 205.186C64.1988 205.45 64.2798 205.771 64.2798 206.149C64.2798 206.401 64.2378 206.647 64.1538 206.887C64.0758 207.127 63.9528 207.37 63.7848 207.616C63.6228 207.862 63.4098 208.123 63.1458 208.399L61.4538 210.163V209.857H64.0998C64.2618 209.857 64.3848 209.896 64.4688 209.974C64.5528 210.052 64.5948 210.169 64.5948 210.325C64.5948 210.481 64.5528 210.601 64.4688 210.685C64.3848 210.769 64.2618 210.811 64.0998 210.811H60.7878ZM66.5353 210.883C66.3973 210.883 66.2833 210.85 66.1933 210.784C66.1033 210.718 66.0493 210.631 66.0313 210.523C66.0133 210.409 66.0403 210.283 66.1123 210.145L68.8303 205.033V205.429H65.9143C65.7523 205.429 65.6263 205.387 65.5363 205.303C65.4523 205.219 65.4103 205.102 65.4103 204.952C65.4103 204.796 65.4523 204.676 65.5363 204.592C65.6263 204.508 65.7523 204.466 65.9143 204.466H69.3973C69.5593 204.466 69.6913 204.508 69.7933 204.592C69.8953 204.676 69.9463 204.796 69.9463 204.952C69.9463 205.084 69.9283 205.201 69.8923 205.303C69.8563 205.399 69.8083 205.504 69.7483 205.618L67.1923 210.505C67.1263 210.637 67.0393 210.733 66.9313 210.793C66.8293 210.853 66.6973 210.883 66.5353 210.883ZM71.5088 210.856C71.3048 210.856 71.1398 210.793 71.0138 210.667C70.8938 210.541 70.8338 210.379 70.8338 210.181C70.8338 209.989 70.8938 209.833 71.0138 209.713C71.1398 209.587 71.3048 209.524 71.5088 209.524C71.7188 209.524 71.8808 209.587 71.9948 209.713C72.1148 209.833 72.1748 209.989 72.1748 210.181C72.1748 210.379 72.1148 210.541 71.9948 210.667C71.8808 210.793 71.7188 210.856 71.5088 210.856ZM76.3332 210.883C76.1532 210.883 76.0122 210.835 75.9102 210.739C75.8082 210.637 75.7572 210.493 75.7572 210.307V209.605H73.5342C73.3482 209.605 73.1982 209.566 73.0842 209.488C72.9762 209.41 72.9222 209.287 72.9222 209.119C72.9222 209.023 72.9462 208.918 72.9942 208.804C73.0482 208.69 73.1412 208.54 73.2732 208.354L75.7392 204.781C75.8232 204.655 75.9162 204.559 76.0182 204.493C76.1202 204.427 76.2372 204.394 76.3692 204.394C76.5252 204.394 76.6542 204.442 76.7562 204.538C76.8582 204.628 76.9092 204.772 76.9092 204.97V208.651H77.3502C77.5242 208.651 77.6532 208.693 77.7372 208.777C77.8272 208.855 77.8722 208.972 77.8722 209.128C77.8722 209.284 77.8272 209.404 77.7372 209.488C77.6532 209.566 77.5242 209.605 77.3502 209.605H76.9092V210.307C76.9092 210.493 76.8582 210.637 76.7562 210.739C76.6542 210.835 76.5132 210.883 76.3332 210.883ZM75.7572 208.651V205.843H76.0182L73.8942 208.957V208.651H75.7572ZM80.7667 210.901C80.4487 210.901 80.1247 210.859 79.7947 210.775C79.4647 210.691 79.1617 210.562 78.8857 210.388C78.7717 210.316 78.6937 210.232 78.6517 210.136C78.6157 210.034 78.6067 209.935 78.6247 209.839C78.6487 209.737 78.6937 209.653 78.7597 209.587C78.8317 209.515 78.9157 209.473 79.0117 209.461C79.1137 209.449 79.2247 209.476 79.3447 209.542C79.5667 209.668 79.7917 209.764 80.0197 209.83C80.2477 209.896 80.4907 209.929 80.7487 209.929C81.0007 209.929 81.2167 209.884 81.3967 209.794C81.5767 209.704 81.7147 209.578 81.8107 209.416C81.9067 209.254 81.9547 209.065 81.9547 208.849C81.9547 208.513 81.8527 208.243 81.6487 208.039C81.4447 207.829 81.1657 207.724 80.8117 207.724C80.6197 207.724 80.4337 207.757 80.2537 207.823C80.0737 207.883 79.8967 207.991 79.7227 208.147C79.6687 208.195 79.5997 208.243 79.5157 208.291C79.4317 208.333 79.3417 208.354 79.2457 208.354C79.0957 208.354 78.9817 208.315 78.9037 208.237C78.8257 208.159 78.7867 208.051 78.7867 207.913V204.97C78.7867 204.808 78.8287 204.685 78.9127 204.601C79.0027 204.511 79.1287 204.466 79.2907 204.466H82.2517C82.4137 204.466 82.5367 204.508 82.6207 204.592C82.7107 204.67 82.7557 204.787 82.7557 204.943C82.7557 205.093 82.7107 205.21 82.6207 205.294C82.5367 205.378 82.4137 205.42 82.2517 205.42H79.9117V207.436H79.6147C79.7707 207.226 79.9777 207.064 80.2357 206.95C80.4937 206.836 80.7757 206.779 81.0817 206.779C81.4837 206.779 81.8317 206.866 82.1257 207.04C82.4257 207.208 82.6567 207.445 82.8187 207.751C82.9867 208.051 83.0707 208.402 83.0707 208.804C83.0707 209.218 82.9777 209.584 82.7917 209.902C82.6057 210.214 82.3387 210.46 81.9907 210.64C81.6487 210.814 81.2407 210.901 80.7667 210.901Z" fill="#444955"/>
<path d="M52.5 219.811C52.5 217.601 54.2909 215.811 56.5 215.811H80.5C82.7091 215.811 84.5 217.601 84.5 219.811V249.811H52.5V219.811Z" fill="#0FA376"/>
<path d="M110.914 268.751C110.527 268.751 110.141 268.698 109.754 268.591C109.367 268.485 109.031 268.325 108.744 268.111C108.651 268.045 108.587 267.968 108.554 267.881C108.521 267.795 108.511 267.715 108.524 267.641C108.544 267.561 108.584 267.495 108.644 267.441C108.704 267.388 108.777 267.358 108.864 267.351C108.951 267.338 109.044 267.361 109.144 267.421C109.431 267.608 109.714 267.745 109.994 267.831C110.281 267.911 110.577 267.951 110.884 267.951C111.211 267.951 111.487 267.905 111.714 267.811C111.941 267.711 112.111 267.568 112.224 267.381C112.344 267.188 112.404 266.958 112.404 266.691C112.404 266.291 112.274 265.991 112.014 265.791C111.754 265.585 111.374 265.481 110.874 265.481H110.174C110.034 265.481 109.927 265.448 109.854 265.381C109.781 265.308 109.744 265.211 109.744 265.091C109.744 264.965 109.781 264.868 109.854 264.801C109.927 264.735 110.034 264.701 110.174 264.701H110.794C111.087 264.701 111.337 264.651 111.544 264.551C111.751 264.445 111.911 264.298 112.024 264.111C112.144 263.925 112.204 263.698 112.204 263.431C112.204 263.071 112.087 262.798 111.854 262.611C111.621 262.418 111.284 262.321 110.844 262.321C110.557 262.321 110.287 262.365 110.034 262.451C109.781 262.531 109.524 262.668 109.264 262.861C109.177 262.921 109.091 262.951 109.004 262.951C108.917 262.945 108.844 262.915 108.784 262.861C108.731 262.808 108.694 262.745 108.674 262.671C108.654 262.591 108.657 262.508 108.684 262.421C108.711 262.335 108.771 262.258 108.864 262.191C109.137 261.978 109.451 261.815 109.804 261.701C110.164 261.581 110.534 261.521 110.914 261.521C111.374 261.521 111.767 261.595 112.094 261.741C112.427 261.888 112.681 262.098 112.854 262.371C113.027 262.638 113.114 262.961 113.114 263.341C113.114 263.628 113.061 263.891 112.954 264.131C112.847 264.365 112.694 264.565 112.494 264.731C112.301 264.891 112.064 265.005 111.784 265.071V264.961C112.271 265.048 112.647 265.251 112.914 265.571C113.187 265.885 113.324 266.278 113.324 266.751C113.324 267.158 113.224 267.515 113.024 267.821C112.831 268.121 112.554 268.351 112.194 268.511C111.834 268.671 111.407 268.751 110.914 268.751ZM117 268.751C116.187 268.751 115.567 268.441 115.14 267.821C114.72 267.195 114.51 266.298 114.51 265.131C114.51 264.338 114.603 263.675 114.79 263.141C114.983 262.608 115.263 262.205 115.63 261.931C116.003 261.658 116.46 261.521 117 261.521C117.82 261.521 118.44 261.828 118.86 262.441C119.28 263.048 119.49 263.941 119.49 265.121C119.49 265.901 119.393 266.561 119.2 267.101C119.013 267.641 118.737 268.051 118.37 268.331C118.003 268.611 117.547 268.751 117 268.751ZM117 267.961C117.533 267.961 117.93 267.731 118.19 267.271C118.45 266.811 118.58 266.095 118.58 265.121C118.58 264.148 118.45 263.438 118.19 262.991C117.937 262.538 117.54 262.311 117 262.311C116.467 262.311 116.07 262.538 115.81 262.991C115.55 263.438 115.42 264.148 115.42 265.121C115.42 266.095 115.55 266.811 115.81 267.271C116.07 267.731 116.467 267.961 117 267.961Z" fill="#444955"/>
<path d="M111.592 245.918C111.46 245.918 111.352 245.873 111.268 245.783C111.184 245.699 111.142 245.594 111.142 245.468V244.667L111.349 244.865C110.935 244.853 110.566 244.799 110.242 244.703C109.924 244.607 109.654 244.496 109.432 244.37C109.324 244.304 109.249 244.223 109.207 244.127C109.165 244.025 109.15 243.923 109.162 243.821C109.174 243.719 109.21 243.632 109.27 243.56C109.336 243.482 109.417 243.434 109.513 243.416C109.609 243.392 109.72 243.416 109.846 243.488C110.014 243.584 110.233 243.677 110.503 243.767C110.779 243.851 111.109 243.893 111.493 243.893C111.793 243.893 112.036 243.857 112.222 243.785C112.408 243.713 112.543 243.614 112.627 243.488C112.717 243.362 112.762 243.218 112.762 243.056C112.762 242.924 112.732 242.81 112.672 242.714C112.612 242.612 112.513 242.525 112.375 242.453C112.237 242.375 112.051 242.312 111.817 242.264L110.863 242.057C110.317 241.937 109.909 241.736 109.639 241.454C109.369 241.172 109.234 240.803 109.234 240.347C109.234 239.993 109.321 239.678 109.495 239.402C109.669 239.12 109.912 238.895 110.224 238.727C110.536 238.559 110.902 238.46 111.322 238.43L111.142 238.565V237.809C111.142 237.683 111.184 237.578 111.268 237.494C111.352 237.404 111.46 237.359 111.592 237.359C111.718 237.359 111.823 237.404 111.907 237.494C111.997 237.578 112.042 237.683 112.042 237.809V238.565L111.853 238.421C112.111 238.427 112.393 238.478 112.699 238.574C113.011 238.67 113.278 238.805 113.5 238.979C113.59 239.051 113.65 239.135 113.68 239.231C113.71 239.321 113.713 239.411 113.689 239.501C113.665 239.585 113.62 239.657 113.554 239.717C113.488 239.777 113.404 239.813 113.302 239.825C113.206 239.831 113.095 239.798 112.969 239.726C112.795 239.624 112.6 239.543 112.384 239.483C112.168 239.417 111.91 239.384 111.61 239.384C111.226 239.384 110.923 239.471 110.701 239.645C110.485 239.813 110.377 240.035 110.377 240.311C110.377 240.515 110.443 240.68 110.575 240.806C110.707 240.926 110.932 241.022 111.25 241.094L112.231 241.31C112.807 241.436 113.23 241.637 113.5 241.913C113.77 242.183 113.905 242.54 113.905 242.984C113.905 243.332 113.818 243.641 113.644 243.911C113.47 244.175 113.23 244.388 112.924 244.55C112.624 244.706 112.273 244.805 111.871 244.847L112.042 244.658V245.468C112.042 245.594 112 245.699 111.916 245.783C111.832 245.873 111.724 245.918 111.592 245.918Z" fill="#444955"/>
<path d="M117.502 244.901C116.752 244.901 116.179 244.619 115.783 244.055C115.387 243.485 115.189 242.675 115.189 241.625C115.189 240.917 115.276 240.323 115.45 239.843C115.63 239.357 115.891 238.991 116.233 238.745C116.581 238.499 117.004 238.376 117.502 238.376C118.258 238.376 118.831 238.652 119.221 239.204C119.617 239.756 119.815 240.56 119.815 241.616C119.815 242.318 119.725 242.915 119.545 243.407C119.371 243.893 119.113 244.265 118.771 244.523C118.429 244.775 118.006 244.901 117.502 244.901ZM117.502 243.956C117.91 243.956 118.21 243.767 118.402 243.389C118.6 243.011 118.699 242.42 118.699 241.616C118.699 240.812 118.6 240.23 118.402 239.87C118.21 239.504 117.91 239.321 117.502 239.321C117.1 239.321 116.8 239.504 116.602 239.87C116.404 240.23 116.305 240.812 116.305 241.616C116.305 242.42 116.404 243.011 116.602 243.389C116.8 243.767 117.1 243.956 117.502 243.956Z" fill="#444955"/>
<path d="M156.914 268.751C156.527 268.751 156.141 268.698 155.754 268.591C155.367 268.485 155.031 268.325 154.744 268.111C154.651 268.045 154.587 267.968 154.554 267.881C154.521 267.795 154.511 267.715 154.524 267.641C154.544 267.561 154.584 267.495 154.644 267.441C154.704 267.388 154.777 267.358 154.864 267.351C154.951 267.338 155.044 267.361 155.144 267.421C155.431 267.608 155.714 267.745 155.994 267.831C156.281 267.911 156.577 267.951 156.884 267.951C157.211 267.951 157.487 267.905 157.714 267.811C157.941 267.711 158.111 267.568 158.224 267.381C158.344 267.188 158.404 266.958 158.404 266.691C158.404 266.291 158.274 265.991 158.014 265.791C157.754 265.585 157.374 265.481 156.874 265.481H156.174C156.034 265.481 155.927 265.448 155.854 265.381C155.781 265.308 155.744 265.211 155.744 265.091C155.744 264.965 155.781 264.868 155.854 264.801C155.927 264.735 156.034 264.701 156.174 264.701H156.794C157.087 264.701 157.337 264.651 157.544 264.551C157.751 264.445 157.911 264.298 158.024 264.111C158.144 263.925 158.204 263.698 158.204 263.431C158.204 263.071 158.087 262.798 157.854 262.611C157.621 262.418 157.284 262.321 156.844 262.321C156.557 262.321 156.287 262.365 156.034 262.451C155.781 262.531 155.524 262.668 155.264 262.861C155.177 262.921 155.091 262.951 155.004 262.951C154.917 262.945 154.844 262.915 154.784 262.861C154.731 262.808 154.694 262.745 154.674 262.671C154.654 262.591 154.657 262.508 154.684 262.421C154.711 262.335 154.771 262.258 154.864 262.191C155.137 261.978 155.451 261.815 155.804 261.701C156.164 261.581 156.534 261.521 156.914 261.521C157.374 261.521 157.767 261.595 158.094 261.741C158.427 261.888 158.681 262.098 158.854 262.371C159.027 262.638 159.114 262.961 159.114 263.341C159.114 263.628 159.061 263.891 158.954 264.131C158.847 264.365 158.694 264.565 158.494 264.731C158.301 264.891 158.064 265.005 157.784 265.071V264.961C158.271 265.048 158.647 265.251 158.914 265.571C159.187 265.885 159.324 266.278 159.324 266.751C159.324 267.158 159.224 267.515 159.024 267.821C158.831 268.121 158.554 268.351 158.194 268.511C157.834 268.671 157.407 268.751 156.914 268.751ZM161.55 268.661C161.423 268.661 161.323 268.625 161.25 268.551C161.177 268.478 161.14 268.381 161.14 268.261C161.14 268.135 161.177 268.038 161.25 267.971C161.323 267.905 161.423 267.871 161.55 267.871H162.81V262.381H163.29L161.83 263.321C161.737 263.381 161.647 263.408 161.56 263.401C161.48 263.388 161.41 263.355 161.35 263.301C161.29 263.241 161.25 263.171 161.23 263.091C161.21 263.011 161.213 262.931 161.24 262.851C161.273 262.765 161.34 262.695 161.44 262.641L162.82 261.741C162.92 261.681 163.013 261.635 163.1 261.601C163.193 261.561 163.283 261.541 163.37 261.541C163.47 261.541 163.557 261.571 163.63 261.631C163.703 261.691 163.74 261.788 163.74 261.921V267.871H164.9C165.033 267.871 165.133 267.905 165.2 267.971C165.273 268.038 165.31 268.135 165.31 268.261C165.31 268.388 165.273 268.488 165.2 268.561C165.133 268.628 165.033 268.661 164.9 268.661H161.55Z" fill="#444955"/>
<path d="M157.592 245.918C157.46 245.918 157.352 245.873 157.268 245.783C157.184 245.699 157.142 245.594 157.142 245.468V244.667L157.349 244.865C156.935 244.853 156.566 244.799 156.242 244.703C155.924 244.607 155.654 244.496 155.432 244.37C155.324 244.304 155.249 244.223 155.207 244.127C155.165 244.025 155.15 243.923 155.162 243.821C155.174 243.719 155.21 243.632 155.27 243.56C155.336 243.482 155.417 243.434 155.513 243.416C155.609 243.392 155.72 243.416 155.846 243.488C156.014 243.584 156.233 243.677 156.503 243.767C156.779 243.851 157.109 243.893 157.493 243.893C157.793 243.893 158.036 243.857 158.222 243.785C158.408 243.713 158.543 243.614 158.627 243.488C158.717 243.362 158.762 243.218 158.762 243.056C158.762 242.924 158.732 242.81 158.672 242.714C158.612 242.612 158.513 242.525 158.375 242.453C158.237 242.375 158.051 242.312 157.817 242.264L156.863 242.057C156.317 241.937 155.909 241.736 155.639 241.454C155.369 241.172 155.234 240.803 155.234 240.347C155.234 239.993 155.321 239.678 155.495 239.402C155.669 239.12 155.912 238.895 156.224 238.727C156.536 238.559 156.902 238.46 157.322 238.43L157.142 238.565V237.809C157.142 237.683 157.184 237.578 157.268 237.494C157.352 237.404 157.46 237.359 157.592 237.359C157.718 237.359 157.823 237.404 157.907 237.494C157.997 237.578 158.042 237.683 158.042 237.809V238.565L157.853 238.421C158.111 238.427 158.393 238.478 158.699 238.574C159.011 238.67 159.278 238.805 159.5 238.979C159.59 239.051 159.65 239.135 159.68 239.231C159.71 239.321 159.713 239.411 159.689 239.501C159.665 239.585 159.62 239.657 159.554 239.717C159.488 239.777 159.404 239.813 159.302 239.825C159.206 239.831 159.095 239.798 158.969 239.726C158.795 239.624 158.6 239.543 158.384 239.483C158.168 239.417 157.91 239.384 157.61 239.384C157.226 239.384 156.923 239.471 156.701 239.645C156.485 239.813 156.377 240.035 156.377 240.311C156.377 240.515 156.443 240.68 156.575 240.806C156.707 240.926 156.932 241.022 157.25 241.094L158.231 241.31C158.807 241.436 159.23 241.637 159.5 241.913C159.77 242.183 159.905 242.54 159.905 242.984C159.905 243.332 159.818 243.641 159.644 243.911C159.47 244.175 159.23 244.388 158.924 244.55C158.624 244.706 158.273 244.805 157.871 244.847L158.042 244.658V245.468C158.042 245.594 158 245.699 157.916 245.783C157.832 245.873 157.724 245.918 157.592 245.918Z" fill="#444955"/>
<path d="M163.502 244.901C162.752 244.901 162.179 244.619 161.783 244.055C161.387 243.485 161.189 242.675 161.189 241.625C161.189 240.917 161.276 240.323 161.45 239.843C161.63 239.357 161.891 238.991 162.233 238.745C162.581 238.499 163.004 238.376 163.502 238.376C164.258 238.376 164.831 238.652 165.221 239.204C165.617 239.756 165.815 240.56 165.815 241.616C165.815 242.318 165.725 242.915 165.545 243.407C165.371 243.893 165.113 244.265 164.771 244.523C164.429 244.775 164.006 244.901 163.502 244.901ZM163.502 243.956C163.91 243.956 164.21 243.767 164.402 243.389C164.6 243.011 164.699 242.42 164.699 241.616C164.699 240.812 164.6 240.23 164.402 239.87C164.21 239.504 163.91 239.321 163.502 239.321C163.1 239.321 162.8 239.504 162.602 239.87C162.404 240.23 162.305 240.812 162.305 241.616C162.305 242.42 162.404 243.011 162.602 243.389C162.8 243.767 163.1 243.956 163.502 243.956Z" fill="#444955"/>
<path d="M149 285C149 282.791 150.791 281 153 281H161C163.209 281 165 282.791 165 285V293C165 295.21 163.209 297 161 297H153C150.791 297 149 295.21 149 293V285Z" fill="#0FA376"/>
<path d="M169.927 293.084C169.783 293.084 169.667 293.052 169.579 292.988C169.499 292.924 169.451 292.836 169.435 292.724C169.419 292.612 169.443 292.488 169.507 292.352L172.783 284.936C172.855 284.768 172.947 284.648 173.059 284.576C173.171 284.496 173.295 284.456 173.431 284.456C173.567 284.456 173.687 284.496 173.791 284.576C173.903 284.648 173.999 284.768 174.079 284.936L177.355 292.352C177.419 292.488 177.443 292.616 177.427 292.736C177.419 292.848 177.375 292.936 177.295 293C177.215 293.056 177.103 293.084 176.959 293.084C176.799 293.084 176.671 293.044 176.575 292.964C176.479 292.876 176.395 292.752 176.323 292.592L175.471 290.6L175.987 290.888H170.851L171.367 290.6L170.515 292.592C170.443 292.768 170.363 292.896 170.275 292.976C170.187 293.048 170.071 293.084 169.927 293.084ZM173.407 285.8L171.535 290.228L171.247 289.976H175.591L175.315 290.228L173.431 285.8H173.407ZM179.268 293.084C179.1 293.084 178.968 293.036 178.872 292.94C178.776 292.844 178.728 292.704 178.728 292.52V287.624C178.728 287.44 178.776 287.304 178.872 287.216C178.968 287.12 179.1 287.072 179.268 287.072C179.436 287.072 179.564 287.12 179.652 287.216C179.748 287.304 179.796 287.44 179.796 287.624V288.644L179.664 288.428C179.816 287.988 180.06 287.648 180.396 287.408C180.74 287.168 181.148 287.048 181.62 287.048C182.116 287.048 182.516 287.168 182.82 287.408C183.124 287.64 183.328 287.996 183.432 288.476H183.264C183.408 288.036 183.664 287.688 184.032 287.432C184.408 287.176 184.844 287.048 185.34 287.048C185.78 287.048 186.14 287.136 186.42 287.312C186.708 287.48 186.924 287.736 187.068 288.08C187.212 288.416 187.284 288.848 187.284 289.376V292.52C187.284 292.704 187.236 292.844 187.14 292.94C187.044 293.036 186.912 293.084 186.744 293.084C186.568 293.084 186.432 293.036 186.336 292.94C186.24 292.844 186.192 292.704 186.192 292.52V289.424C186.192 288.912 186.104 288.536 185.928 288.296C185.752 288.056 185.456 287.936 185.04 287.936C184.584 287.936 184.22 288.096 183.948 288.416C183.684 288.728 183.552 289.16 183.552 289.712V292.52C183.552 292.704 183.504 292.844 183.408 292.94C183.32 293.036 183.188 293.084 183.012 293.084C182.836 293.084 182.7 293.036 182.604 292.94C182.508 292.844 182.46 292.704 182.46 292.52V289.424C182.46 288.912 182.372 288.536 182.196 288.296C182.02 288.056 181.724 287.936 181.308 287.936C180.852 287.936 180.488 288.096 180.216 288.416C179.952 288.728 179.82 289.16 179.82 289.712V292.52C179.82 292.896 179.636 293.084 179.268 293.084ZM191.524 293.108C190.948 293.108 190.448 292.984 190.024 292.736C189.6 292.488 189.272 292.136 189.04 291.68C188.808 291.224 188.692 290.688 188.692 290.072C188.692 289.608 188.756 289.192 188.884 288.824C189.02 288.448 189.212 288.128 189.46 287.864C189.708 287.6 190.004 287.4 190.348 287.264C190.7 287.12 191.092 287.048 191.524 287.048C192.1 287.048 192.6 287.172 193.024 287.42C193.448 287.668 193.776 288.02 194.008 288.476C194.24 288.924 194.356 289.456 194.356 290.072C194.356 290.536 194.288 290.956 194.152 291.332C194.024 291.708 193.836 292.028 193.588 292.292C193.34 292.556 193.04 292.76 192.688 292.904C192.344 293.04 191.956 293.108 191.524 293.108ZM191.524 292.244C191.876 292.244 192.18 292.16 192.436 291.992C192.7 291.824 192.9 291.58 193.036 291.26C193.18 290.94 193.252 290.544 193.252 290.072C193.252 289.368 193.096 288.832 192.784 288.464C192.472 288.096 192.052 287.912 191.524 287.912C191.18 287.912 190.876 287.996 190.612 288.164C190.356 288.324 190.156 288.564 190.012 288.884C189.868 289.204 189.796 289.6 189.796 290.072C189.796 290.776 189.952 291.316 190.264 291.692C190.584 292.06 191.004 292.244 191.524 292.244ZM197.843 293.108C197.371 293.108 196.975 293.02 196.655 292.844C196.343 292.668 196.111 292.408 195.959 292.064C195.807 291.72 195.731 291.288 195.731 290.768V287.624C195.731 287.44 195.775 287.304 195.863 287.216C195.959 287.12 196.095 287.072 196.271 287.072C196.447 287.072 196.583 287.12 196.679 287.216C196.775 287.304 196.823 287.44 196.823 287.624V290.768C196.823 291.264 196.923 291.632 197.123 291.872C197.323 292.104 197.639 292.22 198.071 292.22C198.551 292.22 198.939 292.06 199.235 291.74C199.539 291.42 199.691 290.996 199.691 290.468V287.624C199.691 287.44 199.735 287.304 199.823 287.216C199.919 287.12 200.055 287.072 200.231 287.072C200.407 287.072 200.543 287.12 200.639 287.216C200.735 287.304 200.783 287.44 200.783 287.624V292.52C200.783 292.896 200.607 293.084 200.255 293.084C200.079 293.084 199.943 293.036 199.847 292.94C199.759 292.844 199.715 292.704 199.715 292.52V291.476L199.871 291.68C199.711 292.144 199.451 292.5 199.091 292.748C198.739 292.988 198.323 293.108 197.843 293.108ZM203.08 293.084C202.912 293.084 202.78 293.036 202.684 292.94C202.588 292.844 202.54 292.704 202.54 292.52V287.624C202.54 287.44 202.588 287.304 202.684 287.216C202.78 287.12 202.912 287.072 203.08 287.072C203.248 287.072 203.376 287.12 203.464 287.216C203.56 287.304 203.608 287.44 203.608 287.624V288.608L203.476 288.428C203.644 287.972 203.916 287.628 204.292 287.396C204.676 287.164 205.112 287.048 205.6 287.048C206.072 287.048 206.46 287.132 206.764 287.3C207.068 287.468 207.296 287.724 207.448 288.068C207.6 288.412 207.676 288.848 207.676 289.376V292.52C207.676 292.704 207.628 292.844 207.532 292.94C207.444 293.036 207.312 293.084 207.136 293.084C206.96 293.084 206.824 293.036 206.728 292.94C206.632 292.844 206.584 292.704 206.584 292.52V289.436C206.584 288.916 206.484 288.536 206.284 288.296C206.084 288.056 205.764 287.936 205.324 287.936C204.812 287.936 204.4 288.096 204.088 288.416C203.784 288.728 203.632 289.152 203.632 289.688V292.52C203.632 292.896 203.448 293.084 203.08 293.084ZM211.831 293.108C211.359 293.108 210.963 293.024 210.643 292.856C210.331 292.688 210.095 292.444 209.935 292.124C209.783 291.804 209.707 291.412 209.707 290.948V287.996H208.939C208.795 287.996 208.683 287.96 208.603 287.888C208.523 287.808 208.483 287.704 208.483 287.576C208.483 287.44 208.523 287.336 208.603 287.264C208.683 287.192 208.795 287.156 208.939 287.156H209.707V285.848C209.707 285.664 209.755 285.528 209.851 285.44C209.947 285.344 210.083 285.296 210.259 285.296C210.435 285.296 210.567 285.344 210.655 285.44C210.751 285.528 210.799 285.664 210.799 285.848V287.156H212.251C212.403 287.156 212.519 287.192 212.599 287.264C212.679 287.336 212.719 287.44 212.719 287.576C212.719 287.704 212.679 287.808 212.599 287.888C212.519 287.96 212.403 287.996 212.251 287.996H210.799V290.852C210.799 291.292 210.891 291.624 211.075 291.848C211.259 292.072 211.563 292.184 211.987 292.184C212.139 292.184 212.267 292.172 212.371 292.148C212.475 292.116 212.567 292.1 212.647 292.1C212.719 292.092 212.779 292.116 212.827 292.172C212.883 292.228 212.911 292.332 212.911 292.484C212.911 292.596 212.891 292.7 212.851 292.796C212.819 292.884 212.751 292.944 212.647 292.976C212.551 293.008 212.423 293.036 212.263 293.06C212.103 293.092 211.959 293.108 211.831 293.108ZM219.753 293.108C219.377 293.108 219.013 293.076 218.661 293.012C218.309 292.956 217.977 292.868 217.665 292.748C217.353 292.628 217.073 292.48 216.825 292.304C216.721 292.232 216.645 292.144 216.597 292.04C216.557 291.936 216.545 291.836 216.561 291.74C216.585 291.636 216.629 291.548 216.693 291.476C216.765 291.404 216.849 291.36 216.945 291.344C217.041 291.328 217.145 291.36 217.257 291.44C217.625 291.688 218.009 291.868 218.409 291.98C218.817 292.092 219.265 292.148 219.753 292.148C220.457 292.148 220.973 292.02 221.301 291.764C221.637 291.508 221.805 291.172 221.805 290.756C221.805 290.412 221.685 290.144 221.445 289.952C221.205 289.752 220.801 289.596 220.233 289.484L218.961 289.22C218.209 289.06 217.645 288.796 217.269 288.428C216.901 288.06 216.717 287.568 216.717 286.952C216.717 286.576 216.793 286.236 216.945 285.932C217.097 285.62 217.313 285.352 217.593 285.128C217.873 284.904 218.201 284.732 218.577 284.612C218.961 284.492 219.385 284.432 219.849 284.432C220.345 284.432 220.809 284.5 221.241 284.636C221.681 284.772 222.077 284.972 222.429 285.236C222.525 285.308 222.589 285.396 222.621 285.5C222.653 285.596 222.657 285.692 222.633 285.788C222.617 285.884 222.573 285.964 222.501 286.028C222.437 286.092 222.353 286.128 222.249 286.136C222.153 286.144 222.045 286.108 221.925 286.028C221.605 285.804 221.277 285.644 220.941 285.548C220.605 285.444 220.237 285.392 219.837 285.392C219.429 285.392 219.073 285.456 218.769 285.584C218.473 285.712 218.241 285.892 218.073 286.124C217.913 286.348 217.833 286.612 217.833 286.916C217.833 287.284 217.945 287.572 218.169 287.78C218.393 287.988 218.769 288.148 219.297 288.26L220.557 288.512C221.357 288.68 221.949 288.94 222.333 289.292C222.725 289.636 222.921 290.1 222.921 290.684C222.921 291.052 222.845 291.384 222.693 291.68C222.549 291.976 222.341 292.232 222.069 292.448C221.797 292.656 221.465 292.82 221.073 292.94C220.681 293.052 220.241 293.108 219.753 293.108ZM224.795 295.244C224.627 295.244 224.495 295.196 224.399 295.1C224.303 295.004 224.255 294.868 224.255 294.692V287.624C224.255 287.44 224.303 287.304 224.399 287.216C224.495 287.12 224.627 287.072 224.795 287.072C224.971 287.072 225.103 287.12 225.191 287.216C225.287 287.304 225.335 287.44 225.335 287.624V288.716L225.203 288.5C225.331 288.06 225.583 287.708 225.959 287.444C226.335 287.18 226.787 287.048 227.315 287.048C227.835 287.048 228.287 287.172 228.671 287.42C229.055 287.66 229.355 288.008 229.571 288.464C229.787 288.912 229.895 289.448 229.895 290.072C229.895 290.688 229.787 291.228 229.571 291.692C229.363 292.148 229.063 292.5 228.671 292.748C228.287 292.988 227.835 293.108 227.315 293.108C226.795 293.108 226.347 292.976 225.971 292.712C225.595 292.448 225.343 292.1 225.215 291.668H225.347V294.692C225.347 294.868 225.299 295.004 225.203 295.1C225.107 295.196 224.971 295.244 224.795 295.244ZM227.063 292.244C227.407 292.244 227.707 292.16 227.963 291.992C228.227 291.824 228.431 291.58 228.575 291.26C228.719 290.94 228.791 290.544 228.791 290.072C228.791 289.368 228.635 288.832 228.323 288.464C228.011 288.096 227.591 287.912 227.063 287.912C226.711 287.912 226.403 287.996 226.139 288.164C225.883 288.324 225.683 288.564 225.539 288.884C225.403 289.204 225.335 289.6 225.335 290.072C225.335 290.776 225.491 291.316 225.803 291.692C226.115 292.06 226.535 292.244 227.063 292.244ZM233.998 293.108C233.366 293.108 232.822 292.988 232.366 292.748C231.918 292.5 231.57 292.152 231.322 291.704C231.074 291.248 230.95 290.712 230.95 290.096C230.95 289.488 231.07 288.956 231.31 288.5C231.558 288.044 231.894 287.688 232.318 287.432C232.75 287.176 233.242 287.048 233.794 287.048C234.186 287.048 234.538 287.116 234.85 287.252C235.17 287.38 235.442 287.568 235.666 287.816C235.89 288.064 236.058 288.368 236.17 288.728C236.29 289.08 236.35 289.48 236.35 289.928C236.35 290.056 236.31 290.156 236.23 290.228C236.158 290.292 236.05 290.324 235.906 290.324H231.802V289.628H235.63L235.426 289.796C235.426 289.38 235.362 289.028 235.234 288.74C235.114 288.444 234.934 288.22 234.694 288.068C234.462 287.916 234.17 287.84 233.818 287.84C233.434 287.84 233.106 287.932 232.834 288.116C232.562 288.292 232.354 288.544 232.21 288.872C232.066 289.192 231.994 289.564 231.994 289.988V290.06C231.994 290.78 232.166 291.324 232.51 291.692C232.854 292.06 233.35 292.244 233.998 292.244C234.254 292.244 234.514 292.212 234.778 292.148C235.05 292.084 235.31 291.968 235.558 291.8C235.678 291.728 235.786 291.696 235.882 291.704C235.986 291.704 236.07 291.736 236.134 291.8C236.198 291.856 236.238 291.928 236.254 292.016C236.27 292.096 236.258 292.184 236.218 292.28C236.178 292.376 236.102 292.46 235.99 292.532C235.726 292.716 235.41 292.86 235.042 292.964C234.682 293.06 234.334 293.108 233.998 293.108ZM238.248 293.084C238.08 293.084 237.948 293.036 237.852 292.94C237.756 292.844 237.708 292.704 237.708 292.52V287.624C237.708 287.44 237.756 287.304 237.852 287.216C237.948 287.12 238.08 287.072 238.248 287.072C238.416 287.072 238.544 287.12 238.632 287.216C238.728 287.304 238.776 287.44 238.776 287.624V288.608L238.644 288.428C238.812 287.972 239.084 287.628 239.46 287.396C239.844 287.164 240.28 287.048 240.768 287.048C241.24 287.048 241.628 287.132 241.932 287.3C242.236 287.468 242.464 287.724 242.616 288.068C242.768 288.412 242.844 288.848 242.844 289.376V292.52C242.844 292.704 242.796 292.844 242.7 292.94C242.612 293.036 242.48 293.084 242.304 293.084C242.128 293.084 241.992 293.036 241.896 292.94C241.8 292.844 241.752 292.704 241.752 292.52V289.436C241.752 288.916 241.652 288.536 241.452 288.296C241.252 288.056 240.932 287.936 240.492 287.936C239.98 287.936 239.568 288.096 239.256 288.416C238.952 288.728 238.8 289.152 238.8 289.688V292.52C238.8 292.896 238.616 293.084 238.248 293.084ZM246.999 293.108C246.527 293.108 246.131 293.024 245.811 292.856C245.499 292.688 245.263 292.444 245.103 292.124C244.951 291.804 244.875 291.412 244.875 290.948V287.996H244.107C243.963 287.996 243.851 287.96 243.771 287.888C243.691 287.808 243.651 287.704 243.651 287.576C243.651 287.44 243.691 287.336 243.771 287.264C243.851 287.192 243.963 287.156 244.107 287.156H244.875V285.848C244.875 285.664 244.923 285.528 245.019 285.44C245.115 285.344 245.251 285.296 245.427 285.296C245.603 285.296 245.735 285.344 245.823 285.44C245.919 285.528 245.967 285.664 245.967 285.848V287.156H247.419C247.571 287.156 247.687 287.192 247.767 287.264C247.847 287.336 247.887 287.44 247.887 287.576C247.887 287.704 247.847 287.808 247.767 287.888C247.687 287.96 247.571 287.996 247.419 287.996H245.967V290.852C245.967 291.292 246.059 291.624 246.243 291.848C246.427 292.072 246.731 292.184 247.155 292.184C247.307 292.184 247.435 292.172 247.539 292.148C247.643 292.116 247.735 292.1 247.815 292.1C247.887 292.092 247.947 292.116 247.995 292.172C248.051 292.228 248.079 292.332 248.079 292.484C248.079 292.596 248.059 292.7 248.019 292.796C247.987 292.884 247.919 292.944 247.815 292.976C247.719 293.008 247.591 293.036 247.431 293.06C247.271 293.092 247.127 293.108 246.999 293.108Z" fill="#444955"/>
</g>
<defs>
<filter id="filter0_dd_5466_7389" x="0" y="0" width="378" height="316" filterUnits="userSpaceOnUse" color-interpolation-filters="sRGB">
<feFlood flood-opacity="0" result="BackgroundImageFix"/>
<feColorMatrix in="SourceAlpha" type="matrix" values="0 0 0 0 0 0 0 0 0 0 0 0 0 0 0 0 0 0 127 0" result="hardAlpha"/>
<feOffset dy="1"/>
<feGaussianBlur stdDeviation="2"/>
<feComposite in2="hardAlpha" operator="out"/>
<feColorMatrix type="matrix" values="0 0 0 0 0.0470588 0 0 0 0 0.0470588 0 0 0 0 0.0509804 0 0 0 0.05 0"/>
<feBlend mode="normal" in2="BackgroundImageFix" result="effect1_dropShadow_5466_7389"/>
<feColorMatrix in="SourceAlpha" type="matrix" values="0 0 0 0 0 0 0 0 0 0 0 0 0 0 0 0 0 0 127 0" result="hardAlpha"/>
<feOffset dy="1"/>
<feGaussianBlur stdDeviation="2"/>
<feComposite in2="hardAlpha" operator="out"/>
<feColorMatrix type="matrix" values="0 0 0 0 0.0470588 0 0 0 0 0.0470588 0 0 0 0 0.0509804 0 0 0 0.1 0"/>
<feBlend mode="normal" in2="effect1_dropShadow_5466_7389" result="effect2_dropShadow_5466_7389"/>
<feBlend mode="normal" in="SourceGraphic" in2="effect2_dropShadow_5466_7389" result="shape"/>
</filter>
<clipPath id="clip0_5466_7389">
<path d="M50 35H358V250H50V35Z" fill="white"/>
</clipPath>
</defs>
</svg>
