<svg width="48" height="48" viewBox="0 0 48 48" fill="none" xmlns="http://www.w3.org/2000/svg">
<path d="M0 24C0 10.7452 10.7452 0 24 0C37.2548 0 48 10.7452 48 24C48 37.2548 37.2548 48 24 48C10.7452 48 0 37.2548 0 24Z" fill="#FF0000"/>
<path d="M26.0938 15.5059H30.1357C31.6537 15.5059 33 16.8456 33 18.6406C33 19.1614 32.8277 19.6503 32.5312 20.0312L32.2832 20.3496L32.291 20.4316L31.9795 20.3799L31.9219 20.3662C31.8636 20.3475 31.8041 20.3139 31.749 20.2607C30.805 19.3499 29.3411 19.3502 28.3975 20.2617C28.2286 20.4246 27.993 20.4248 27.8242 20.2617C26.8805 19.3501 25.4166 19.3496 24.4727 20.2607C24.4255 20.306 24.377 20.336 24.3311 20.3545L24.0908 20.4502L23.876 20.2402C23.6749 20.0435 23.5106 19.7999 23.3965 19.5234C23.2826 19.2473 23.2223 18.9466 23.2217 18.6406C23.2217 16.847 24.5668 15.5059 26.0938 15.5059Z" stroke="#FFE5E5" stroke-width="2"/>
</svg>
