<svg width="48" height="48" viewBox="0 0 48 48" fill="none" xmlns="http://www.w3.org/2000/svg">
<path d="M0 24C0 10.7452 10.7452 0 24 0C37.2548 0 48 10.7452 48 24C48 37.2548 37.2548 48 24 48C10.7452 48 0 37.2548 0 24Z" fill="#F7F7F7"/>
<path d="M19.188 20.388C17.7541 21.8208 15.7885 22.1796 13.9969 20.388C12.2053 18.5964 11.2657 15.3336 12.6985 13.8996C14.1325 12.468 17.3953 13.4064 19.188 15.198C20.9808 16.9896 20.622 18.954 19.188 20.388ZM19.188 20.388L33.6 34.8012M20.646 12.4764C21.7359 12.1598 22.8651 11.9994 24 12C25.3824 12 26.7096 12.234 27.9456 12.6636M12.0589 22.8C12.0197 23.1952 12.0001 23.5952 12.0001 24C12.0001 26.4384 12.7273 28.7064 13.9765 30.6M18.9276 34.878C20.4684 35.598 22.1868 36 24 36C25.7681 36.001 27.5145 35.6113 29.1144 34.8588M34.0224 30.6C35.3158 28.6421 36.0036 26.3465 36 24C35.9984 23.3056 35.9412 22.6272 35.8284 21.9648" stroke="#444955" stroke-width="2" stroke-linecap="round"/>
</svg>
