<svg width="48" height="48" viewBox="0 0 48 48" fill="none" xmlns="http://www.w3.org/2000/svg">
<path d="M0 24C0 10.7452 10.7452 0 24 0C37.2548 0 48 10.7452 48 24C48 37.2548 37.2548 48 24 48C10.7452 48 0 37.2548 0 24Z" fill="#E6FAF7"/>
<path d="M24 36V23.9988M24 23.9988L13.3544 17.9982M24 23.9988L34.6456 17.9982M18.5 14.7218L29.5 20.9025M22.7778 35.676C23.1494 35.8866 23.5709 35.9975 24 35.9975C24.4291 35.9975 24.8506 35.8866 25.2222 35.676L33.7778 30.8755C34.149 30.665 34.4574 30.3624 34.6719 29.998C34.8864 29.6336 34.9996 29.2202 35 28.7993V19.1983C34.9996 18.7774 34.8864 18.364 34.6719 17.9995C34.4574 17.6351 34.149 17.3325 33.7778 17.1221L25.2222 12.3216C24.8506 12.1109 24.4291 12 24 12C23.5709 12 23.1494 12.1109 22.7778 12.3216L14.2222 17.1221C13.851 17.3325 13.5426 17.6351 13.3281 17.9995C13.1136 18.364 13.0004 18.7774 13 19.1983V28.7993C13.0004 29.2202 13.1136 29.6336 13.3281 29.998C13.5426 30.3624 13.851 30.665 14.2222 30.8755L22.7778 35.676Z" stroke="#0FA376" stroke-width="2" stroke-linecap="round" stroke-linejoin="round"/>
</svg>
