<svg width="48" height="48" viewBox="0 0 48 48" fill="none" xmlns="http://www.w3.org/2000/svg">
<path d="M0 24C0 10.7452 10.7452 0 24 0C37.2548 0 48 10.7452 48 24C48 37.2548 37.2548 48 24 48C10.7452 48 0 37.2548 0 24Z" fill="#FFF0E5"/>
<path d="M19.7486 26.6193L17.2549 24.134M27.8986 27.8376L24.9062 24.8406M27.485 20.5279C27.485 20.5279 29.7476 18.0914 31.7425 18.0914C34.3822 18.0914 36 20.5279 36 20.5279C36 20.5279 34.3822 22.9645 31.7425 22.9645C29.1029 22.9645 27.485 20.5279 27.485 20.5279ZM27.485 20.5279C27.485 20.5279 25.0522 18.9076 25.0522 16.264C25.0522 13.6203 27.485 12 27.485 12C27.485 12 29.9179 13.6203 29.9179 16.264C29.9179 18.2863 27.485 20.5279 27.485 20.5279ZM12 36C12 36 24.0061 31.736 27.485 28.2518C27.9938 27.743 28.3976 27.1389 28.6732 26.4739C28.9489 25.8088 29.0911 25.0959 29.0916 24.3759C29.0922 23.6558 28.9511 22.9427 28.6765 22.2773C28.4019 21.6118 27.9991 21.007 27.4911 20.4975C26.9831 19.9879 26.3799 19.5835 25.7159 19.3075C25.0519 19.0314 24.3401 18.889 23.6211 18.8884C22.9022 18.8879 22.1901 19.0291 21.5257 19.3042C20.8612 19.5792 20.2574 19.9826 19.7486 20.4914C16.2575 23.9878 12 36 12 36Z" stroke="#FF6B00" stroke-width="2" stroke-linecap="round" stroke-linejoin="round"/>
</svg>
