<svg width="48" height="48" viewBox="0 0 48 48" fill="none" xmlns="http://www.w3.org/2000/svg">
<path d="M0 24C0 10.7452 10.7452 0 24 0C37.2548 0 48 10.7452 48 24C48 37.2548 37.2548 48 24 48C10.7452 48 0 37.2548 0 24Z" fill="#EFEEFE"/>
<path d="M16 15.2727C16 15.2727 16 18 24.5 18C33 18 33 15.2727 33 15.2727M16 15.2727C16 15.2727 16 12 24.5 12C33 12 33 15.2727 33 15.2727M16 15.2727V32.7273C16 32.7273 18.125 36 24.5 36C30.875 36 33 32.7273 33 32.7273V15.2727M24.5 32.1818C22.3202 32.1818 19.7825 31.5457 18.9424 31.3175C18.7714 31.2711 18.6562 31.1158 18.6562 30.9386V22.7336C18.6562 22.4098 19.034 22.1982 19.3246 22.3409C20.2233 22.7823 22.0021 23.4545 24.5 23.4545C27.0849 23.4545 29.0304 22.7346 29.9765 22.2956C30.2611 22.1635 30.6141 22.3707 30.6141 22.6845V30.9319C30.6141 31.1122 30.4952 31.2695 30.3204 31.3136C29.4309 31.5384 26.6924 32.1818 24.5 32.1818ZM28.2188 27.8182C28.2188 31.1705 23.644 27.4426 21.4554 26.2573C21.3896 26.2217 21.3125 26.2708 21.3125 26.3456V28.7453C21.3125 28.8202 21.3898 28.8693 21.456 28.8343C23.6448 27.6779 28.2188 24.6172 28.2188 27.8182Z" stroke="#6155F5" stroke-width="2" stroke-linecap="round"/>
</svg>
