<svg width="48" height="48" viewBox="0 0 48 48" fill="none" xmlns="http://www.w3.org/2000/svg">
<path d="M0 24C0 10.7452 10.7452 0 24 0C37.2548 0 48 10.7452 48 24C48 37.2548 37.2548 48 24 48C10.7452 48 0 37.2548 0 24Z" fill="#3C82F6"/>
<path d="M17.2143 19.2L19.3393 33.9359C19.4218 34.5126 19.7136 35.0399 20.1604 35.4196C20.6073 35.7994 21.1786 36.0056 21.7679 35.9999H27.2807C27.87 36.0056 28.4413 35.7994 28.8881 35.4196C29.335 35.0399 29.6268 34.5126 29.7093 33.9359L31.7857 19.2M16 19.2H33M18.4286 27.5999C19.39 27.2019 20.4219 26.9969 21.4643 26.9969C22.5067 26.9969 23.5386 27.2019 24.5 27.5999C25.4614 27.998 26.4934 28.2029 27.5357 28.2029C28.5781 28.2029 29.61 27.998 30.5714 27.5999M24.5 19.2L25.7143 12H28.1429" stroke="#E6F3FF" stroke-width="2" stroke-linecap="round" stroke-linejoin="round"/>
</svg>
