<svg width="48" height="48" viewBox="0 0 48 48" fill="none" xmlns="http://www.w3.org/2000/svg">
<path d="M0 24C0 10.7452 10.7452 0 24 0C37.2548 0 48 10.7452 48 24C48 37.2548 37.2548 48 24 48C10.7452 48 0 37.2548 0 24Z" fill="#CB30E0"/>
<path d="M27 15.1304C27 15.1304 28.5 15.1304 28.5 13.5652C28.5 12 27 12 27 12H22C22 12 20.5 12 20.5 13.5652C20.5 15.1304 22 15.1304 22 15.1304M27 15.1304H22M27 15.1304V17.7391M22 15.1304V17.7391M22 17.7391V20.2143C22 20.3018 21.9771 20.3877 21.9335 20.4636L19.0665 25.4495C19.0229 25.5253 19 25.6113 19 25.6987V34.2339C19 34.3628 19.0479 34.4878 19.1467 34.5706C19.8 35.1183 21.5585 36 24.5 36C27.4819 36 29.3929 35.0939 29.9092 34.5482C29.9748 34.4789 30 34.3841 30 34.2887V25.6987C30 25.6113 29.9771 25.5253 29.9335 25.4495L27.0665 20.4636C27.0229 20.3877 27 20.3018 27 20.2143V17.7391M22 17.7391L24.3074 18.7022C24.4307 18.7537 24.5693 18.7537 24.6926 18.7022L27 17.7391M23 27.6522C22.8606 27.7976 22.6433 27.9181 22.4468 28.0065C22.2031 28.1161 22.049 28.3785 22.1113 28.6383L22.9081 31.9643C22.962 32.1892 23.1631 32.3478 23.3944 32.3478H25.6056C25.8369 32.3478 26.038 32.1892 26.0919 31.9643L26.8887 28.6383C26.951 28.3785 26.7969 28.1161 26.5532 28.0065C26.3567 27.9181 26.1394 27.7976 26 27.6522C25.8372 27.4823 25.7071 27.2014 25.6204 26.9738C25.5397 26.7619 25.3421 26.6087 25.1153 26.6087H23.8847C23.6579 26.6087 23.4603 26.7619 23.3796 26.9738C23.2929 27.2014 23.1628 27.4823 23 27.6522Z" stroke="#FAEAFC" stroke-width="2" stroke-linecap="round"/>
</svg>
