<svg width="48" height="48" viewBox="0 0 48 48" fill="none" xmlns="http://www.w3.org/2000/svg">
<path d="M0 24C0 10.7452 10.7452 0 24 0C37.2548 0 48 10.7452 48 24C48 37.2548 37.2548 48 24 48C10.7452 48 0 37.2548 0 24Z" fill="#B59100"/>
<path d="M12 36L28.8 19.2M28.8 19.2H31.2C32.473 19.2 33.6939 18.6943 34.5941 17.7941C35.4943 16.8939 36 15.673 36 14.4V12H33.6C32.327 12 31.1061 12.5057 30.2059 13.4059C29.3057 14.3061 28.8 15.527 28.8 16.8V19.2ZM17.436 30.564C18.2201 29.7768 18.6603 28.711 18.6603 27.6C18.6603 26.489 18.2201 25.4232 17.436 24.636L15.6 22.8L13.764 24.636C12.9799 25.4232 12.5397 26.489 12.5397 27.6C12.5397 28.711 12.9799 29.7768 13.764 30.564L15.6 32.4M17.436 30.564L15.6 32.4M17.436 30.564C18.2232 29.7799 19.289 29.3397 20.4 29.3397C21.511 29.3397 22.5768 29.7799 23.364 30.564L25.2 32.4L23.364 34.236C22.5768 35.0201 21.511 35.4603 20.4 35.4603C19.289 35.4603 18.2232 35.0201 17.436 34.236L15.6 32.4M22.236 25.764C23.0201 24.9768 23.4603 23.911 23.4603 22.8C23.4603 21.689 23.0201 20.6232 22.236 19.836L20.4 18L18.564 19.836C17.7799 20.6232 17.3397 21.689 17.3397 22.8C17.3397 23.911 17.7799 24.9768 18.564 25.764L20.4 27.6M22.236 25.764L20.4 27.6M22.236 25.764C23.0232 24.9799 24.089 24.5397 25.2 24.5397C26.311 24.5397 27.3768 24.9799 28.164 25.764L30 27.6L28.164 29.436C27.3768 30.2201 26.311 30.6603 25.2 30.6603C24.089 30.6603 23.0232 30.2201 22.236 29.436L20.4 27.6M27.036 20.964C27.8201 20.1768 28.2603 19.111 28.2603 18C28.2603 16.889 27.8201 15.8232 27.036 15.036L25.2 13.2L23.364 15.036C22.5799 15.8232 22.1397 16.889 22.1397 18C22.1397 19.111 22.5799 20.1768 23.364 20.964L25.2 22.8M27.036 20.964L25.2 22.8M27.036 20.964C27.8232 20.1799 28.889 19.7397 30 19.7397C31.111 19.7397 32.1768 20.1799 32.964 20.964L34.8 22.8L32.964 24.636C32.1768 25.4201 31.111 25.8603 30 25.8603C28.889 25.8603 27.8232 25.4201 27.036 24.636L25.2 22.8" stroke="#FFEFB0" stroke-width="2" stroke-linecap="round" stroke-linejoin="round"/>
</svg>
