<svg width="48" height="48" viewBox="0 0 48 48" fill="none" xmlns="http://www.w3.org/2000/svg">
<path d="M0 24C0 10.7452 10.7452 0 24 0C37.2548 0 48 10.7452 48 24C48 37.2548 37.2548 48 24 48C10.7452 48 0 37.2548 0 24Z" fill="#FDEDF5"/>
<path d="M29.3333 25.2208H12M29.3333 30.6104H12M17.6 18.3491L13.0827 21.7176C12.7467 21.9683 12.4737 22.2952 12.2857 22.672C12.0976 23.0487 11.9998 23.4649 12 23.8869V34.6526C12 35.01 12.1405 35.3527 12.3905 35.6054C12.6406 35.858 12.9797 36 13.3333 36H34.6667C35.0203 36 35.3594 35.858 35.6095 35.6054C35.8595 35.3527 36 35.01 36 34.6526V22.9922C36 20.2974 32.7467 14.8728 27.4133 12.178C27.191 12.0494 26.9367 11.9882 26.6808 12.0019C26.425 12.0155 26.1784 12.1033 25.9707 12.2548L21.8667 15.2501M22.6667 17.1364C22.6667 18.6247 21.4728 19.8312 20 19.8312C18.5272 19.8312 17.3333 18.6247 17.3333 17.1364C17.3333 15.6482 18.5272 14.4417 20 14.4417C21.4728 14.4417 22.6667 15.6482 22.6667 17.1364Z" stroke="#EC4899" stroke-width="2" stroke-linecap="round" stroke-linejoin="round"/>
</svg>
