<svg width="48" height="48" viewBox="0 0 48 48" fill="none" xmlns="http://www.w3.org/2000/svg">
<circle cx="24" cy="24" r="24" fill="#FFE5E5"/>
<path d="M25.0938 15.5059H29.1357C30.6537 15.5059 32 16.8456 32 18.6406C32 19.1614 31.8277 19.6503 31.5312 20.0312L31.2832 20.3496L31.291 20.4316L30.9795 20.3799L30.9219 20.3662C30.8636 20.3475 30.8041 20.3139 30.749 20.2607C29.805 19.3499 28.3411 19.3502 27.3975 20.2617C27.2286 20.4246 26.993 20.4248 26.8242 20.2617C25.8805 19.3501 24.4166 19.3496 23.4727 20.2607C23.4255 20.306 23.3771 20.336 23.3311 20.3545L23.0908 20.4502L22.876 20.2402C22.6749 20.0435 22.5106 19.7999 22.3965 19.5234C22.2826 19.2473 22.2223 18.9466 22.2217 18.6406C22.2217 16.847 23.5668 15.5059 25.0938 15.5059Z" stroke="#FF0000" stroke-width="2"/>
</svg>
