<svg width="48" height="48" viewBox="0 0 48 48" fill="none" xmlns="http://www.w3.org/2000/svg">
<path d="M0 24C0 10.7452 10.7452 0 24 0C37.2548 0 48 10.7452 48 24C48 37.2548 37.2548 48 24 48C10.7452 48 0 37.2548 0 24Z" fill="#DC2626"/>
<path d="M32.9652 16.7964L35.6155 22.1974C36.1228 23.7443 36.1282 25.4101 35.6311 26.9602C35.134 28.5104 34.1593 29.867 32.8442 30.839C29.2137 33.8396 23.889 36 19.0484 36C18.3746 35.9991 17.7144 35.8122 17.1416 35.4604C16.5689 35.1085 16.1061 34.6055 15.8052 34.0076L13.4816 29.3987M30.4239 26.0381C31.4164 25.2983 32.2183 24.336 32.7639 23.2299C33.3096 22.1237 33.5834 20.9052 33.5631 19.674C33.5429 18.4427 33.229 17.2338 32.6472 16.1459C32.0654 15.0581 31.2323 14.1222 30.2159 13.415C29.1995 12.7078 28.0287 12.2492 26.7993 12.0768C25.57 11.9044 24.3169 12.0231 23.1427 12.4232C21.9684 12.8232 20.9063 13.4933 20.0433 14.3785C19.1802 15.2638 18.5407 16.3391 18.1771 17.5165C16.8459 21.2732 17.2331 22.1974 14.3288 24.8139C13.75 25.2845 13.332 25.9209 13.132 26.6362C12.932 27.3514 12.9598 28.1105 13.2115 28.8094C13.4632 29.5084 13.9266 30.1132 14.5382 30.541C15.1498 30.9687 15.8797 31.1986 16.6281 31.1991C21.4687 31.1991 26.7934 29.0387 30.4239 26.0381ZM28.7297 19.7969C28.7297 21.4541 27.3752 22.7975 25.7043 22.7975C24.0334 22.7975 22.6789 21.4541 22.6789 19.7969C22.6789 18.1398 24.0334 16.7964 25.7043 16.7964C27.3752 16.7964 28.7297 18.1398 28.7297 19.7969Z" stroke="#FCE9E9" stroke-width="2" stroke-linecap="round" stroke-linejoin="round"/>
</svg>
