<svg width="48" height="48" viewBox="0 0 48 48" fill="none" xmlns="http://www.w3.org/2000/svg">
<path d="M0 24C0 10.7452 10.7452 0 24 0C37.2548 0 48 10.7452 48 24C48 37.2548 37.2548 48 24 48C10.7452 48 0 37.2548 0 24Z" fill="#B0DAFF"/>
<path d="M21.6 33.7778L20.1 30.7222L16.8 31.3333M21.6 14.2222L20.1 17.2778L16.8 16.6667M26.4 33.7778L27.9 30.7222L31.2 31.3333M26.4 14.2222L27.9 17.2778L31.2 16.6667M30 35L26.4 27.6667M26.4 27.6667H21.6M26.4 27.6667L28.2 24M21.6 27.6667L18 35M21.6 27.6667L19.8 24M30 13L26.4 20.3333M26.4 20.3333L28.2 24M26.4 20.3333H21.6M28.2 24H36M12 24H19.8M19.8 24L21.6 20.3333M21.6 20.3333L18 13M33.6 21.5556L31.8 24L33.6 26.4444M14.4 21.5556L16.2 24L14.4 26.4444" stroke="#007CE8" stroke-width="2" stroke-linecap="round" stroke-linejoin="round"/>
</svg>
