<svg width="48" height="47" viewBox="0 0 48 47" fill="none" xmlns="http://www.w3.org/2000/svg">
<ellipse cx="24" cy="23.275" rx="24" ry="23.275" fill="#E6F9FD"/>
<path d="M30.6466 18.2C31.2784 18.2 31.8843 17.9471 32.331 17.4971C32.7778 17.047 33.0288 16.4365 33.0288 15.8C33.0288 15.1635 32.7778 14.553 32.331 14.1029C31.8843 13.6529 31.2784 13.4 30.6466 13.4C30.6466 12.7635 30.3956 12.153 29.9488 11.7029C29.5021 11.2529 28.8962 11 28.2644 11C27.6326 11 27.0267 11.2529 26.5799 11.7029C26.1332 12.153 25.8822 12.7635 25.8822 13.4C25.8822 12.7635 25.6312 12.153 25.1845 11.7029C24.7377 11.2529 24.1318 11 23.5 11C22.8682 11 22.2623 11.2529 21.8155 11.7029C21.3688 12.153 21.1178 12.7635 21.1178 13.4C21.1178 12.7635 20.8668 12.153 20.4201 11.7029C19.9733 11.2529 19.3674 11 18.7356 11C18.1038 11 17.4979 11.2529 17.0512 11.7029C16.6044 12.153 16.3534 12.7635 16.3534 13.4C15.7216 13.4 15.1157 13.6529 14.669 14.1029C14.2222 14.553 13.9712 15.1635 13.9712 15.8C13.9712 16.4365 14.2222 17.047 14.669 17.4971C15.1157 17.9471 15.7216 18.2 16.3534 18.2M21.1178 35L19.9267 18.2M25.8822 35L27.0733 18.2M33.0288 18.2C33.6243 18.2 34.1007 18.68 33.9816 19.4L30.8848 33.8C30.7657 34.4 30.051 35 29.4555 35H17.5445C16.8299 35 16.2343 34.52 16.1152 33.8L13.0184 19.4C12.8993 18.68 13.3757 18.2 13.9712 18.2H33.0288Z" stroke="#00C0E8" stroke-width="2" stroke-linecap="round" stroke-linejoin="round"/>
</svg>
