<svg width="48" height="48" viewBox="0 0 48 48" fill="none" xmlns="http://www.w3.org/2000/svg">
<path d="M0 24C0 10.7452 10.7452 0 24 0C37.2548 0 48 10.7452 48 24C48 37.2548 37.2548 48 24 48C10.7452 48 0 37.2548 0 24Z" fill="#3030E0"/>
<path d="M19.2 12H28.8M20.4 12V15.3468C20.4 16.2945 20.1194 17.2211 19.5936 18.0096L18.8064 19.1904C18.2804 19.9793 17.9998 20.9062 18 21.8544V33.6C18 34.2365 18.2529 34.847 18.7029 35.2971C19.153 35.7471 19.7635 36 20.4 36H27.6C28.2365 36 28.847 35.7471 29.2971 35.2971C29.7471 34.847 30 34.2365 30 33.6V21.8532C30 20.9055 29.7194 19.9789 29.1936 19.1904L28.4064 18.0096C27.8804 17.2207 27.5998 16.2938 27.6 15.3456V12M18 27.6C18.9501 27.2021 19.9699 26.9972 21 26.9972C22.0301 26.9972 23.0499 27.2021 24 27.6C24.9501 27.998 25.9699 28.203 27 28.203C28.0301 28.203 29.0499 27.998 30 27.6" stroke="#EAEAFC" stroke-width="2" stroke-linecap="round" stroke-linejoin="round"/>
</svg>
