<svg width="53" height="51" viewBox="0 0 53 51" fill="none" xmlns="http://www.w3.org/2000/svg">
<path d="M1.61621 41.6134C1.61621 41.6134 5.59152 40.3161 6.25407 41.6134C6.91662 42.9107 5.59152 44.208 4.92897 45.5053C4.26642 46.8026 8.90427 43.5593 10.2294 44.8566C11.5545 46.1539 10.2294 49.3972 10.2294 49.3972C22.3762 45.9377 43.4895 35.5161 30.7685 21.5053L30.6936 21.4232M1.61621 41.6134L2.65662 40.9647M1.61621 41.6134C5.87105 29.5333 17.1755 9.06681 29.3705 20.1037M29.3705 20.1037C29.8105 20.5019 30.2516 20.9411 30.6936 21.4232M29.3705 20.1037C29.813 20.6086 30.2623 21.0513 30.6936 21.4232M29.3705 20.1037C25.9861 16.2424 22.9936 8.73972 31.431 1.39716C34.9646 5.28905 39.9117 14.6296 31.431 20.8566M32.2424 20.9441C35.776 25.0522 44.5659 30.9333 51.4564 21.5928C49.0271 17.9171 41.7832 12.5117 32.2424 20.2955M22.3044 29.9377L30.255 38.3702M7.72848 29.9377L12.3663 34.4783" stroke="white" stroke-width="2"/>
</svg>
