<svg width="28" height="28" viewBox="0 0 28 28" fill="none" xmlns="http://www.w3.org/2000/svg">
<path d="M12.2222 13.1V18.5M15.7778 13.1V18.5M20.2222 8.6V21.2C20.2222 21.6774 20.0349 22.1352 19.7015 22.4728C19.3681 22.8104 18.9159 23 18.4444 23H9.55556C9.08406 23 8.63187 22.8104 8.29848 22.4728C7.96508 22.1352 7.77778 21.6774 7.77778 21.2V8.6M6 8.6H22M10.4444 8.6V6.8C10.4444 6.32261 10.6317 5.86477 10.9651 5.52721C11.2985 5.18964 11.7507 5 12.2222 5H15.7778C16.2493 5 16.7015 5.18964 17.0349 5.52721C17.3683 5.86477 17.5556 6.32261 17.5556 6.8V8.6" stroke="#444955" stroke-width="1.5" stroke-linecap="round" stroke-linejoin="round"/>
</svg>
