<svg width="13" height="23" viewBox="0 0 13 23" fill="none" xmlns="http://www.w3.org/2000/svg">
<path d="M13 2.5C13 3.88071 11.8807 5 10.5 5C9.11929 5 8 3.88071 8 2.5C8 1.11929 9.11929 0 10.5 0C11.8807 0 13 1.11929 13 2.5Z" fill="#D0D1D4"/>
<path d="M13 20.5C13 21.8807 11.8807 23 10.5 23C9.11929 23 8 21.8807 8 20.5C8 19.1193 9.11929 18 10.5 18C11.8807 18 13 19.1193 13 20.5Z" fill="#D0D1D4"/>
<path d="M13 11.5C13 12.8807 11.8807 14 10.5 14C9.11929 14 8 12.8807 8 11.5C8 10.1193 9.11929 9 10.5 9C11.8807 9 13 10.1193 13 11.5Z" fill="#D0D1D4"/>
<path d="M5 2.5C5 3.88071 3.88071 5 2.5 5C1.11929 5 0 3.88071 0 2.5C0 1.11929 1.11929 0 2.5 0C3.88071 0 5 1.11929 5 2.5Z" fill="#D0D1D4"/>
<path d="M5 20.5C5 21.8807 3.88071 23 2.5 23C1.11929 23 0 21.8807 0 20.5C0 19.1193 1.11929 18 2.5 18C3.88071 18 5 19.1193 5 20.5Z" fill="#D0D1D4"/>
<path d="M5 11.5C5 12.8807 3.88071 14 2.5 14C1.11929 14 0 12.8807 0 11.5C0 10.1193 1.11929 9 2.5 9C3.88071 9 5 10.1193 5 11.5Z" fill="#D0D1D4"/>
</svg>
