<svg width="28" height="28" viewBox="0 0 28 28" fill="none" xmlns="http://www.w3.org/2000/svg">
<path d="M16.7 7.7004L20.3001 11.3005M22.2567 9.33124C22.7325 8.85551 22.9999 8.21024 23 7.53737C23.0001 6.8645 22.7329 6.21916 22.2571 5.74331C21.7814 5.26746 21.1362 5.00008 20.4633 5C19.7904 4.99992 19.1451 5.26713 18.6693 5.74286L6.65776 17.7572C6.44879 17.9656 6.29426 18.2221 6.20775 18.5042L5.01884 22.4211C4.99558 22.499 4.99382 22.5817 5.01376 22.6604C5.03369 22.7392 5.07457 22.8111 5.13206 22.8685C5.18955 22.9258 5.2615 22.9666 5.34029 22.9864C5.41907 23.0062 5.50175 23.0043 5.57955 22.981L9.49728 21.7929C9.77914 21.7072 10.0356 21.5536 10.2443 21.3456L22.2567 9.33124Z" stroke="#444955" stroke-width="1.5" stroke-linecap="round" stroke-linejoin="round"/>
</svg>
