<svg width="378" height="343" viewBox="0 0 378 343" fill="none" xmlns="http://www.w3.org/2000/svg">
<g filter="url(#filter0_dd_5140_2832)">
<path d="M4 11C4 6.58172 7.58172 3 12 3H374V330C374 334.418 370.418 338 366 338H12C7.58173 338 4 334.418 4 330V11Z" fill="white" shape-rendering="crispEdges"/>
<path d="M34.6091 47.32V36.9801H35.1591V47.32H34.6091ZM34.8401 46.066C34.2681 46.066 33.7181 45.9743 33.1901 45.791C32.6694 45.6003 32.2661 45.3583 31.9801 45.065L32.2991 44.438C32.5704 44.702 32.9334 44.9257 33.3881 45.109C33.8501 45.285 34.3341 45.373 34.8401 45.373C35.3241 45.373 35.7164 45.3143 36.0171 45.197C36.3251 45.0723 36.5487 44.9073 36.6881 44.702C36.8347 44.4967 36.9081 44.2693 36.9081 44.02C36.9081 43.7193 36.8201 43.4774 36.6441 43.294C36.4754 43.1107 36.2517 42.9677 35.9731 42.865C35.6944 42.755 35.3864 42.6597 35.0491 42.579C34.7117 42.4984 34.3744 42.414 34.0371 42.326C33.6997 42.2307 33.3881 42.106 33.1021 41.952C32.8234 41.798 32.5961 41.5964 32.4201 41.347C32.2514 41.0904 32.1671 40.7567 32.1671 40.346C32.1671 39.9647 32.2661 39.6164 32.4641 39.301C32.6694 38.9784 32.9811 38.7217 33.3991 38.5311C33.8171 38.3331 34.3524 38.2341 35.0051 38.2341C35.4377 38.2341 35.8667 38.2964 36.2921 38.4211C36.7174 38.5384 37.0841 38.7034 37.392 38.916L37.1171 39.565C36.7871 39.345 36.4351 39.1837 36.0611 39.081C35.6944 38.9784 35.3387 38.9271 34.9941 38.9271C34.5321 38.9271 34.1507 38.9894 33.8501 39.114C33.5494 39.2387 33.3257 39.4074 33.1791 39.62C33.0397 39.8254 32.9701 40.06 32.9701 40.324C32.9701 40.6247 33.0544 40.8667 33.2231 41.05C33.3991 41.2334 33.6264 41.3764 33.9051 41.479C34.1911 41.5817 34.5027 41.6734 34.8401 41.754C35.1774 41.8347 35.5111 41.9227 35.8411 42.018C36.1784 42.1134 36.4864 42.238 36.7651 42.392C37.0511 42.5387 37.2784 42.7367 37.447 42.986C37.623 43.2354 37.711 43.5617 37.711 43.965C37.711 44.339 37.6084 44.6873 37.403 45.01C37.1977 45.3253 36.8824 45.582 36.4571 45.78C36.0391 45.9707 35.5001 46.066 34.8401 46.066ZM41.9596 46.066C41.2776 46.066 40.7019 45.9157 40.2326 45.615C39.7633 45.307 39.4076 44.867 39.1656 44.295C38.9236 43.7157 38.8026 43.0227 38.8026 42.216C38.8026 41.3434 38.9493 40.6137 39.2426 40.027C39.5433 39.433 39.9576 38.9857 40.4856 38.6851C41.0136 38.3844 41.6259 38.2341 42.3226 38.2341C42.6673 38.2341 42.9973 38.2671 43.3126 38.3331C43.6279 38.3991 43.9066 38.5054 44.1486 38.6521L43.8296 39.29C43.6316 39.158 43.4043 39.0664 43.1476 39.015C42.8909 38.9564 42.6196 38.9271 42.3336 38.9271C41.5049 38.9271 40.8413 39.191 40.3426 39.719C39.8513 40.247 39.6056 41.0354 39.6056 42.084C39.6056 42.2454 39.6129 42.447 39.6276 42.689C39.6496 42.9237 39.6936 43.1584 39.7596 43.393L39.4846 43.184C39.5653 42.8027 39.7229 42.48 39.9576 42.216C40.1923 41.9447 40.4856 41.7394 40.8376 41.6C41.1896 41.4607 41.5746 41.391 41.9926 41.391C42.5059 41.391 42.9569 41.4864 43.3456 41.677C43.7342 41.8677 44.0386 42.1354 44.2586 42.48C44.4786 42.8247 44.5886 43.2317 44.5886 43.701C44.5886 44.1777 44.4749 44.5957 44.2476 44.955C44.0202 45.307 43.7049 45.582 43.3016 45.78C42.9056 45.9707 42.4583 46.066 41.9596 46.066ZM41.9266 45.395C42.2933 45.395 42.6159 45.329 42.8946 45.197C43.1806 45.0577 43.4043 44.8633 43.5656 44.614C43.7269 44.3573 43.8076 44.0603 43.8076 43.723C43.8076 43.217 43.6316 42.8137 43.2796 42.513C42.9349 42.2124 42.4656 42.062 41.8716 42.062C41.4756 42.062 41.1309 42.1354 40.8376 42.282C40.5443 42.4287 40.3133 42.6304 40.1446 42.887C39.9759 43.1364 39.8916 43.4224 39.8916 43.745C39.8916 44.0237 39.9686 44.2913 40.1226 44.548C40.2766 44.7973 40.5039 45.0027 40.8046 45.164C41.1126 45.318 41.4866 45.395 41.9266 45.395ZM48.5747 46.066C47.9807 46.066 47.4527 45.912 46.9907 45.604C46.5287 45.2887 46.1657 44.8413 45.9017 44.262C45.6377 43.6753 45.5057 42.9714 45.5057 42.15C45.5057 41.3287 45.6377 40.6284 45.9017 40.049C46.1657 39.4624 46.5287 39.015 46.9907 38.7071C47.4527 38.3917 47.9807 38.2341 48.5747 38.2341C49.1687 38.2341 49.6967 38.3917 50.1587 38.7071C50.6207 39.015 50.9837 39.4624 51.2477 40.049C51.519 40.6284 51.6547 41.3287 51.6547 42.15C51.6547 42.9714 51.519 43.6753 51.2477 44.262C50.9837 44.8413 50.6207 45.2887 50.1587 45.604C49.6967 45.912 49.1687 46.066 48.5747 46.066ZM48.5747 45.34C49.0293 45.34 49.4253 45.219 49.7627 44.977C50.1 44.7277 50.364 44.3683 50.5547 43.899C50.7453 43.4224 50.8407 42.8394 50.8407 42.15C50.8407 41.4607 50.7453 40.8814 50.5547 40.412C50.364 39.9354 50.1 39.576 49.7627 39.334C49.4253 39.0847 49.0293 38.96 48.5747 38.96C48.1347 38.96 47.7423 39.0847 47.3977 39.334C47.053 39.576 46.7854 39.9354 46.5947 40.412C46.404 40.8814 46.3087 41.4607 46.3087 42.15C46.3087 42.8394 46.404 43.4224 46.5947 43.899C46.7854 44.3683 47.053 44.7277 47.3977 44.977C47.7423 45.219 48.1347 45.34 48.5747 45.34ZM55.8578 46.066C55.2638 46.066 54.7358 45.912 54.2738 45.604C53.8118 45.2887 53.4488 44.8413 53.1848 44.262C52.9208 43.6753 52.7888 42.9714 52.7888 42.15C52.7888 41.3287 52.9208 40.6284 53.1848 40.049C53.4488 39.4624 53.8118 39.015 54.2738 38.7071C54.7358 38.3917 55.2638 38.2341 55.8578 38.2341C56.4518 38.2341 56.9798 38.3917 57.4418 38.7071C57.9038 39.015 58.2668 39.4624 58.5308 40.049C58.8021 40.6284 58.9378 41.3287 58.9378 42.15C58.9378 42.9714 58.8021 43.6753 58.5308 44.262C58.2668 44.8413 57.9038 45.2887 57.4418 45.604C56.9798 45.912 56.4518 46.066 55.8578 46.066ZM55.8578 45.34C56.3125 45.34 56.7085 45.219 57.0458 44.977C57.3831 44.7277 57.6471 44.3683 57.8378 43.899C58.0285 43.4224 58.1238 42.8394 58.1238 42.15C58.1238 41.4607 58.0285 40.8814 57.8378 40.412C57.6471 39.9354 57.3831 39.576 57.0458 39.334C56.7085 39.0847 56.3125 38.96 55.8578 38.96C55.4178 38.96 55.0255 39.0847 54.6808 39.334C54.3362 39.576 54.0685 39.9354 53.8778 40.412C53.6872 40.8814 53.5918 41.4607 53.5918 42.15C53.5918 42.8394 53.6872 43.4224 53.8778 43.899C54.0685 44.3683 54.3362 44.7277 54.6808 44.977C55.0255 45.219 55.4178 45.34 55.8578 45.34Z" fill="#444955"/>
<path d="M35.0817 83.32V72.9801H35.6317V83.32H35.0817ZM35.3127 82.066C34.7407 82.066 34.1907 81.9743 33.6627 81.791C33.1421 81.6003 32.7387 81.3583 32.4527 81.065L32.7717 80.438C33.0431 80.702 33.4061 80.9257 33.8607 81.109C34.3227 81.285 34.8067 81.373 35.3127 81.373C35.7967 81.373 36.189 81.3143 36.4897 81.197C36.7977 81.0723 37.0214 80.9073 37.1607 80.702C37.3074 80.4967 37.3807 80.2693 37.3807 80.02C37.3807 79.7193 37.2927 79.4774 37.1167 79.294C36.948 79.1107 36.7244 78.9677 36.4457 78.865C36.167 78.755 35.859 78.6597 35.5217 78.579C35.1844 78.4984 34.8471 78.414 34.5097 78.326C34.1724 78.2307 33.8607 78.106 33.5747 77.952C33.2961 77.798 33.0687 77.5964 32.8927 77.347C32.7241 77.0904 32.6397 76.7567 32.6397 76.346C32.6397 75.9647 32.7387 75.6164 32.9367 75.301C33.1421 74.9784 33.4537 74.7217 33.8717 74.5311C34.2897 74.3331 34.8251 74.2341 35.4777 74.2341C35.9104 74.2341 36.3394 74.2964 36.7647 74.4211C37.19 74.5384 37.5567 74.7034 37.8647 74.916L37.5897 75.565C37.2597 75.345 36.9077 75.1837 36.5337 75.081C36.167 74.9784 35.8114 74.9271 35.4667 74.9271C35.0047 74.9271 34.6234 74.9894 34.3227 75.114C34.0221 75.2387 33.7984 75.4074 33.6517 75.62C33.5124 75.8254 33.4427 76.06 33.4427 76.324C33.4427 76.6247 33.5271 76.8667 33.6957 77.05C33.8717 77.2334 34.0991 77.3764 34.3777 77.479C34.6637 77.5817 34.9754 77.6734 35.3127 77.754C35.6501 77.8347 35.9837 77.9227 36.3137 78.018C36.651 78.1134 36.959 78.238 37.2377 78.392C37.5237 78.5387 37.751 78.7367 37.9197 78.986C38.0957 79.2354 38.1837 79.5617 38.1837 79.965C38.1837 80.339 38.081 80.6873 37.8757 81.01C37.6704 81.3253 37.355 81.582 36.9297 81.78C36.5117 81.9707 35.9727 82.066 35.3127 82.066ZM41.7063 82.066C41.1563 82.066 40.6319 81.978 40.1333 81.802C39.6346 81.6187 39.2386 81.3767 38.9453 81.076L39.3303 80.449C39.5723 80.7057 39.9023 80.9183 40.3203 81.087C40.7456 81.2557 41.2039 81.34 41.6953 81.34C42.3479 81.34 42.8429 81.197 43.1802 80.911C43.5249 80.6177 43.6972 80.2363 43.6972 79.767C43.6972 79.437 43.6166 79.1547 43.4552 78.92C43.3012 78.678 43.0372 78.491 42.6632 78.359C42.2892 78.227 41.7759 78.161 41.1233 78.161H39.4843L39.8803 74.3001H44.0932V75.004H40.1993L40.6063 74.6191L40.2653 77.853L39.8583 77.457H41.2993C42.0766 77.457 42.6999 77.5524 43.1692 77.743C43.6386 77.9337 43.9759 78.2014 44.1812 78.546C44.3939 78.8834 44.5002 79.2794 44.5002 79.734C44.5002 80.1667 44.3976 80.5627 44.1922 80.922C43.9869 81.274 43.6789 81.5527 43.2682 81.758C42.8576 81.9633 42.3369 82.066 41.7063 82.066ZM48.5747 82.066C47.9807 82.066 47.4527 81.912 46.9907 81.604C46.5287 81.2887 46.1657 80.8413 45.9017 80.262C45.6377 79.6753 45.5057 78.9714 45.5057 78.15C45.5057 77.3287 45.6377 76.6284 45.9017 76.049C46.1657 75.4624 46.5287 75.015 46.9907 74.7071C47.4527 74.3917 47.9807 74.2341 48.5747 74.2341C49.1687 74.2341 49.6967 74.3917 50.1587 74.7071C50.6207 75.015 50.9837 75.4624 51.2477 76.049C51.519 76.6284 51.6546 77.3287 51.6546 78.15C51.6546 78.9714 51.519 79.6753 51.2477 80.262C50.9837 80.8413 50.6207 81.2887 50.1587 81.604C49.6967 81.912 49.1687 82.066 48.5747 82.066ZM48.5747 81.34C49.0293 81.34 49.4253 81.219 49.7627 80.977C50.1 80.7277 50.364 80.3683 50.5547 79.899C50.7453 79.4224 50.8407 78.8394 50.8407 78.15C50.8407 77.4607 50.7453 76.8814 50.5547 76.412C50.364 75.9354 50.1 75.576 49.7627 75.334C49.4253 75.0847 49.0293 74.96 48.5747 74.96C48.1347 74.96 47.7423 75.0847 47.3977 75.334C47.053 75.576 46.7854 75.9354 46.5947 76.412C46.404 76.8814 46.3087 77.4607 46.3087 78.15C46.3087 78.8394 46.404 79.4224 46.5947 79.899C46.7854 80.3683 47.053 80.7277 47.3977 80.977C47.7423 81.219 48.1347 81.34 48.5747 81.34ZM55.8578 82.066C55.2638 82.066 54.7358 81.912 54.2738 81.604C53.8118 81.2887 53.4488 80.8413 53.1848 80.262C52.9208 79.6753 52.7888 78.9714 52.7888 78.15C52.7888 77.3287 52.9208 76.6284 53.1848 76.049C53.4488 75.4624 53.8118 75.015 54.2738 74.7071C54.7358 74.3917 55.2638 74.2341 55.8578 74.2341C56.4518 74.2341 56.9798 74.3917 57.4418 74.7071C57.9038 75.015 58.2668 75.4624 58.5308 76.049C58.8021 76.6284 58.9378 77.3287 58.9378 78.15C58.9378 78.9714 58.8021 79.6753 58.5308 80.262C58.2668 80.8413 57.9038 81.2887 57.4418 81.604C56.9798 81.912 56.4518 82.066 55.8578 82.066ZM55.8578 81.34C56.3125 81.34 56.7085 81.219 57.0458 80.977C57.3831 80.7277 57.6471 80.3683 57.8378 79.899C58.0285 79.4224 58.1238 78.8394 58.1238 78.15C58.1238 77.4607 58.0285 76.8814 57.8378 76.412C57.6471 75.9354 57.3831 75.576 57.0458 75.334C56.7085 75.0847 56.3125 74.96 55.8578 74.96C55.4178 74.96 55.0255 75.0847 54.6808 75.334C54.3362 75.576 54.0685 75.9354 53.8778 76.412C53.6872 76.8814 53.5918 77.4607 53.5918 78.15C53.5918 78.8394 53.6872 79.4224 53.8778 79.899C54.0685 80.3683 54.3362 80.7277 54.6808 80.977C55.0255 81.219 55.4178 81.34 55.8578 81.34Z" fill="#444955"/>
<path d="M33.9323 119.32V108.98H34.4823V119.32H33.9323ZM34.1633 118.066C33.5913 118.066 33.0413 117.974 32.5133 117.791C31.9927 117.6 31.5893 117.358 31.3033 117.065L31.6223 116.438C31.8937 116.702 32.2567 116.926 32.7113 117.109C33.1733 117.285 33.6573 117.373 34.1633 117.373C34.6473 117.373 35.0396 117.314 35.3403 117.197C35.6483 117.072 35.872 116.907 36.0113 116.702C36.158 116.497 36.2313 116.269 36.2313 116.02C36.2313 115.719 36.1433 115.477 35.9673 115.294C35.7986 115.111 35.575 114.968 35.2963 114.865C35.0176 114.755 34.7096 114.66 34.3723 114.579C34.035 114.498 33.6976 114.414 33.3603 114.326C33.023 114.231 32.7113 114.106 32.4253 113.952C32.1467 113.798 31.9193 113.596 31.7433 113.347C31.5747 113.09 31.4903 112.757 31.4903 112.346C31.4903 111.965 31.5893 111.616 31.7873 111.301C31.9927 110.978 32.3043 110.722 32.7223 110.531C33.1403 110.333 33.6756 110.234 34.3283 110.234C34.761 110.234 35.19 110.296 35.6153 110.421C36.0406 110.538 36.4073 110.703 36.7153 110.916L36.4403 111.565C36.1103 111.345 35.7583 111.184 35.3843 111.081C35.0176 110.978 34.662 110.927 34.3173 110.927C33.8553 110.927 33.474 110.989 33.1733 111.114C32.8727 111.239 32.649 111.407 32.5023 111.62C32.363 111.825 32.2933 112.06 32.2933 112.324C32.2933 112.625 32.3777 112.867 32.5463 113.05C32.7223 113.233 32.9497 113.376 33.2283 113.479C33.5143 113.582 33.826 113.673 34.1633 113.754C34.5006 113.835 34.8343 113.923 35.1643 114.018C35.5016 114.113 35.8096 114.238 36.0883 114.392C36.3743 114.539 36.6016 114.737 36.7703 114.986C36.9463 115.235 37.0343 115.562 37.0343 115.965C37.0343 116.339 36.9316 116.687 36.7263 117.01C36.521 117.325 36.2056 117.582 35.7803 117.78C35.3623 117.971 34.8233 118.066 34.1633 118.066ZM38.1013 115.976V115.404L42.1823 110.3H43.0623L39.0143 115.404L38.5853 115.272H44.7782V115.976H38.1013ZM42.4463 118V115.976L42.4683 115.272V113.49H43.2382V118H42.4463ZM48.5747 118.066C47.9807 118.066 47.4527 117.912 46.9907 117.604C46.5287 117.289 46.1657 116.841 45.9017 116.262C45.6377 115.675 45.5057 114.971 45.5057 114.15C45.5057 113.329 45.6377 112.628 45.9017 112.049C46.1657 111.462 46.5287 111.015 46.9907 110.707C47.4527 110.392 47.9807 110.234 48.5747 110.234C49.1687 110.234 49.6967 110.392 50.1587 110.707C50.6207 111.015 50.9837 111.462 51.2477 112.049C51.519 112.628 51.6546 113.329 51.6546 114.15C51.6546 114.971 51.519 115.675 51.2477 116.262C50.9837 116.841 50.6207 117.289 50.1587 117.604C49.6967 117.912 49.1687 118.066 48.5747 118.066ZM48.5747 117.34C49.0293 117.34 49.4253 117.219 49.7627 116.977C50.1 116.728 50.364 116.368 50.5547 115.899C50.7453 115.422 50.8407 114.839 50.8407 114.15C50.8407 113.461 50.7453 112.881 50.5547 112.412C50.364 111.935 50.1 111.576 49.7627 111.334C49.4253 111.085 49.0293 110.96 48.5747 110.96C48.1347 110.96 47.7423 111.085 47.3977 111.334C47.053 111.576 46.7854 111.935 46.5947 112.412C46.404 112.881 46.3087 113.461 46.3087 114.15C46.3087 114.839 46.404 115.422 46.5947 115.899C46.7854 116.368 47.053 116.728 47.3977 116.977C47.7423 117.219 48.1347 117.34 48.5747 117.34ZM55.8578 118.066C55.2638 118.066 54.7358 117.912 54.2738 117.604C53.8118 117.289 53.4488 116.841 53.1848 116.262C52.9208 115.675 52.7888 114.971 52.7888 114.15C52.7888 113.329 52.9208 112.628 53.1848 112.049C53.4488 111.462 53.8118 111.015 54.2738 110.707C54.7358 110.392 55.2638 110.234 55.8578 110.234C56.4518 110.234 56.9798 110.392 57.4418 110.707C57.9038 111.015 58.2668 111.462 58.5308 112.049C58.8021 112.628 58.9378 113.329 58.9378 114.15C58.9378 114.971 58.8021 115.675 58.5308 116.262C58.2668 116.841 57.9038 117.289 57.4418 117.604C56.9798 117.912 56.4518 118.066 55.8578 118.066ZM55.8578 117.34C56.3125 117.34 56.7085 117.219 57.0458 116.977C57.3831 116.728 57.6471 116.368 57.8378 115.899C58.0285 115.422 58.1238 114.839 58.1238 114.15C58.1238 113.461 58.0285 112.881 57.8378 112.412C57.6471 111.935 57.3831 111.576 57.0458 111.334C56.7085 111.085 56.3125 110.96 55.8578 110.96C55.4178 110.96 55.0255 111.085 54.6808 111.334C54.3362 111.576 54.0685 111.935 53.8778 112.412C53.6872 112.881 53.5918 113.461 53.5918 114.15C53.5918 114.839 53.6872 115.422 53.8778 115.899C54.0685 116.368 54.3362 116.728 54.6808 116.977C55.0255 117.219 55.4178 117.34 55.8578 117.34Z" fill="#444955"/>
<path d="M35.1891 155.32V144.98H35.7391V155.32H35.1891ZM35.4201 154.066C34.8481 154.066 34.2981 153.974 33.7702 153.791C33.2495 153.6 32.8462 153.358 32.5602 153.065L32.8792 152.438C33.1505 152.702 33.5135 152.926 33.9682 153.109C34.4301 153.285 34.9141 153.373 35.4201 153.373C35.9041 153.373 36.2965 153.314 36.5971 153.197C36.9051 153.072 37.1288 152.907 37.2681 152.702C37.4148 152.497 37.4881 152.269 37.4881 152.02C37.4881 151.719 37.4001 151.477 37.2241 151.294C37.0555 151.111 36.8318 150.968 36.5531 150.865C36.2745 150.755 35.9665 150.66 35.6291 150.579C35.2918 150.498 34.9545 150.414 34.6171 150.326C34.2798 150.231 33.9682 150.106 33.6822 149.952C33.4035 149.798 33.1762 149.596 33.0002 149.347C32.8315 149.09 32.7472 148.757 32.7472 148.346C32.7472 147.965 32.8462 147.616 33.0442 147.301C33.2495 146.978 33.5612 146.722 33.9792 146.531C34.3971 146.333 34.9325 146.234 35.5851 146.234C36.0178 146.234 36.4468 146.296 36.8721 146.421C37.2975 146.538 37.6641 146.703 37.9721 146.916L37.6971 147.565C37.3671 147.345 37.0151 147.184 36.6411 147.081C36.2745 146.978 35.9188 146.927 35.5741 146.927C35.1121 146.927 34.7308 146.989 34.4301 147.114C34.1295 147.239 33.9058 147.407 33.7592 147.62C33.6198 147.825 33.5502 148.06 33.5502 148.324C33.5502 148.625 33.6345 148.867 33.8032 149.05C33.9792 149.233 34.2065 149.376 34.4851 149.479C34.7711 149.582 35.0828 149.673 35.4201 149.754C35.7575 149.835 36.0911 149.923 36.4211 150.018C36.7585 150.113 37.0665 150.238 37.3451 150.392C37.6311 150.539 37.8585 150.737 38.0271 150.986C38.2031 151.235 38.2911 151.562 38.2911 151.965C38.2911 152.339 38.1885 152.687 37.9831 153.01C37.7778 153.325 37.4625 153.582 37.0371 153.78C36.6191 153.971 36.0801 154.066 35.4201 154.066ZM41.5957 154.066C41.0384 154.066 40.5104 153.978 40.0117 153.802C39.5204 153.619 39.1244 153.377 38.8238 153.076L39.2088 152.449C39.4581 152.706 39.7918 152.918 40.2097 153.087C40.6351 153.256 41.0971 153.34 41.5957 153.34C42.2337 153.34 42.7214 153.201 43.0587 152.922C43.4034 152.643 43.5757 152.269 43.5757 151.8C43.5757 151.331 43.4071 150.957 43.0697 150.678C42.7397 150.399 42.2154 150.26 41.4967 150.26H40.9467V149.677L43.3227 146.696L43.4327 147.004H39.1428V146.3H44.0927V146.861L41.7167 149.842L41.3317 149.589H41.6287C42.5527 149.589 43.2421 149.794 43.6967 150.205C44.1587 150.616 44.3897 151.144 44.3897 151.789C44.3897 152.222 44.2871 152.61 44.0817 152.955C43.8764 153.3 43.5647 153.571 43.1467 153.769C42.7361 153.967 42.2191 154.066 41.5957 154.066ZM48.5747 154.066C47.9807 154.066 47.4527 153.912 46.9907 153.604C46.5287 153.289 46.1657 152.841 45.9017 152.262C45.6377 151.675 45.5057 150.971 45.5057 150.15C45.5057 149.329 45.6377 148.628 45.9017 148.049C46.1657 147.462 46.5287 147.015 46.9907 146.707C47.4527 146.392 47.9807 146.234 48.5747 146.234C49.1687 146.234 49.6967 146.392 50.1587 146.707C50.6207 147.015 50.9837 147.462 51.2477 148.049C51.519 148.628 51.6547 149.329 51.6547 150.15C51.6547 150.971 51.519 151.675 51.2477 152.262C50.9837 152.841 50.6207 153.289 50.1587 153.604C49.6967 153.912 49.1687 154.066 48.5747 154.066ZM48.5747 153.34C49.0293 153.34 49.4253 153.219 49.7627 152.977C50.1 152.728 50.364 152.368 50.5547 151.899C50.7453 151.422 50.8407 150.839 50.8407 150.15C50.8407 149.461 50.7453 148.881 50.5547 148.412C50.364 147.935 50.1 147.576 49.7627 147.334C49.4253 147.085 49.0293 146.96 48.5747 146.96C48.1347 146.96 47.7423 147.085 47.3977 147.334C47.053 147.576 46.7854 147.935 46.5947 148.412C46.404 148.881 46.3087 149.461 46.3087 150.15C46.3087 150.839 46.404 151.422 46.5947 151.899C46.7854 152.368 47.053 152.728 47.3977 152.977C47.7423 153.219 48.1347 153.34 48.5747 153.34ZM55.8578 154.066C55.2638 154.066 54.7358 153.912 54.2738 153.604C53.8118 153.289 53.4488 152.841 53.1848 152.262C52.9208 151.675 52.7888 150.971 52.7888 150.15C52.7888 149.329 52.9208 148.628 53.1848 148.049C53.4488 147.462 53.8118 147.015 54.2738 146.707C54.7358 146.392 55.2638 146.234 55.8578 146.234C56.4518 146.234 56.9798 146.392 57.4418 146.707C57.9038 147.015 58.2668 147.462 58.5308 148.049C58.8021 148.628 58.9378 149.329 58.9378 150.15C58.9378 150.971 58.8021 151.675 58.5308 152.262C58.2668 152.841 57.9038 153.289 57.4418 153.604C56.9798 153.912 56.4518 154.066 55.8578 154.066ZM55.8578 153.34C56.3125 153.34 56.7085 153.219 57.0458 152.977C57.3831 152.728 57.6471 152.368 57.8378 151.899C58.0285 151.422 58.1238 150.839 58.1238 150.15C58.1238 149.461 58.0285 148.881 57.8378 148.412C57.6471 147.935 57.3831 147.576 57.0458 147.334C56.7085 147.085 56.3125 146.96 55.8578 146.96C55.4178 146.96 55.0255 147.085 54.6808 147.334C54.3362 147.576 54.0685 147.935 53.8778 148.412C53.6872 148.881 53.5918 149.461 53.5918 150.15C53.5918 150.839 53.6872 151.422 53.8778 151.899C54.0685 152.368 54.3362 152.728 54.6808 152.977C55.0255 153.219 55.4178 153.34 55.8578 153.34Z" fill="#444955"/>
<path d="M35.0817 191.32V180.98H35.6317V191.32H35.0817ZM35.3127 190.066C34.7407 190.066 34.1907 189.974 33.6627 189.791C33.1421 189.6 32.7387 189.358 32.4527 189.065L32.7717 188.438C33.0431 188.702 33.4061 188.926 33.8607 189.109C34.3227 189.285 34.8067 189.373 35.3127 189.373C35.7967 189.373 36.189 189.314 36.4897 189.197C36.7977 189.072 37.0214 188.907 37.1607 188.702C37.3074 188.497 37.3807 188.269 37.3807 188.02C37.3807 187.719 37.2927 187.477 37.1167 187.294C36.948 187.111 36.7244 186.968 36.4457 186.865C36.167 186.755 35.859 186.66 35.5217 186.579C35.1844 186.498 34.8471 186.414 34.5097 186.326C34.1724 186.231 33.8607 186.106 33.5747 185.952C33.2961 185.798 33.0687 185.596 32.8927 185.347C32.7241 185.09 32.6397 184.757 32.6397 184.346C32.6397 183.965 32.7387 183.616 32.9367 183.301C33.1421 182.978 33.4537 182.722 33.8717 182.531C34.2897 182.333 34.8251 182.234 35.4777 182.234C35.9104 182.234 36.3394 182.296 36.7647 182.421C37.19 182.538 37.5567 182.703 37.8647 182.916L37.5897 183.565C37.2597 183.345 36.9077 183.184 36.5337 183.081C36.167 182.978 35.8114 182.927 35.4667 182.927C35.0047 182.927 34.6234 182.989 34.3227 183.114C34.0221 183.239 33.7984 183.407 33.6517 183.62C33.5124 183.825 33.4427 184.06 33.4427 184.324C33.4427 184.625 33.5271 184.867 33.6957 185.05C33.8717 185.233 34.0991 185.376 34.3777 185.479C34.6637 185.582 34.9754 185.673 35.3127 185.754C35.6501 185.835 35.9837 185.923 36.3137 186.018C36.651 186.113 36.959 186.238 37.2377 186.392C37.5237 186.539 37.751 186.737 37.9197 186.986C38.0957 187.235 38.1837 187.562 38.1837 187.965C38.1837 188.339 38.081 188.687 37.8757 189.01C37.6704 189.325 37.355 189.582 36.9297 189.78C36.5117 189.971 35.9727 190.066 35.3127 190.066ZM39.1323 190V189.439L42.3332 186.304C42.6266 186.018 42.8466 185.769 42.9932 185.556C43.1399 185.336 43.2389 185.131 43.2902 184.94C43.3416 184.749 43.3672 184.57 43.3672 184.401C43.3672 183.954 43.2132 183.602 42.9052 183.345C42.6046 183.088 42.1572 182.96 41.5633 182.96C41.1086 182.96 40.7053 183.03 40.3533 183.169C40.0086 183.308 39.7116 183.525 39.4623 183.818L38.9013 183.334C39.2019 182.982 39.5869 182.711 40.0563 182.52C40.5256 182.329 41.0499 182.234 41.6293 182.234C42.1499 182.234 42.6009 182.318 42.9822 182.487C43.3636 182.648 43.6569 182.887 43.8622 183.202C44.0749 183.517 44.1812 183.888 44.1812 184.313C44.1812 184.562 44.1446 184.808 44.0712 185.05C44.0052 185.292 43.8806 185.549 43.6972 185.82C43.5212 186.084 43.2609 186.385 42.9162 186.722L39.9793 189.604L39.7593 189.296H44.5332V190H39.1323ZM48.5747 190.066C47.9807 190.066 47.4527 189.912 46.9907 189.604C46.5287 189.289 46.1657 188.841 45.9017 188.262C45.6377 187.675 45.5057 186.971 45.5057 186.15C45.5057 185.329 45.6377 184.628 45.9017 184.049C46.1657 183.462 46.5287 183.015 46.9907 182.707C47.4527 182.392 47.9807 182.234 48.5747 182.234C49.1687 182.234 49.6967 182.392 50.1587 182.707C50.6207 183.015 50.9837 183.462 51.2477 184.049C51.519 184.628 51.6546 185.329 51.6546 186.15C51.6546 186.971 51.519 187.675 51.2477 188.262C50.9837 188.841 50.6207 189.289 50.1587 189.604C49.6967 189.912 49.1687 190.066 48.5747 190.066ZM48.5747 189.34C49.0293 189.34 49.4253 189.219 49.7627 188.977C50.1 188.728 50.364 188.368 50.5547 187.899C50.7453 187.422 50.8407 186.839 50.8407 186.15C50.8407 185.461 50.7453 184.881 50.5547 184.412C50.364 183.935 50.1 183.576 49.7627 183.334C49.4253 183.085 49.0293 182.96 48.5747 182.96C48.1347 182.96 47.7423 183.085 47.3977 183.334C47.053 183.576 46.7854 183.935 46.5947 184.412C46.404 184.881 46.3087 185.461 46.3087 186.15C46.3087 186.839 46.404 187.422 46.5947 187.899C46.7854 188.368 47.053 188.728 47.3977 188.977C47.7423 189.219 48.1347 189.34 48.5747 189.34ZM55.8578 190.066C55.2638 190.066 54.7358 189.912 54.2738 189.604C53.8118 189.289 53.4488 188.841 53.1848 188.262C52.9208 187.675 52.7888 186.971 52.7888 186.15C52.7888 185.329 52.9208 184.628 53.1848 184.049C53.4488 183.462 53.8118 183.015 54.2738 182.707C54.7358 182.392 55.2638 182.234 55.8578 182.234C56.4518 182.234 56.9798 182.392 57.4418 182.707C57.9038 183.015 58.2668 183.462 58.5308 184.049C58.8021 184.628 58.9378 185.329 58.9378 186.15C58.9378 186.971 58.8021 187.675 58.5308 188.262C58.2668 188.841 57.9038 189.289 57.4418 189.604C56.9798 189.912 56.4518 190.066 55.8578 190.066ZM55.8578 189.34C56.3125 189.34 56.7085 189.219 57.0458 188.977C57.3831 188.728 57.6471 188.368 57.8378 187.899C58.0285 187.422 58.1238 186.839 58.1238 186.15C58.1238 185.461 58.0285 184.881 57.8378 184.412C57.6471 183.935 57.3831 183.576 57.0458 183.334C56.7085 183.085 56.3125 182.96 55.8578 182.96C55.4178 182.96 55.0255 183.085 54.6808 183.334C54.3362 183.576 54.0685 183.935 53.8778 184.412C53.6872 184.881 53.5918 185.461 53.5918 186.15C53.5918 186.839 53.6872 187.422 53.8778 187.899C54.0685 188.368 54.3362 188.728 54.6808 188.977C55.0255 189.219 55.4178 189.34 55.8578 189.34Z" fill="#444955"/>
<path d="M37.445 227.32V216.98H37.995V227.32H37.445ZM37.676 226.066C37.104 226.066 36.554 225.974 36.026 225.791C35.5053 225.6 35.102 225.358 34.816 225.065L35.135 224.438C35.4063 224.702 35.7693 224.926 36.224 225.109C36.686 225.285 37.17 225.373 37.676 225.373C38.16 225.373 38.5523 225.314 38.853 225.197C39.161 225.072 39.3846 224.907 39.524 224.702C39.6706 224.497 39.744 224.269 39.744 224.02C39.744 223.719 39.656 223.477 39.48 223.294C39.3113 223.111 39.0876 222.968 38.809 222.865C38.5303 222.755 38.2223 222.66 37.885 222.579C37.5477 222.498 37.2103 222.414 36.873 222.326C36.5357 222.231 36.224 222.106 35.938 221.952C35.6593 221.798 35.432 221.596 35.256 221.347C35.0873 221.09 35.003 220.757 35.003 220.346C35.003 219.965 35.102 219.616 35.3 219.301C35.5053 218.978 35.817 218.722 36.235 218.531C36.653 218.333 37.1883 218.234 37.841 218.234C38.2736 218.234 38.7026 218.296 39.128 218.421C39.5533 218.538 39.92 218.703 40.228 218.916L39.953 219.565C39.623 219.345 39.271 219.184 38.897 219.081C38.5303 218.978 38.1746 218.927 37.83 218.927C37.368 218.927 36.9867 218.989 36.686 219.114C36.3853 219.239 36.1617 219.407 36.015 219.62C35.8757 219.825 35.806 220.06 35.806 220.324C35.806 220.625 35.8903 220.867 36.059 221.05C36.235 221.233 36.4623 221.376 36.741 221.479C37.027 221.582 37.3387 221.673 37.676 221.754C38.0133 221.835 38.347 221.923 38.677 222.018C39.0143 222.113 39.3223 222.238 39.601 222.392C39.887 222.539 40.1143 222.737 40.283 222.986C40.459 223.235 40.547 223.562 40.547 223.965C40.547 224.339 40.4443 224.687 40.239 225.01C40.0336 225.325 39.7183 225.582 39.293 225.78C38.875 225.971 38.336 226.066 37.676 226.066ZM42.8731 226V218.63L43.2251 219.004H41.0581V218.3H43.6651V226H42.8731ZM48.5747 226.066C47.9807 226.066 47.4527 225.912 46.9907 225.604C46.5287 225.289 46.1657 224.841 45.9017 224.262C45.6377 223.675 45.5057 222.971 45.5057 222.15C45.5057 221.329 45.6377 220.628 45.9017 220.049C46.1657 219.462 46.5287 219.015 46.9907 218.707C47.4527 218.392 47.9807 218.234 48.5747 218.234C49.1687 218.234 49.6967 218.392 50.1587 218.707C50.6207 219.015 50.9837 219.462 51.2477 220.049C51.519 220.628 51.6546 221.329 51.6546 222.15C51.6546 222.971 51.519 223.675 51.2477 224.262C50.9837 224.841 50.6207 225.289 50.1587 225.604C49.6967 225.912 49.1687 226.066 48.5747 226.066ZM48.5747 225.34C49.0293 225.34 49.4253 225.219 49.7627 224.977C50.1 224.728 50.364 224.368 50.5547 223.899C50.7453 223.422 50.8407 222.839 50.8407 222.15C50.8407 221.461 50.7453 220.881 50.5547 220.412C50.364 219.935 50.1 219.576 49.7627 219.334C49.4253 219.085 49.0293 218.96 48.5747 218.96C48.1347 218.96 47.7423 219.085 47.3977 219.334C47.053 219.576 46.7854 219.935 46.5947 220.412C46.404 220.881 46.3087 221.461 46.3087 222.15C46.3087 222.839 46.404 223.422 46.5947 223.899C46.7854 224.368 47.053 224.728 47.3977 224.977C47.7423 225.219 48.1347 225.34 48.5747 225.34ZM55.8578 226.066C55.2638 226.066 54.7358 225.912 54.2738 225.604C53.8118 225.289 53.4488 224.841 53.1848 224.262C52.9208 223.675 52.7888 222.971 52.7888 222.15C52.7888 221.329 52.9208 220.628 53.1848 220.049C53.4488 219.462 53.8118 219.015 54.2738 218.707C54.7358 218.392 55.2638 218.234 55.8578 218.234C56.4518 218.234 56.9798 218.392 57.4418 218.707C57.9038 219.015 58.2668 219.462 58.5308 220.049C58.8021 220.628 58.9378 221.329 58.9378 222.15C58.9378 222.971 58.8021 223.675 58.5308 224.262C58.2668 224.841 57.9038 225.289 57.4418 225.604C56.9798 225.912 56.4518 226.066 55.8578 226.066ZM55.8578 225.34C56.3125 225.34 56.7085 225.219 57.0458 224.977C57.3831 224.728 57.6471 224.368 57.8378 223.899C58.0285 223.422 58.1238 222.839 58.1238 222.15C58.1238 221.461 58.0285 220.881 57.8378 220.412C57.6471 219.935 57.3831 219.576 57.0458 219.334C56.7085 219.085 56.3125 218.96 55.8578 218.96C55.4178 218.96 55.0255 219.085 54.6808 219.334C54.3362 219.576 54.0685 219.935 53.8778 220.412C53.6872 220.881 53.5918 221.461 53.5918 222.15C53.5918 222.839 53.6872 223.422 53.8778 223.899C54.0685 224.368 54.3362 224.728 54.6808 224.977C55.0255 225.219 55.4178 225.34 55.8578 225.34Z" fill="#444955"/>
<path d="M48.5953 263.32V252.98H49.1453V263.32H48.5953ZM48.8263 262.066C48.2543 262.066 47.7043 261.974 47.1763 261.791C46.6556 261.6 46.2523 261.358 45.9663 261.065L46.2853 260.438C46.5566 260.702 46.9196 260.926 47.3743 261.109C47.8363 261.285 48.3203 261.373 48.8263 261.373C49.3103 261.373 49.7026 261.314 50.0033 261.197C50.3113 261.072 50.5349 260.907 50.6743 260.702C50.8209 260.497 50.8943 260.269 50.8943 260.02C50.8943 259.719 50.8063 259.477 50.6303 259.294C50.4616 259.111 50.238 258.968 49.9593 258.865C49.6806 258.755 49.3726 258.66 49.0353 258.579C48.698 258.498 48.3606 258.414 48.0233 258.326C47.686 258.231 47.3743 258.106 47.0883 257.952C46.8096 257.798 46.5823 257.596 46.4063 257.347C46.2376 257.09 46.1533 256.757 46.1533 256.346C46.1533 255.965 46.2523 255.616 46.4503 255.301C46.6556 254.978 46.9673 254.722 47.3853 254.531C47.8033 254.333 48.3386 254.234 48.9913 254.234C49.424 254.234 49.853 254.296 50.2783 254.421C50.7036 254.538 51.0703 254.703 51.3783 254.916L51.1033 255.565C50.7733 255.345 50.4213 255.184 50.0473 255.081C49.6806 254.978 49.325 254.927 48.9803 254.927C48.5183 254.927 48.137 254.989 47.8363 255.114C47.5356 255.239 47.312 255.407 47.1653 255.62C47.026 255.825 46.9563 256.06 46.9563 256.324C46.9563 256.625 47.0406 256.867 47.2093 257.05C47.3853 257.233 47.6126 257.376 47.8913 257.479C48.1773 257.582 48.489 257.673 48.8263 257.754C49.1636 257.835 49.4973 257.923 49.8273 258.018C50.1646 258.113 50.4726 258.238 50.7513 258.392C51.0373 258.539 51.2646 258.737 51.4333 258.986C51.6093 259.235 51.6973 259.562 51.6973 259.965C51.6973 260.339 51.5946 260.687 51.3893 261.01C51.1839 261.325 50.8686 261.582 50.4433 261.78C50.0253 261.971 49.4863 262.066 48.8263 262.066ZM55.8578 262.066C55.2638 262.066 54.7358 261.912 54.2738 261.604C53.8118 261.289 53.4488 260.841 53.1848 260.262C52.9208 259.675 52.7888 258.971 52.7888 258.15C52.7888 257.329 52.9208 256.628 53.1848 256.049C53.4488 255.462 53.8118 255.015 54.2738 254.707C54.7358 254.392 55.2638 254.234 55.8578 254.234C56.4518 254.234 56.9798 254.392 57.4418 254.707C57.9038 255.015 58.2668 255.462 58.5308 256.049C58.8021 256.628 58.9378 257.329 58.9378 258.15C58.9378 258.971 58.8021 259.675 58.5308 260.262C58.2668 260.841 57.9038 261.289 57.4418 261.604C56.9798 261.912 56.4518 262.066 55.8578 262.066ZM55.8578 261.34C56.3125 261.34 56.7085 261.219 57.0458 260.977C57.3831 260.728 57.6471 260.368 57.8378 259.899C58.0285 259.422 58.1238 258.839 58.1238 258.15C58.1238 257.461 58.0285 256.881 57.8378 256.412C57.6471 255.935 57.3831 255.576 57.0458 255.334C56.7085 255.085 56.3125 254.96 55.8578 254.96C55.4178 254.96 55.0255 255.085 54.6808 255.334C54.3362 255.576 54.0685 255.935 53.8778 256.412C53.6872 256.881 53.5918 257.461 53.5918 258.15C53.5918 258.839 53.6872 259.422 53.8778 259.899C54.0685 260.368 54.3362 260.728 54.6808 260.977C55.0255 261.219 55.4178 261.34 55.8578 261.34Z" fill="#444955"/>
<path d="M64.5 115H71.5M64.5 43H72M64.5 79H71.5M64.5 151H71.5M64.5 186H71.5M64.5 222H71.5M68.5 240H71.5M68.5 249H71.5M68.5 231H71.5M64.5 258H71.5" stroke="#444955" stroke-width="0.999993"/>
<g clip-path="url(#clip0_5140_2832)">
<path d="M71.5 222H344.5" stroke="#DADBDD" stroke-width="0.999993" stroke-dasharray="3 3"/>
<path d="M71.5 258H344.5" stroke="#DADBDD" stroke-width="0.999993" stroke-dasharray="3 3"/>
<path d="M71.5 79H344.5" stroke="#DADBDD" stroke-width="0.999993" stroke-dasharray="3 3"/>
<path d="M71.5 186H341.498" stroke="#DADBDD" stroke-width="0.999993" stroke-dasharray="3 3"/>
<path d="M71.5 151H341.498" stroke="#DADBDD" stroke-width="0.999993" stroke-dasharray="3 3"/>
<path d="M71.5 115H341.498" stroke="#DADBDD" stroke-width="0.999993" stroke-dasharray="3 3"/>
<path d="M71.5 43H341.498" stroke="#DADBDD" stroke-width="0.999993" stroke-dasharray="3 3"/>
</g>
<path d="M71.5 258H71V258.5H71.5V258ZM347.5 258V257.5H71.5V258V258.5H347.5V258ZM71.5 258H72V43H71.5H71V258H71.5Z" fill="#444955"/>
<path d="M83 302C83 299.791 84.7909 298 87 298H95C97.2091 298 99 299.791 99 302V310C99 312.209 97.2091 314 95 314H87C84.7909 314 83 312.209 83 310V302Z" fill="#91D5C0"/>
<path d="M107.927 310.084C107.783 310.084 107.667 310.052 107.579 309.988C107.499 309.924 107.451 309.836 107.435 309.724C107.419 309.612 107.443 309.488 107.507 309.352L110.783 301.936C110.855 301.768 110.947 301.648 111.059 301.576C111.171 301.496 111.295 301.456 111.431 301.456C111.567 301.456 111.687 301.496 111.791 301.576C111.903 301.648 111.999 301.768 112.079 301.936L115.355 309.352C115.419 309.488 115.443 309.616 115.427 309.736C115.419 309.848 115.375 309.936 115.295 310C115.215 310.056 115.103 310.084 114.959 310.084C114.799 310.084 114.671 310.044 114.575 309.964C114.479 309.876 114.395 309.752 114.323 309.592L113.471 307.6L113.987 307.888H108.851L109.367 307.6L108.515 309.592C108.443 309.768 108.363 309.896 108.275 309.976C108.187 310.048 108.071 310.084 107.927 310.084ZM111.407 302.8L109.535 307.228L109.247 306.976H113.591L113.315 307.228L111.431 302.8H111.407ZM117.268 310.084C117.1 310.084 116.968 310.036 116.872 309.94C116.776 309.844 116.728 309.704 116.728 309.52V304.624C116.728 304.44 116.776 304.304 116.872 304.216C116.968 304.12 117.1 304.072 117.268 304.072C117.436 304.072 117.564 304.12 117.652 304.216C117.748 304.304 117.796 304.44 117.796 304.624V305.644L117.664 305.428C117.816 304.988 118.06 304.648 118.396 304.408C118.74 304.168 119.148 304.048 119.62 304.048C120.116 304.048 120.516 304.168 120.82 304.408C121.124 304.64 121.328 304.996 121.432 305.476H121.264C121.408 305.036 121.664 304.688 122.032 304.432C122.408 304.176 122.844 304.048 123.34 304.048C123.78 304.048 124.14 304.136 124.42 304.312C124.708 304.48 124.924 304.736 125.068 305.08C125.212 305.416 125.284 305.848 125.284 306.376V309.52C125.284 309.704 125.236 309.844 125.14 309.94C125.044 310.036 124.912 310.084 124.744 310.084C124.568 310.084 124.432 310.036 124.336 309.94C124.24 309.844 124.192 309.704 124.192 309.52V306.424C124.192 305.912 124.104 305.536 123.928 305.296C123.752 305.056 123.456 304.936 123.04 304.936C122.584 304.936 122.22 305.096 121.948 305.416C121.684 305.728 121.552 306.16 121.552 306.712V309.52C121.552 309.704 121.504 309.844 121.408 309.94C121.32 310.036 121.188 310.084 121.012 310.084C120.836 310.084 120.7 310.036 120.604 309.94C120.508 309.844 120.46 309.704 120.46 309.52V306.424C120.46 305.912 120.372 305.536 120.196 305.296C120.02 305.056 119.724 304.936 119.308 304.936C118.852 304.936 118.488 305.096 118.216 305.416C117.952 305.728 117.82 306.16 117.82 306.712V309.52C117.82 309.896 117.636 310.084 117.268 310.084ZM129.524 310.108C128.948 310.108 128.448 309.984 128.024 309.736C127.6 309.488 127.272 309.136 127.04 308.68C126.808 308.224 126.692 307.688 126.692 307.072C126.692 306.608 126.756 306.192 126.884 305.824C127.02 305.448 127.212 305.128 127.46 304.864C127.708 304.6 128.004 304.4 128.348 304.264C128.7 304.12 129.092 304.048 129.524 304.048C130.1 304.048 130.6 304.172 131.024 304.42C131.448 304.668 131.776 305.02 132.008 305.476C132.24 305.924 132.356 306.456 132.356 307.072C132.356 307.536 132.288 307.956 132.152 308.332C132.024 308.708 131.836 309.028 131.588 309.292C131.34 309.556 131.04 309.76 130.688 309.904C130.344 310.04 129.956 310.108 129.524 310.108ZM129.524 309.244C129.876 309.244 130.18 309.16 130.436 308.992C130.7 308.824 130.9 308.58 131.036 308.26C131.18 307.94 131.252 307.544 131.252 307.072C131.252 306.368 131.096 305.832 130.784 305.464C130.472 305.096 130.052 304.912 129.524 304.912C129.18 304.912 128.876 304.996 128.612 305.164C128.356 305.324 128.156 305.564 128.012 305.884C127.868 306.204 127.796 306.6 127.796 307.072C127.796 307.776 127.952 308.316 128.264 308.692C128.584 309.06 129.004 309.244 129.524 309.244ZM135.843 310.108C135.371 310.108 134.975 310.02 134.655 309.844C134.343 309.668 134.111 309.408 133.959 309.064C133.807 308.72 133.731 308.288 133.731 307.768V304.624C133.731 304.44 133.775 304.304 133.863 304.216C133.959 304.12 134.095 304.072 134.271 304.072C134.447 304.072 134.583 304.12 134.679 304.216C134.775 304.304 134.823 304.44 134.823 304.624V307.768C134.823 308.264 134.923 308.632 135.123 308.872C135.323 309.104 135.639 309.22 136.071 309.22C136.551 309.22 136.939 309.06 137.235 308.74C137.539 308.42 137.691 307.996 137.691 307.468V304.624C137.691 304.44 137.735 304.304 137.823 304.216C137.919 304.12 138.055 304.072 138.231 304.072C138.407 304.072 138.543 304.12 138.639 304.216C138.735 304.304 138.783 304.44 138.783 304.624V309.52C138.783 309.896 138.607 310.084 138.255 310.084C138.079 310.084 137.943 310.036 137.847 309.94C137.759 309.844 137.715 309.704 137.715 309.52V308.476L137.871 308.68C137.711 309.144 137.451 309.5 137.091 309.748C136.739 309.988 136.323 310.108 135.843 310.108ZM141.08 310.084C140.912 310.084 140.78 310.036 140.684 309.94C140.588 309.844 140.54 309.704 140.54 309.52V304.624C140.54 304.44 140.588 304.304 140.684 304.216C140.78 304.12 140.912 304.072 141.08 304.072C141.248 304.072 141.376 304.12 141.464 304.216C141.56 304.304 141.608 304.44 141.608 304.624V305.608L141.476 305.428C141.644 304.972 141.916 304.628 142.292 304.396C142.676 304.164 143.112 304.048 143.6 304.048C144.072 304.048 144.46 304.132 144.764 304.3C145.068 304.468 145.296 304.724 145.448 305.068C145.6 305.412 145.676 305.848 145.676 306.376V309.52C145.676 309.704 145.628 309.844 145.532 309.94C145.444 310.036 145.312 310.084 145.136 310.084C144.96 310.084 144.824 310.036 144.728 309.94C144.632 309.844 144.584 309.704 144.584 309.52V306.436C144.584 305.916 144.484 305.536 144.284 305.296C144.084 305.056 143.764 304.936 143.324 304.936C142.812 304.936 142.4 305.096 142.088 305.416C141.784 305.728 141.632 306.152 141.632 306.688V309.52C141.632 309.896 141.448 310.084 141.08 310.084ZM149.831 310.108C149.359 310.108 148.963 310.024 148.643 309.856C148.331 309.688 148.095 309.444 147.935 309.124C147.783 308.804 147.707 308.412 147.707 307.948V304.996H146.939C146.795 304.996 146.683 304.96 146.603 304.888C146.523 304.808 146.483 304.704 146.483 304.576C146.483 304.44 146.523 304.336 146.603 304.264C146.683 304.192 146.795 304.156 146.939 304.156H147.707V302.848C147.707 302.664 147.755 302.528 147.851 302.44C147.947 302.344 148.083 302.296 148.259 302.296C148.435 302.296 148.567 302.344 148.655 302.44C148.751 302.528 148.799 302.664 148.799 302.848V304.156H150.251C150.403 304.156 150.519 304.192 150.599 304.264C150.679 304.336 150.719 304.44 150.719 304.576C150.719 304.704 150.679 304.808 150.599 304.888C150.519 304.96 150.403 304.996 150.251 304.996H148.799V307.852C148.799 308.292 148.891 308.624 149.075 308.848C149.259 309.072 149.563 309.184 149.987 309.184C150.139 309.184 150.267 309.172 150.371 309.148C150.475 309.116 150.567 309.1 150.647 309.1C150.719 309.092 150.779 309.116 150.827 309.172C150.883 309.228 150.911 309.332 150.911 309.484C150.911 309.596 150.891 309.7 150.851 309.796C150.819 309.884 150.751 309.944 150.647 309.976C150.551 310.008 150.423 310.036 150.263 310.06C150.103 310.092 149.959 310.108 149.831 310.108ZM157.753 310.108C157.377 310.108 157.013 310.076 156.661 310.012C156.309 309.956 155.977 309.868 155.665 309.748C155.353 309.628 155.073 309.48 154.825 309.304C154.721 309.232 154.645 309.144 154.597 309.04C154.557 308.936 154.545 308.836 154.561 308.74C154.585 308.636 154.629 308.548 154.693 308.476C154.765 308.404 154.849 308.36 154.945 308.344C155.041 308.328 155.145 308.36 155.257 308.44C155.625 308.688 156.009 308.868 156.409 308.98C156.817 309.092 157.265 309.148 157.753 309.148C158.457 309.148 158.973 309.02 159.301 308.764C159.637 308.508 159.805 308.172 159.805 307.756C159.805 307.412 159.685 307.144 159.445 306.952C159.205 306.752 158.801 306.596 158.233 306.484L156.961 306.22C156.209 306.06 155.645 305.796 155.269 305.428C154.901 305.06 154.717 304.568 154.717 303.952C154.717 303.576 154.793 303.236 154.945 302.932C155.097 302.62 155.313 302.352 155.593 302.128C155.873 301.904 156.201 301.732 156.577 301.612C156.961 301.492 157.385 301.432 157.849 301.432C158.345 301.432 158.809 301.5 159.241 301.636C159.681 301.772 160.077 301.972 160.429 302.236C160.525 302.308 160.589 302.396 160.621 302.5C160.653 302.596 160.657 302.692 160.633 302.788C160.617 302.884 160.573 302.964 160.501 303.028C160.437 303.092 160.353 303.128 160.249 303.136C160.153 303.144 160.045 303.108 159.925 303.028C159.605 302.804 159.277 302.644 158.941 302.548C158.605 302.444 158.237 302.392 157.837 302.392C157.429 302.392 157.073 302.456 156.769 302.584C156.473 302.712 156.241 302.892 156.073 303.124C155.913 303.348 155.833 303.612 155.833 303.916C155.833 304.284 155.945 304.572 156.169 304.78C156.393 304.988 156.769 305.148 157.297 305.26L158.557 305.512C159.357 305.68 159.949 305.94 160.333 306.292C160.725 306.636 160.921 307.1 160.921 307.684C160.921 308.052 160.845 308.384 160.693 308.68C160.549 308.976 160.341 309.232 160.069 309.448C159.797 309.656 159.465 309.82 159.073 309.94C158.681 310.052 158.241 310.108 157.753 310.108ZM162.795 312.244C162.627 312.244 162.495 312.196 162.399 312.1C162.303 312.004 162.255 311.868 162.255 311.692V304.624C162.255 304.44 162.303 304.304 162.399 304.216C162.495 304.12 162.627 304.072 162.795 304.072C162.971 304.072 163.103 304.12 163.191 304.216C163.287 304.304 163.335 304.44 163.335 304.624V305.716L163.203 305.5C163.331 305.06 163.583 304.708 163.959 304.444C164.335 304.18 164.787 304.048 165.315 304.048C165.835 304.048 166.287 304.172 166.671 304.42C167.055 304.66 167.355 305.008 167.571 305.464C167.787 305.912 167.895 306.448 167.895 307.072C167.895 307.688 167.787 308.228 167.571 308.692C167.363 309.148 167.063 309.5 166.671 309.748C166.287 309.988 165.835 310.108 165.315 310.108C164.795 310.108 164.347 309.976 163.971 309.712C163.595 309.448 163.343 309.1 163.215 308.668H163.347V311.692C163.347 311.868 163.299 312.004 163.203 312.1C163.107 312.196 162.971 312.244 162.795 312.244ZM165.063 309.244C165.407 309.244 165.707 309.16 165.963 308.992C166.227 308.824 166.431 308.58 166.575 308.26C166.719 307.94 166.791 307.544 166.791 307.072C166.791 306.368 166.635 305.832 166.323 305.464C166.011 305.096 165.591 304.912 165.063 304.912C164.711 304.912 164.403 304.996 164.139 305.164C163.883 305.324 163.683 305.564 163.539 305.884C163.403 306.204 163.335 306.6 163.335 307.072C163.335 307.776 163.491 308.316 163.803 308.692C164.115 309.06 164.535 309.244 165.063 309.244ZM171.998 310.108C171.366 310.108 170.822 309.988 170.366 309.748C169.918 309.5 169.57 309.152 169.322 308.704C169.074 308.248 168.95 307.712 168.95 307.096C168.95 306.488 169.07 305.956 169.31 305.5C169.558 305.044 169.894 304.688 170.318 304.432C170.75 304.176 171.242 304.048 171.794 304.048C172.186 304.048 172.538 304.116 172.85 304.252C173.17 304.38 173.442 304.568 173.666 304.816C173.89 305.064 174.058 305.368 174.17 305.728C174.29 306.08 174.35 306.48 174.35 306.928C174.35 307.056 174.31 307.156 174.23 307.228C174.158 307.292 174.05 307.324 173.906 307.324H169.802V306.628H173.63L173.426 306.796C173.426 306.38 173.362 306.028 173.234 305.74C173.114 305.444 172.934 305.22 172.694 305.068C172.462 304.916 172.17 304.84 171.818 304.84C171.434 304.84 171.106 304.932 170.834 305.116C170.562 305.292 170.354 305.544 170.21 305.872C170.066 306.192 169.994 306.564 169.994 306.988V307.06C169.994 307.78 170.166 308.324 170.51 308.692C170.854 309.06 171.35 309.244 171.998 309.244C172.254 309.244 172.514 309.212 172.778 309.148C173.05 309.084 173.31 308.968 173.558 308.8C173.678 308.728 173.786 308.696 173.882 308.704C173.986 308.704 174.07 308.736 174.134 308.8C174.198 308.856 174.238 308.928 174.254 309.016C174.27 309.096 174.258 309.184 174.218 309.28C174.178 309.376 174.102 309.46 173.99 309.532C173.726 309.716 173.41 309.86 173.042 309.964C172.682 310.06 172.334 310.108 171.998 310.108ZM176.248 310.084C176.08 310.084 175.948 310.036 175.852 309.94C175.756 309.844 175.708 309.704 175.708 309.52V304.624C175.708 304.44 175.756 304.304 175.852 304.216C175.948 304.12 176.08 304.072 176.248 304.072C176.416 304.072 176.544 304.12 176.632 304.216C176.728 304.304 176.776 304.44 176.776 304.624V305.608L176.644 305.428C176.812 304.972 177.084 304.628 177.46 304.396C177.844 304.164 178.28 304.048 178.768 304.048C179.24 304.048 179.628 304.132 179.932 304.3C180.236 304.468 180.464 304.724 180.616 305.068C180.768 305.412 180.844 305.848 180.844 306.376V309.52C180.844 309.704 180.796 309.844 180.7 309.94C180.612 310.036 180.48 310.084 180.304 310.084C180.128 310.084 179.992 310.036 179.896 309.94C179.8 309.844 179.752 309.704 179.752 309.52V306.436C179.752 305.916 179.652 305.536 179.452 305.296C179.252 305.056 178.932 304.936 178.492 304.936C177.98 304.936 177.568 305.096 177.256 305.416C176.952 305.728 176.8 306.152 176.8 306.688V309.52C176.8 309.896 176.616 310.084 176.248 310.084ZM184.999 310.108C184.527 310.108 184.131 310.024 183.811 309.856C183.499 309.688 183.263 309.444 183.103 309.124C182.951 308.804 182.875 308.412 182.875 307.948V304.996H182.107C181.963 304.996 181.851 304.96 181.771 304.888C181.691 304.808 181.651 304.704 181.651 304.576C181.651 304.44 181.691 304.336 181.771 304.264C181.851 304.192 181.963 304.156 182.107 304.156H182.875V302.848C182.875 302.664 182.923 302.528 183.019 302.44C183.115 302.344 183.251 302.296 183.427 302.296C183.603 302.296 183.735 302.344 183.823 302.44C183.919 302.528 183.967 302.664 183.967 302.848V304.156H185.419C185.571 304.156 185.687 304.192 185.767 304.264C185.847 304.336 185.887 304.44 185.887 304.576C185.887 304.704 185.847 304.808 185.767 304.888C185.687 304.96 185.571 304.996 185.419 304.996H183.967V307.852C183.967 308.292 184.059 308.624 184.243 308.848C184.427 309.072 184.731 309.184 185.155 309.184C185.307 309.184 185.435 309.172 185.539 309.148C185.643 309.116 185.735 309.1 185.815 309.1C185.887 309.092 185.947 309.116 185.995 309.172C186.051 309.228 186.079 309.332 186.079 309.484C186.079 309.596 186.059 309.7 186.019 309.796C185.987 309.884 185.919 309.944 185.815 309.976C185.719 310.008 185.591 310.036 185.431 310.06C185.271 310.092 185.127 310.108 184.999 310.108Z" fill="#444955"/>
<rect x="210" y="305" width="16" height="2" fill="#A07AD9"/>
<path d="M237.796 310.108C237.42 310.108 237.056 310.076 236.704 310.012C236.352 309.956 236.02 309.868 235.708 309.748C235.396 309.628 235.116 309.48 234.868 309.304C234.764 309.232 234.688 309.144 234.64 309.04C234.6 308.936 234.588 308.836 234.604 308.74C234.628 308.636 234.672 308.548 234.736 308.476C234.808 308.404 234.892 308.36 234.988 308.344C235.084 308.328 235.188 308.36 235.3 308.44C235.668 308.688 236.052 308.868 236.452 308.98C236.86 309.092 237.308 309.148 237.796 309.148C238.5 309.148 239.016 309.02 239.344 308.764C239.68 308.508 239.848 308.172 239.848 307.756C239.848 307.412 239.728 307.144 239.488 306.952C239.248 306.752 238.844 306.596 238.276 306.484L237.004 306.22C236.252 306.06 235.688 305.796 235.312 305.428C234.944 305.06 234.76 304.568 234.76 303.952C234.76 303.576 234.836 303.236 234.988 302.932C235.14 302.62 235.356 302.352 235.636 302.128C235.916 301.904 236.244 301.732 236.62 301.612C237.004 301.492 237.428 301.432 237.892 301.432C238.388 301.432 238.852 301.5 239.284 301.636C239.724 301.772 240.12 301.972 240.472 302.236C240.568 302.308 240.632 302.396 240.664 302.5C240.696 302.596 240.7 302.692 240.676 302.788C240.66 302.884 240.616 302.964 240.544 303.028C240.48 303.092 240.396 303.128 240.292 303.136C240.196 303.144 240.088 303.108 239.968 303.028C239.648 302.804 239.32 302.644 238.984 302.548C238.648 302.444 238.28 302.392 237.88 302.392C237.472 302.392 237.116 302.456 236.812 302.584C236.516 302.712 236.284 302.892 236.116 303.124C235.956 303.348 235.876 303.612 235.876 303.916C235.876 304.284 235.988 304.572 236.212 304.78C236.436 304.988 236.812 305.148 237.34 305.26L238.6 305.512C239.4 305.68 239.992 305.94 240.376 306.292C240.768 306.636 240.964 307.1 240.964 307.684C240.964 308.052 240.888 308.384 240.736 308.68C240.592 308.976 240.384 309.232 240.112 309.448C239.84 309.656 239.508 309.82 239.116 309.94C238.724 310.052 238.284 310.108 237.796 310.108ZM244.998 310.108C244.366 310.108 243.822 309.988 243.366 309.748C242.918 309.5 242.57 309.152 242.322 308.704C242.074 308.248 241.95 307.712 241.95 307.096C241.95 306.488 242.07 305.956 242.31 305.5C242.558 305.044 242.894 304.688 243.318 304.432C243.75 304.176 244.242 304.048 244.794 304.048C245.186 304.048 245.538 304.116 245.85 304.252C246.17 304.38 246.442 304.568 246.666 304.816C246.89 305.064 247.058 305.368 247.17 305.728C247.29 306.08 247.35 306.48 247.35 306.928C247.35 307.056 247.31 307.156 247.23 307.228C247.158 307.292 247.05 307.324 246.906 307.324H242.802V306.628H246.63L246.426 306.796C246.426 306.38 246.362 306.028 246.234 305.74C246.114 305.444 245.934 305.22 245.694 305.068C245.462 304.916 245.17 304.84 244.818 304.84C244.434 304.84 244.106 304.932 243.834 305.116C243.562 305.292 243.354 305.544 243.21 305.872C243.066 306.192 242.994 306.564 242.994 306.988V307.06C242.994 307.78 243.166 308.324 243.51 308.692C243.854 309.06 244.35 309.244 244.998 309.244C245.254 309.244 245.514 309.212 245.778 309.148C246.05 309.084 246.31 308.968 246.558 308.8C246.678 308.728 246.786 308.696 246.882 308.704C246.986 308.704 247.07 308.736 247.134 308.8C247.198 308.856 247.238 308.928 247.254 309.016C247.27 309.096 247.258 309.184 247.218 309.28C247.178 309.376 247.102 309.46 246.99 309.532C246.726 309.716 246.41 309.86 246.042 309.964C245.682 310.06 245.334 310.108 244.998 310.108ZM251.12 310.108C250.648 310.108 250.252 310.024 249.932 309.856C249.62 309.688 249.384 309.444 249.224 309.124C249.072 308.804 248.996 308.412 248.996 307.948V304.996H248.228C248.084 304.996 247.972 304.96 247.892 304.888C247.812 304.808 247.772 304.704 247.772 304.576C247.772 304.44 247.812 304.336 247.892 304.264C247.972 304.192 248.084 304.156 248.228 304.156H248.996V302.848C248.996 302.664 249.044 302.528 249.14 302.44C249.236 302.344 249.372 302.296 249.548 302.296C249.724 302.296 249.856 302.344 249.944 302.44C250.04 302.528 250.088 302.664 250.088 302.848V304.156H251.54C251.692 304.156 251.808 304.192 251.888 304.264C251.968 304.336 252.008 304.44 252.008 304.576C252.008 304.704 251.968 304.808 251.888 304.888C251.808 304.96 251.692 304.996 251.54 304.996H250.088V307.852C250.088 308.292 250.18 308.624 250.364 308.848C250.548 309.072 250.852 309.184 251.276 309.184C251.428 309.184 251.556 309.172 251.66 309.148C251.764 309.116 251.856 309.1 251.936 309.1C252.008 309.092 252.068 309.116 252.116 309.172C252.172 309.228 252.2 309.332 252.2 309.484C252.2 309.596 252.18 309.7 252.14 309.796C252.108 309.884 252.04 309.944 251.936 309.976C251.84 310.008 251.712 310.036 251.552 310.06C251.392 310.092 251.248 310.108 251.12 310.108ZM256.87 310C256.678 310 256.53 309.948 256.426 309.844C256.322 309.74 256.27 309.592 256.27 309.4V302.14C256.27 301.948 256.322 301.8 256.426 301.696C256.53 301.592 256.678 301.54 256.87 301.54H259.714C260.298 301.54 260.794 301.628 261.202 301.804C261.618 301.98 261.934 302.232 262.15 302.56C262.366 302.888 262.474 303.284 262.474 303.748C262.474 304.268 262.322 304.704 262.018 305.056C261.714 305.408 261.298 305.644 260.77 305.764V305.584C261.362 305.656 261.826 305.876 262.162 306.244C262.506 306.604 262.678 307.076 262.678 307.66C262.678 308.412 262.43 308.992 261.934 309.4C261.446 309.8 260.754 310 259.858 310H256.87ZM257.35 309.124H259.738C260.362 309.124 260.826 309.004 261.13 308.764C261.434 308.516 261.586 308.14 261.586 307.636C261.586 307.132 261.434 306.76 261.13 306.52C260.826 306.28 260.362 306.16 259.738 306.16H257.35V309.124ZM257.35 305.272H259.546C260.154 305.272 260.61 305.152 260.914 304.912C261.226 304.664 261.382 304.308 261.382 303.844C261.382 303.38 261.226 303.028 260.914 302.788C260.61 302.54 260.154 302.416 259.546 302.416H257.35V305.272ZM266.359 310.108C265.887 310.108 265.491 310.02 265.171 309.844C264.859 309.668 264.627 309.408 264.475 309.064C264.323 308.72 264.247 308.288 264.247 307.768V304.624C264.247 304.44 264.291 304.304 264.379 304.216C264.475 304.12 264.611 304.072 264.787 304.072C264.963 304.072 265.099 304.12 265.195 304.216C265.291 304.304 265.339 304.44 265.339 304.624V307.768C265.339 308.264 265.439 308.632 265.639 308.872C265.839 309.104 266.155 309.22 266.587 309.22C267.067 309.22 267.455 309.06 267.751 308.74C268.055 308.42 268.207 307.996 268.207 307.468V304.624C268.207 304.44 268.251 304.304 268.339 304.216C268.435 304.12 268.571 304.072 268.747 304.072C268.923 304.072 269.059 304.12 269.155 304.216C269.251 304.304 269.299 304.44 269.299 304.624V309.52C269.299 309.896 269.123 310.084 268.771 310.084C268.595 310.084 268.459 310.036 268.363 309.94C268.275 309.844 268.231 309.704 268.231 309.52V308.476L268.387 308.68C268.227 309.144 267.967 309.5 267.607 309.748C267.255 309.988 266.839 310.108 266.359 310.108ZM273.288 310.108C272.776 310.108 272.324 309.988 271.932 309.748C271.548 309.5 271.248 309.148 271.032 308.692C270.816 308.228 270.708 307.688 270.708 307.072C270.708 306.448 270.812 305.912 271.02 305.464C271.236 305.008 271.536 304.66 271.92 304.42C272.312 304.172 272.768 304.048 273.288 304.048C273.808 304.048 274.256 304.18 274.632 304.444C275.008 304.7 275.26 305.044 275.388 305.476H275.256V302.008C275.256 301.824 275.3 301.688 275.388 301.6C275.484 301.504 275.62 301.456 275.796 301.456C275.972 301.456 276.108 301.504 276.204 301.6C276.3 301.688 276.348 301.824 276.348 302.008V309.52C276.348 309.704 276.3 309.844 276.204 309.94C276.108 310.036 275.972 310.084 275.796 310.084C275.628 310.084 275.496 310.036 275.4 309.94C275.304 309.844 275.256 309.704 275.256 309.52V308.428L275.388 308.644C275.268 309.092 275.016 309.448 274.632 309.712C274.256 309.976 273.808 310.108 273.288 310.108ZM273.54 309.244C273.892 309.244 274.196 309.16 274.452 308.992C274.716 308.824 274.916 308.58 275.052 308.26C275.196 307.94 275.268 307.544 275.268 307.072C275.268 306.368 275.112 305.832 274.8 305.464C274.488 305.096 274.068 304.912 273.54 304.912C273.196 304.912 272.892 304.996 272.628 305.164C272.372 305.324 272.172 305.564 272.028 305.884C271.884 306.204 271.812 306.6 271.812 307.072C271.812 307.776 271.968 308.316 272.28 308.692C272.6 309.06 273.02 309.244 273.54 309.244ZM280.727 312.268C280.295 312.268 279.875 312.22 279.467 312.124C279.067 312.028 278.703 311.88 278.375 311.68C278.271 311.616 278.199 311.54 278.159 311.452C278.127 311.372 278.119 311.288 278.135 311.2C278.159 311.112 278.199 311.032 278.255 310.96C278.319 310.896 278.391 310.852 278.471 310.828C278.559 310.812 278.647 310.832 278.735 310.888C279.087 311.088 279.423 311.224 279.743 311.296C280.063 311.368 280.367 311.404 280.655 311.404C281.223 311.404 281.647 311.256 281.927 310.96C282.215 310.672 282.359 310.248 282.359 309.688V308.392H282.467C282.355 308.84 282.103 309.196 281.711 309.46C281.327 309.724 280.879 309.856 280.367 309.856C279.839 309.856 279.379 309.736 278.987 309.496C278.595 309.248 278.291 308.908 278.075 308.476C277.859 308.036 277.751 307.528 277.751 306.952C277.751 306.512 277.811 306.116 277.931 305.764C278.059 305.404 278.235 305.1 278.459 304.852C278.691 304.596 278.967 304.4 279.287 304.264C279.607 304.12 279.967 304.048 280.367 304.048C280.887 304.048 281.339 304.18 281.723 304.444C282.107 304.708 282.355 305.064 282.467 305.512L282.335 305.68V304.624C282.335 304.44 282.383 304.304 282.479 304.216C282.575 304.12 282.711 304.072 282.887 304.072C283.055 304.072 283.187 304.12 283.283 304.216C283.379 304.304 283.427 304.44 283.427 304.624V309.544C283.427 310.448 283.195 311.128 282.731 311.584C282.275 312.04 281.607 312.268 280.727 312.268ZM280.607 308.992C280.967 308.992 281.275 308.912 281.531 308.752C281.795 308.584 281.995 308.348 282.131 308.044C282.275 307.732 282.347 307.368 282.347 306.952C282.347 306.32 282.191 305.824 281.879 305.464C281.567 305.096 281.143 304.912 280.607 304.912C280.247 304.912 279.935 304.996 279.671 305.164C279.415 305.324 279.215 305.556 279.071 305.86C278.927 306.164 278.855 306.528 278.855 306.952C278.855 307.576 279.011 308.072 279.323 308.44C279.643 308.808 280.071 308.992 280.607 308.992ZM287.877 310.108C287.245 310.108 286.701 309.988 286.245 309.748C285.797 309.5 285.449 309.152 285.201 308.704C284.953 308.248 284.829 307.712 284.829 307.096C284.829 306.488 284.949 305.956 285.189 305.5C285.437 305.044 285.773 304.688 286.197 304.432C286.629 304.176 287.121 304.048 287.673 304.048C288.065 304.048 288.417 304.116 288.729 304.252C289.049 304.38 289.321 304.568 289.545 304.816C289.769 305.064 289.937 305.368 290.049 305.728C290.169 306.08 290.229 306.48 290.229 306.928C290.229 307.056 290.189 307.156 290.109 307.228C290.037 307.292 289.929 307.324 289.785 307.324H285.681V306.628H289.509L289.305 306.796C289.305 306.38 289.241 306.028 289.113 305.74C288.993 305.444 288.813 305.22 288.573 305.068C288.341 304.916 288.049 304.84 287.697 304.84C287.313 304.84 286.985 304.932 286.713 305.116C286.441 305.292 286.233 305.544 286.089 305.872C285.945 306.192 285.873 306.564 285.873 306.988V307.06C285.873 307.78 286.045 308.324 286.389 308.692C286.733 309.06 287.229 309.244 287.877 309.244C288.133 309.244 288.393 309.212 288.657 309.148C288.929 309.084 289.189 308.968 289.437 308.8C289.557 308.728 289.665 308.696 289.761 308.704C289.865 308.704 289.949 308.736 290.013 308.8C290.077 308.856 290.117 308.928 290.133 309.016C290.149 309.096 290.137 309.184 290.097 309.28C290.057 309.376 289.981 309.46 289.869 309.532C289.605 309.716 289.289 309.86 288.921 309.964C288.561 310.06 288.213 310.108 287.877 310.108ZM293.999 310.108C293.527 310.108 293.131 310.024 292.811 309.856C292.499 309.688 292.263 309.444 292.103 309.124C291.951 308.804 291.875 308.412 291.875 307.948V304.996H291.107C290.963 304.996 290.851 304.96 290.771 304.888C290.691 304.808 290.651 304.704 290.651 304.576C290.651 304.44 290.691 304.336 290.771 304.264C290.851 304.192 290.963 304.156 291.107 304.156H291.875V302.848C291.875 302.664 291.923 302.528 292.019 302.44C292.115 302.344 292.251 302.296 292.427 302.296C292.603 302.296 292.735 302.344 292.823 302.44C292.919 302.528 292.967 302.664 292.967 302.848V304.156H294.419C294.571 304.156 294.687 304.192 294.767 304.264C294.847 304.336 294.887 304.44 294.887 304.576C294.887 304.704 294.847 304.808 294.767 304.888C294.687 304.96 294.571 304.996 294.419 304.996H292.967V307.852C292.967 308.292 293.059 308.624 293.243 308.848C293.427 309.072 293.731 309.184 294.155 309.184C294.307 309.184 294.435 309.172 294.539 309.148C294.643 309.116 294.735 309.1 294.815 309.1C294.887 309.092 294.947 309.116 294.995 309.172C295.051 309.228 295.079 309.332 295.079 309.484C295.079 309.596 295.059 309.7 295.019 309.796C294.987 309.884 294.919 309.944 294.815 309.976C294.719 310.008 294.591 310.036 294.431 310.06C294.271 310.092 294.127 310.108 293.999 310.108Z" fill="#444955"/>
<g clip-path="url(#clip1_5140_2832)">
<path d="M101.807 276.431C101.687 276.431 101.59 276.404 101.517 276.351C101.45 276.298 101.41 276.224 101.397 276.131C101.383 276.038 101.403 275.934 101.457 275.821L104.187 269.641C104.247 269.501 104.323 269.401 104.417 269.341C104.51 269.274 104.613 269.241 104.727 269.241C104.84 269.241 104.94 269.274 105.027 269.341C105.12 269.401 105.2 269.501 105.267 269.641L107.997 275.821C108.05 275.934 108.07 276.041 108.057 276.141C108.05 276.234 108.013 276.308 107.947 276.361C107.88 276.408 107.787 276.431 107.667 276.431C107.533 276.431 107.427 276.398 107.347 276.331C107.267 276.258 107.197 276.154 107.137 276.021L106.427 274.361L106.857 274.601H102.577L103.007 274.361L102.297 276.021C102.237 276.168 102.17 276.274 102.097 276.341C102.023 276.401 101.927 276.431 101.807 276.431ZM104.707 270.361L103.147 274.051L102.907 273.841H106.527L106.297 274.051L104.727 270.361H104.707ZM110.861 276.451C110.467 276.451 110.137 276.378 109.871 276.231C109.611 276.084 109.417 275.868 109.291 275.581C109.164 275.294 109.101 274.934 109.101 274.501V271.881C109.101 271.728 109.137 271.614 109.211 271.541C109.291 271.461 109.404 271.421 109.551 271.421C109.697 271.421 109.811 271.461 109.891 271.541C109.971 271.614 110.011 271.728 110.011 271.881V274.501C110.011 274.914 110.094 275.221 110.261 275.421C110.427 275.614 110.691 275.711 111.051 275.711C111.451 275.711 111.774 275.578 112.021 275.311C112.274 275.044 112.401 274.691 112.401 274.251V271.881C112.401 271.728 112.437 271.614 112.511 271.541C112.591 271.461 112.704 271.421 112.851 271.421C112.997 271.421 113.111 271.461 113.191 271.541C113.271 271.614 113.311 271.728 113.311 271.881V275.961C113.311 276.274 113.164 276.431 112.871 276.431C112.724 276.431 112.611 276.391 112.531 276.311C112.457 276.231 112.421 276.114 112.421 275.961V275.091L112.551 275.261C112.417 275.648 112.201 275.944 111.901 276.151C111.607 276.351 111.261 276.451 110.861 276.451ZM116.965 278.251C116.605 278.251 116.255 278.211 115.915 278.131C115.582 278.051 115.278 277.928 115.005 277.761C114.918 277.708 114.858 277.644 114.825 277.571C114.798 277.504 114.792 277.434 114.805 277.361C114.825 277.288 114.858 277.221 114.905 277.161C114.958 277.108 115.018 277.071 115.085 277.051C115.158 277.038 115.232 277.054 115.305 277.101C115.598 277.268 115.878 277.381 116.145 277.441C116.412 277.501 116.665 277.531 116.905 277.531C117.378 277.531 117.732 277.408 117.965 277.161C118.205 276.921 118.325 276.568 118.325 276.101V275.021H118.415C118.322 275.394 118.112 275.691 117.785 275.911C117.465 276.131 117.092 276.241 116.665 276.241C116.225 276.241 115.842 276.141 115.515 275.941C115.188 275.734 114.935 275.451 114.755 275.091C114.575 274.724 114.485 274.301 114.485 273.821C114.485 273.454 114.535 273.124 114.635 272.831C114.742 272.531 114.888 272.278 115.075 272.071C115.268 271.858 115.498 271.694 115.765 271.581C116.032 271.461 116.332 271.401 116.665 271.401C117.098 271.401 117.475 271.511 117.795 271.731C118.115 271.951 118.322 272.248 118.415 272.621L118.305 272.761V271.881C118.305 271.728 118.345 271.614 118.425 271.541C118.505 271.461 118.618 271.421 118.765 271.421C118.905 271.421 119.015 271.461 119.095 271.541C119.175 271.614 119.215 271.728 119.215 271.881V275.981C119.215 276.734 119.022 277.301 118.635 277.681C118.255 278.061 117.698 278.251 116.965 278.251ZM116.865 275.521C117.165 275.521 117.422 275.454 117.635 275.321C117.855 275.181 118.022 274.984 118.135 274.731C118.255 274.471 118.315 274.168 118.315 273.821C118.315 273.294 118.185 272.881 117.925 272.581C117.665 272.274 117.312 272.121 116.865 272.121C116.565 272.121 116.305 272.191 116.085 272.331C115.872 272.464 115.705 272.658 115.585 272.911C115.465 273.164 115.405 273.468 115.405 273.821C115.405 274.341 115.535 274.754 115.795 275.061C116.062 275.368 116.418 275.521 116.865 275.521Z" fill="#444955"/>
<path d="M94 171.51C94 169.301 95.7909 167.51 98 167.51H123C125.209 167.51 127 169.301 127 171.51V257.51H94V171.51Z" fill="#91D5C0"/>
<path d="M143.464 276.451C143.15 276.451 142.847 276.424 142.554 276.371C142.26 276.324 141.984 276.251 141.724 276.151C141.464 276.051 141.23 275.928 141.024 275.781C140.937 275.721 140.874 275.648 140.834 275.561C140.8 275.474 140.79 275.391 140.804 275.311C140.824 275.224 140.86 275.151 140.914 275.091C140.974 275.031 141.044 274.994 141.124 274.981C141.204 274.968 141.29 274.994 141.384 275.061C141.69 275.268 142.01 275.418 142.344 275.511C142.684 275.604 143.057 275.651 143.464 275.651C144.05 275.651 144.48 275.544 144.754 275.331C145.034 275.118 145.174 274.838 145.174 274.491C145.174 274.204 145.074 273.981 144.874 273.821C144.674 273.654 144.337 273.524 143.864 273.431L142.804 273.211C142.177 273.078 141.707 272.858 141.394 272.551C141.087 272.244 140.934 271.834 140.934 271.321C140.934 271.008 140.997 270.724 141.124 270.471C141.25 270.211 141.43 269.988 141.664 269.801C141.897 269.614 142.17 269.471 142.484 269.371C142.804 269.271 143.157 269.221 143.544 269.221C143.957 269.221 144.344 269.278 144.704 269.391C145.07 269.504 145.4 269.671 145.694 269.891C145.774 269.951 145.827 270.024 145.854 270.111C145.88 270.191 145.884 270.271 145.864 270.351C145.85 270.431 145.814 270.498 145.754 270.551C145.7 270.604 145.63 270.634 145.544 270.641C145.464 270.648 145.374 270.618 145.274 270.551C145.007 270.364 144.734 270.231 144.454 270.151C144.174 270.064 143.867 270.021 143.534 270.021C143.194 270.021 142.897 270.074 142.644 270.181C142.397 270.288 142.204 270.438 142.064 270.631C141.93 270.818 141.864 271.038 141.864 271.291C141.864 271.598 141.957 271.838 142.144 272.011C142.33 272.184 142.644 272.318 143.084 272.411L144.134 272.621C144.8 272.761 145.294 272.978 145.614 273.271C145.94 273.558 146.104 273.944 146.104 274.431C146.104 274.738 146.04 275.014 145.914 275.261C145.794 275.508 145.62 275.721 145.394 275.901C145.167 276.074 144.89 276.211 144.564 276.311C144.237 276.404 143.87 276.451 143.464 276.451ZM149.465 276.451C148.939 276.451 148.485 276.351 148.105 276.151C147.732 275.944 147.442 275.654 147.235 275.281C147.029 274.901 146.925 274.454 146.925 273.941C146.925 273.434 147.025 272.991 147.225 272.611C147.432 272.231 147.712 271.934 148.065 271.721C148.425 271.508 148.835 271.401 149.295 271.401C149.622 271.401 149.915 271.458 150.175 271.571C150.442 271.678 150.669 271.834 150.855 272.041C151.042 272.248 151.182 272.501 151.275 272.801C151.375 273.094 151.425 273.428 151.425 273.801C151.425 273.908 151.392 273.991 151.325 274.051C151.265 274.104 151.175 274.131 151.055 274.131H147.635V273.551H150.825L150.655 273.691C150.655 273.344 150.602 273.051 150.495 272.811C150.395 272.564 150.245 272.378 150.045 272.251C149.852 272.124 149.609 272.061 149.315 272.061C148.995 272.061 148.722 272.138 148.495 272.291C148.269 272.438 148.095 272.648 147.975 272.921C147.855 273.188 147.795 273.498 147.795 273.851V273.911C147.795 274.511 147.939 274.964 148.225 275.271C148.512 275.578 148.925 275.731 149.465 275.731C149.679 275.731 149.895 275.704 150.115 275.651C150.342 275.598 150.559 275.501 150.765 275.361C150.865 275.301 150.955 275.274 151.035 275.281C151.122 275.281 151.192 275.308 151.245 275.361C151.299 275.408 151.332 275.468 151.345 275.541C151.359 275.608 151.349 275.681 151.315 275.761C151.282 275.841 151.219 275.911 151.125 275.971C150.905 276.124 150.642 276.244 150.335 276.331C150.035 276.411 149.745 276.451 149.465 276.451ZM153.007 278.231C152.867 278.231 152.757 278.191 152.677 278.111C152.597 278.031 152.557 277.918 152.557 277.771V271.881C152.557 271.728 152.597 271.614 152.677 271.541C152.757 271.461 152.867 271.421 153.007 271.421C153.154 271.421 153.264 271.461 153.337 271.541C153.417 271.614 153.457 271.728 153.457 271.881V272.791L153.347 272.611C153.454 272.244 153.664 271.951 153.977 271.731C154.29 271.511 154.667 271.401 155.107 271.401C155.54 271.401 155.917 271.504 156.237 271.711C156.557 271.911 156.807 272.201 156.987 272.581C157.167 272.954 157.257 273.401 157.257 273.921C157.257 274.434 157.167 274.884 156.987 275.271C156.814 275.651 156.564 275.944 156.237 276.151C155.917 276.351 155.54 276.451 155.107 276.451C154.674 276.451 154.3 276.341 153.987 276.121C153.674 275.901 153.464 275.611 153.357 275.251H153.467V277.771C153.467 277.918 153.427 278.031 153.347 278.111C153.267 278.191 153.154 278.231 153.007 278.231ZM154.897 275.731C155.184 275.731 155.434 275.661 155.647 275.521C155.867 275.381 156.037 275.178 156.157 274.911C156.277 274.644 156.337 274.314 156.337 273.921C156.337 273.334 156.207 272.888 155.947 272.581C155.687 272.274 155.337 272.121 154.897 272.121C154.604 272.121 154.347 272.191 154.127 272.331C153.914 272.464 153.747 272.664 153.627 272.931C153.514 273.198 153.457 273.528 153.457 273.921C153.457 274.508 153.587 274.958 153.847 275.271C154.107 275.578 154.457 275.731 154.897 275.731Z" fill="#444955"/>
<path d="M133 189.51C133 187.301 134.791 185.51 137 185.51H162C164.209 185.51 166 187.301 166 189.51V257.51H133V189.51Z" fill="#91D5C0"/>
<path d="M183.881 276.451C183.215 276.451 182.638 276.304 182.151 276.011C181.665 275.711 181.285 275.291 181.011 274.751C180.745 274.204 180.611 273.564 180.611 272.831C180.611 272.278 180.688 271.781 180.841 271.341C180.995 270.894 181.211 270.514 181.491 270.201C181.778 269.881 182.121 269.638 182.521 269.471C182.928 269.304 183.381 269.221 183.881 269.221C184.548 269.221 185.125 269.368 185.611 269.661C186.098 269.954 186.475 270.371 186.741 270.911C187.008 271.451 187.141 272.088 187.141 272.821C187.141 273.374 187.065 273.874 186.911 274.321C186.758 274.768 186.538 275.151 186.251 275.471C185.971 275.791 185.631 276.034 185.231 276.201C184.831 276.368 184.381 276.451 183.881 276.451ZM183.881 275.631C184.361 275.631 184.771 275.521 185.111 275.301C185.451 275.081 185.711 274.761 185.891 274.341C186.078 273.921 186.171 273.418 186.171 272.831C186.171 271.944 185.971 271.258 185.571 270.771C185.178 270.284 184.615 270.041 183.881 270.041C183.401 270.041 182.988 270.151 182.641 270.371C182.301 270.584 182.041 270.901 181.861 271.321C181.681 271.734 181.591 272.238 181.591 272.831C181.591 273.711 181.791 274.398 182.191 274.891C182.591 275.384 183.155 275.631 183.881 275.631ZM190.576 276.451C190.083 276.451 189.656 276.348 189.296 276.141C188.936 275.928 188.66 275.631 188.466 275.251C188.273 274.864 188.176 274.411 188.176 273.891C188.176 273.504 188.23 273.158 188.336 272.851C188.45 272.544 188.61 272.284 188.816 272.071C189.023 271.851 189.273 271.684 189.566 271.571C189.866 271.458 190.203 271.401 190.576 271.401C190.81 271.401 191.056 271.438 191.316 271.511C191.576 271.584 191.816 271.704 192.036 271.871C192.11 271.924 192.156 271.988 192.176 272.061C192.196 272.128 192.196 272.198 192.176 272.271C192.163 272.344 192.13 272.408 192.076 272.461C192.03 272.508 191.966 272.534 191.886 272.541C191.813 272.548 191.733 272.524 191.646 272.471C191.486 272.351 191.316 272.264 191.136 272.211C190.963 272.158 190.796 272.131 190.636 272.131C190.39 272.131 190.17 272.171 189.976 272.251C189.79 272.331 189.63 272.448 189.496 272.601C189.37 272.748 189.273 272.931 189.206 273.151C189.14 273.364 189.106 273.614 189.106 273.901C189.106 274.468 189.24 274.914 189.506 275.241C189.773 275.561 190.15 275.721 190.636 275.721C190.796 275.721 190.963 275.698 191.136 275.651C191.31 275.598 191.48 275.511 191.646 275.391C191.733 275.338 191.813 275.318 191.886 275.331C191.96 275.338 192.02 275.368 192.066 275.421C192.12 275.468 192.153 275.528 192.166 275.601C192.18 275.668 192.173 275.738 192.146 275.811C192.126 275.884 192.08 275.944 192.006 275.991C191.793 276.151 191.56 276.268 191.306 276.341C191.053 276.414 190.81 276.451 190.576 276.451ZM195.145 276.451C194.751 276.451 194.421 276.381 194.155 276.241C193.895 276.101 193.698 275.898 193.565 275.631C193.438 275.364 193.375 275.038 193.375 274.651V272.191H192.735C192.615 272.191 192.521 272.161 192.455 272.101C192.388 272.034 192.355 271.948 192.355 271.841C192.355 271.728 192.388 271.641 192.455 271.581C192.521 271.521 192.615 271.491 192.735 271.491H193.375V270.401C193.375 270.248 193.415 270.134 193.495 270.061C193.575 269.981 193.688 269.941 193.835 269.941C193.981 269.941 194.091 269.981 194.165 270.061C194.245 270.134 194.285 270.248 194.285 270.401V271.491H195.495C195.621 271.491 195.718 271.521 195.785 271.581C195.851 271.641 195.885 271.728 195.885 271.841C195.885 271.948 195.851 272.034 195.785 272.101C195.718 272.161 195.621 272.191 195.495 272.191H194.285V274.571C194.285 274.938 194.361 275.214 194.515 275.401C194.668 275.588 194.921 275.681 195.275 275.681C195.401 275.681 195.508 275.671 195.595 275.651C195.681 275.624 195.758 275.611 195.825 275.611C195.885 275.604 195.935 275.624 195.975 275.671C196.021 275.718 196.045 275.804 196.045 275.931C196.045 276.024 196.028 276.111 195.995 276.191C195.968 276.264 195.911 276.314 195.825 276.341C195.745 276.368 195.638 276.391 195.505 276.411C195.371 276.438 195.251 276.451 195.145 276.451Z" fill="#444955"/>
<path d="M172 63.5103C172 61.3011 173.791 59.5103 176 59.5103H201C203.209 59.5103 205 61.3011 205 63.5103V257.51H172V63.5103Z" fill="#91D5C0"/>
<path d="M219.727 276.431C219.594 276.431 219.487 276.391 219.407 276.311C219.334 276.231 219.297 276.121 219.297 275.981V269.711C219.297 269.558 219.334 269.441 219.407 269.361C219.481 269.281 219.577 269.241 219.697 269.241C219.811 269.241 219.897 269.261 219.957 269.301C220.017 269.341 220.084 269.411 220.157 269.511L224.397 275.131H224.147V269.691C224.147 269.544 224.184 269.434 224.257 269.361C224.337 269.281 224.447 269.241 224.587 269.241C224.727 269.241 224.834 269.281 224.907 269.361C224.981 269.434 225.017 269.544 225.017 269.691V275.981C225.017 276.121 224.981 276.231 224.907 276.311C224.841 276.391 224.751 276.431 224.637 276.431C224.531 276.431 224.441 276.408 224.367 276.361C224.301 276.321 224.231 276.251 224.157 276.151L219.927 270.531H220.157V275.981C220.157 276.121 220.121 276.231 220.047 276.311C219.974 276.391 219.867 276.431 219.727 276.431ZM228.659 276.451C228.179 276.451 227.763 276.348 227.409 276.141C227.056 275.934 226.783 275.641 226.589 275.261C226.396 274.881 226.299 274.434 226.299 273.921C226.299 273.534 226.353 273.188 226.459 272.881C226.573 272.568 226.733 272.301 226.939 272.081C227.146 271.861 227.393 271.694 227.679 271.581C227.973 271.461 228.299 271.401 228.659 271.401C229.139 271.401 229.556 271.504 229.909 271.711C230.263 271.918 230.536 272.211 230.729 272.591C230.923 272.964 231.019 273.408 231.019 273.921C231.019 274.308 230.963 274.658 230.849 274.971C230.743 275.284 230.586 275.551 230.379 275.771C230.173 275.991 229.923 276.161 229.629 276.281C229.343 276.394 229.019 276.451 228.659 276.451ZM228.659 275.731C228.953 275.731 229.206 275.661 229.419 275.521C229.639 275.381 229.806 275.178 229.919 274.911C230.039 274.644 230.099 274.314 230.099 273.921C230.099 273.334 229.969 272.888 229.709 272.581C229.449 272.274 229.099 272.121 228.659 272.121C228.373 272.121 228.119 272.191 227.899 272.331C227.686 272.464 227.519 272.664 227.399 272.931C227.279 273.198 227.219 273.528 227.219 273.921C227.219 274.508 227.349 274.958 227.609 275.271C227.876 275.578 228.226 275.731 228.659 275.731ZM233.957 276.431C233.83 276.431 233.72 276.398 233.627 276.331C233.534 276.264 233.454 276.158 233.387 276.011L231.687 272.051C231.64 271.938 231.624 271.834 231.637 271.741C231.65 271.648 231.694 271.571 231.767 271.511C231.847 271.451 231.954 271.421 232.087 271.421C232.2 271.421 232.29 271.448 232.357 271.501C232.424 271.554 232.487 271.648 232.547 271.781L234.117 275.651H233.837L235.447 271.781C235.5 271.648 235.56 271.554 235.627 271.501C235.7 271.448 235.8 271.421 235.927 271.421C236.04 271.421 236.127 271.451 236.187 271.511C236.254 271.571 236.294 271.648 236.307 271.741C236.32 271.834 236.3 271.934 236.247 272.041L234.537 276.011C234.477 276.158 234.397 276.264 234.297 276.331C234.204 276.398 234.09 276.431 233.957 276.431Z" fill="#444955"/>
<path d="M211 171.51C211 169.301 212.791 167.51 215 167.51H240C242.209 167.51 244 169.301 244 171.51V257.51H211V171.51Z" fill="#91D5C0"/>
<path d="M258.62 276.361C258.46 276.361 258.336 276.318 258.25 276.231C258.163 276.144 258.12 276.021 258.12 275.861V269.811C258.12 269.651 258.163 269.528 258.25 269.441C258.336 269.354 258.46 269.311 258.62 269.311H260.55C261.703 269.311 262.59 269.614 263.21 270.221C263.836 270.821 264.15 271.691 264.15 272.831C264.15 273.398 264.07 273.901 263.91 274.341C263.75 274.781 263.516 275.151 263.21 275.451C262.903 275.744 262.526 275.971 262.08 276.131C261.64 276.284 261.13 276.361 260.55 276.361H258.62ZM259.05 275.571H260.49C260.943 275.571 261.336 275.514 261.67 275.401C262.003 275.288 262.28 275.118 262.5 274.891C262.726 274.664 262.896 274.381 263.01 274.041C263.123 273.694 263.18 273.291 263.18 272.831C263.18 271.918 262.953 271.234 262.5 270.781C262.053 270.328 261.383 270.101 260.49 270.101H259.05V275.571ZM267.72 276.451C267.194 276.451 266.74 276.351 266.36 276.151C265.987 275.944 265.697 275.654 265.49 275.281C265.284 274.901 265.18 274.454 265.18 273.941C265.18 273.434 265.28 272.991 265.48 272.611C265.687 272.231 265.967 271.934 266.32 271.721C266.68 271.508 267.09 271.401 267.55 271.401C267.877 271.401 268.17 271.458 268.43 271.571C268.697 271.678 268.924 271.834 269.11 272.041C269.297 272.248 269.437 272.501 269.53 272.801C269.63 273.094 269.68 273.428 269.68 273.801C269.68 273.908 269.647 273.991 269.58 274.051C269.52 274.104 269.43 274.131 269.31 274.131H265.89V273.551H269.08L268.91 273.691C268.91 273.344 268.857 273.051 268.75 272.811C268.65 272.564 268.5 272.378 268.3 272.251C268.107 272.124 267.864 272.061 267.57 272.061C267.25 272.061 266.977 272.138 266.75 272.291C266.524 272.438 266.35 272.648 266.23 272.921C266.11 273.188 266.05 273.498 266.05 273.851V273.911C266.05 274.511 266.194 274.964 266.48 275.271C266.767 275.578 267.18 275.731 267.72 275.731C267.934 275.731 268.15 275.704 268.37 275.651C268.597 275.598 268.814 275.501 269.02 275.361C269.12 275.301 269.21 275.274 269.29 275.281C269.377 275.281 269.447 275.308 269.5 275.361C269.554 275.408 269.587 275.468 269.6 275.541C269.614 275.608 269.604 275.681 269.57 275.761C269.537 275.841 269.474 275.911 269.38 275.971C269.16 276.124 268.897 276.244 268.59 276.331C268.29 276.411 268 276.451 267.72 276.451ZM272.922 276.451C272.429 276.451 272.002 276.348 271.642 276.141C271.282 275.928 271.005 275.631 270.812 275.251C270.619 274.864 270.522 274.411 270.522 273.891C270.522 273.504 270.575 273.158 270.682 272.851C270.795 272.544 270.955 272.284 271.162 272.071C271.369 271.851 271.619 271.684 271.912 271.571C272.212 271.458 272.549 271.401 272.922 271.401C273.155 271.401 273.402 271.438 273.662 271.511C273.922 271.584 274.162 271.704 274.382 271.871C274.455 271.924 274.502 271.988 274.522 272.061C274.542 272.128 274.542 272.198 274.522 272.271C274.509 272.344 274.475 272.408 274.422 272.461C274.375 272.508 274.312 272.534 274.232 272.541C274.159 272.548 274.079 272.524 273.992 272.471C273.832 272.351 273.662 272.264 273.482 272.211C273.309 272.158 273.142 272.131 272.982 272.131C272.735 272.131 272.515 272.171 272.322 272.251C272.135 272.331 271.975 272.448 271.842 272.601C271.715 272.748 271.619 272.931 271.552 273.151C271.485 273.364 271.452 273.614 271.452 273.901C271.452 274.468 271.585 274.914 271.852 275.241C272.119 275.561 272.495 275.721 272.982 275.721C273.142 275.721 273.309 275.698 273.482 275.651C273.655 275.598 273.825 275.511 273.992 275.391C274.079 275.338 274.159 275.318 274.232 275.331C274.305 275.338 274.365 275.368 274.412 275.421C274.465 275.468 274.499 275.528 274.512 275.601C274.525 275.668 274.519 275.738 274.492 275.811C274.472 275.884 274.425 275.944 274.352 275.991C274.139 276.151 273.905 276.268 273.652 276.341C273.399 276.414 273.155 276.451 272.922 276.451Z" fill="#444955"/>
<path d="M250 153.51C250 151.301 251.791 149.51 254 149.51H279C281.209 149.51 283 151.301 283 153.51V257.51H250V153.51Z" fill="#91D5C0"/>
<path d="M298.637 276.421C298.497 276.428 298.387 276.391 298.307 276.311C298.227 276.231 298.187 276.131 298.187 276.011C298.187 275.918 298.217 275.838 298.277 275.771C298.331 275.698 298.417 275.658 298.537 275.651L298.847 275.621C299.174 275.594 299.424 275.481 299.597 275.281C299.771 275.081 299.857 274.808 299.857 274.461V269.711C299.857 269.558 299.897 269.441 299.977 269.361C300.057 269.281 300.171 269.241 300.317 269.241C300.464 269.241 300.577 269.281 300.657 269.361C300.737 269.441 300.777 269.558 300.777 269.711V274.461C300.777 274.854 300.707 275.191 300.567 275.471C300.434 275.744 300.234 275.961 299.967 276.121C299.701 276.274 299.367 276.368 298.967 276.401L298.637 276.421ZM303.908 276.451C303.575 276.451 303.271 276.384 302.998 276.251C302.731 276.118 302.521 275.938 302.368 275.711C302.221 275.484 302.148 275.231 302.148 274.951C302.148 274.591 302.238 274.308 302.418 274.101C302.598 273.894 302.901 273.748 303.328 273.661C303.755 273.568 304.328 273.521 305.048 273.521H305.518V274.101H305.068C304.555 274.101 304.148 274.124 303.848 274.171C303.555 274.218 303.348 274.301 303.228 274.421C303.108 274.534 303.048 274.694 303.048 274.901C303.048 275.161 303.138 275.374 303.318 275.541C303.505 275.708 303.758 275.791 304.078 275.791C304.331 275.791 304.555 275.731 304.748 275.611C304.941 275.484 305.095 275.318 305.208 275.111C305.321 274.898 305.378 274.654 305.378 274.381V273.231C305.378 272.838 305.298 272.554 305.138 272.381C304.978 272.201 304.708 272.111 304.328 272.111C304.108 272.111 303.881 272.141 303.648 272.201C303.415 272.261 303.171 272.354 302.918 272.481C302.818 272.528 302.731 272.544 302.658 272.531C302.585 272.511 302.525 272.471 302.478 272.411C302.438 272.344 302.415 272.274 302.408 272.201C302.408 272.121 302.425 272.044 302.458 271.971C302.498 271.898 302.565 271.844 302.658 271.811C302.951 271.664 303.241 271.561 303.528 271.501C303.821 271.434 304.095 271.401 304.348 271.401C304.781 271.401 305.138 271.471 305.418 271.611C305.698 271.744 305.908 271.954 306.048 272.241C306.188 272.521 306.258 272.881 306.258 273.321V275.961C306.258 276.114 306.221 276.231 306.148 276.311C306.075 276.391 305.968 276.431 305.828 276.431C305.695 276.431 305.588 276.391 305.508 276.311C305.435 276.231 305.398 276.114 305.398 275.961V275.251H305.488C305.435 275.498 305.335 275.711 305.188 275.891C305.041 276.071 304.858 276.211 304.638 276.311C304.425 276.404 304.181 276.451 303.908 276.451ZM308.14 276.431C308 276.431 307.89 276.391 307.81 276.311C307.73 276.231 307.69 276.114 307.69 275.961V271.881C307.69 271.728 307.73 271.614 307.81 271.541C307.89 271.461 308 271.421 308.14 271.421C308.28 271.421 308.387 271.461 308.46 271.541C308.54 271.614 308.58 271.728 308.58 271.881V272.701L308.47 272.551C308.61 272.171 308.837 271.884 309.15 271.691C309.47 271.498 309.833 271.401 310.24 271.401C310.633 271.401 310.957 271.471 311.21 271.611C311.463 271.751 311.653 271.964 311.78 272.251C311.907 272.538 311.97 272.901 311.97 273.341V275.961C311.97 276.114 311.93 276.231 311.85 276.311C311.777 276.391 311.667 276.431 311.52 276.431C311.373 276.431 311.26 276.391 311.18 276.311C311.1 276.231 311.06 276.114 311.06 275.961V273.391C311.06 272.958 310.977 272.641 310.81 272.441C310.643 272.241 310.377 272.141 310.01 272.141C309.583 272.141 309.24 272.274 308.98 272.541C308.727 272.801 308.6 273.154 308.6 273.601V275.961C308.6 276.274 308.447 276.431 308.14 276.431Z" fill="#444955"/>
<path d="M110.5 149.7H150H189.5L228.5 131.7H267.5L307 113.7" stroke="#A07AD9" stroke-width="2" stroke-linecap="round"/>
<ellipse cx="110.019" cy="149.7" rx="2.01927" ry="2" fill="#A07AD9"/>
<ellipse cx="150.019" cy="149.7" rx="2.01927" ry="2" fill="#A07AD9"/>
<ellipse cx="189.019" cy="149.7" rx="2.01927" ry="2" fill="#A07AD9"/>
<ellipse cx="228.019" cy="131.7" rx="2.01927" ry="2" fill="#A07AD9"/>
<ellipse cx="268.019" cy="131.7" rx="2.01927" ry="2" fill="#A07AD9"/>
<ellipse cx="306.019" cy="113.7" rx="2.01927" ry="2" fill="#A07AD9"/>
</g>
</g>
<defs>
<filter id="filter0_dd_5140_2832" x="0" y="0" width="378" height="343" filterUnits="userSpaceOnUse" color-interpolation-filters="sRGB">
<feFlood flood-opacity="0" result="BackgroundImageFix"/>
<feColorMatrix in="SourceAlpha" type="matrix" values="0 0 0 0 0 0 0 0 0 0 0 0 0 0 0 0 0 0 127 0" result="hardAlpha"/>
<feOffset dy="1"/>
<feGaussianBlur stdDeviation="2"/>
<feComposite in2="hardAlpha" operator="out"/>
<feColorMatrix type="matrix" values="0 0 0 0 0.0470588 0 0 0 0 0.0470588 0 0 0 0 0.0509804 0 0 0 0.05 0"/>
<feBlend mode="normal" in2="BackgroundImageFix" result="effect1_dropShadow_5140_2832"/>
<feColorMatrix in="SourceAlpha" type="matrix" values="0 0 0 0 0 0 0 0 0 0 0 0 0 0 0 0 0 0 127 0" result="hardAlpha"/>
<feOffset dy="1"/>
<feGaussianBlur stdDeviation="2"/>
<feComposite in2="hardAlpha" operator="out"/>
<feColorMatrix type="matrix" values="0 0 0 0 0.0470588 0 0 0 0 0.0470588 0 0 0 0 0.0509804 0 0 0 0.1 0"/>
<feBlend mode="normal" in2="effect1_dropShadow_5140_2832" result="effect2_dropShadow_5140_2832"/>
<feBlend mode="normal" in="SourceGraphic" in2="effect2_dropShadow_5140_2832" result="shape"/>
</filter>
<clipPath id="clip0_5140_2832">
<path d="M71.5 43H347.5V258H71.5V43Z" fill="white"/>
</clipPath>
<clipPath id="clip1_5140_2832">
<rect width="276" height="265.5" fill="white" transform="translate(72 22.6997)"/>
</clipPath>
</defs>
</svg>
