<svg width="19" height="26" viewBox="0 0 19 26" fill="none" xmlns="http://www.w3.org/2000/svg">
<path d="M1 10.6H18M13.1429 7V14.2M1 5.8C1 4.52696 1.51173 3.30606 2.42262 2.40589C3.33351 1.50571 4.56895 1 5.85714 1H13.1429C14.4311 1 15.6665 1.50571 16.5774 2.40589C17.4883 3.30606 18 4.52696 18 5.8V22.6C18 23.2365 17.7441 23.847 17.2887 24.2971C16.8332 24.7471 16.2155 25 15.5714 25H3.42857C2.78447 25 2.16676 24.7471 1.71131 24.2971C1.25587 23.847 1 23.2365 1 22.6V5.8Z" stroke="#444955" stroke-width="2" stroke-linecap="round" stroke-linejoin="round"/>
</svg>
