<svg width="28" height="28" viewBox="0 0 28 28" fill="none" xmlns="http://www.w3.org/2000/svg">
<path d="M10 10.5H22H27" fill="#D9D9D9"/>
<path d="M22 7V10.5V7Z" fill="#D9D9D9"/>
<path d="M1 13L10 10.5L1 13Z" fill="#D9D9D9"/>
<path fill-rule="evenodd" clip-rule="evenodd" d="M10 5.8C10 4.52696 10.5117 3.30606 11.4226 2.40589C12.3335 1.50571 13.569 1 14.8571 1H22.1428C23.431 1 24.6665 1.50571 25.5773 2.40589C26.4882 3.30606 27 4.52696 27 5.8V10.5H22H10V5.8Z" fill="#E7F6F1"/>
<path fill-rule="evenodd" clip-rule="evenodd" d="M10 10.5H22H27V22.6C27 23.2365 26.7441 23.847 26.2887 24.2971C25.8332 24.7471 25.2155 25 24.5714 25H12.4286C11.7845 25 11.1668 24.7471 10.7113 24.2971C10.2559 23.847 10 23.2365 10 22.6V10.5Z" fill="#E7F6F1"/>
<path fill-rule="evenodd" clip-rule="evenodd" d="M1 13L10 10.5V22.6C10 23.2365 9.95545 24.0499 9.5 24.5C9.04456 24.9501 8.26412 25.4 6.83576 25.9C6.83576 25.9 4 27 3 27C2 27 1 26 1 24.6971V13Z" fill="#0FA376"/>
<path d="M10 10.5H22M10 10.5L1 13M10 10.5V5.8C10 4.52696 10.5117 3.30606 11.4226 2.40589C12.3335 1.50571 13.569 1 14.8571 1H22.1428C23.431 1 24.6665 1.50571 25.5773 2.40589C26.4882 3.30606 27 4.52696 27 5.8V10.5M10 10.5V22.6M22 10.5H27M22 10.5V7M27 10.5V22.6C27 23.2365 26.7441 23.847 26.2887 24.2971C25.8332 24.7471 25.2155 25 24.5714 25H12.4286C11.7845 25 11.1668 24.7471 10.7113 24.2971C10.2559 23.847 10 23.2365 10 22.6M1 13V24.6971M1 13C1 13 1 23.3941 1 24.6971M10 22.6C10 23.2365 9.95545 24.0499 9.5 24.5C9.04456 24.9501 8.26412 25.4 6.83576 25.9C6.83576 25.9 4 27 3 27C2 27 1 26 1 24.6971M13 15H24M13 21H24" stroke="#0FA376" stroke-width="2" stroke-linecap="round" stroke-linejoin="round"/>
</svg>
