<svg width="26" height="26" viewBox="0 0 26 26" fill="none" xmlns="http://www.w3.org/2000/svg">
<path d="M6.528 11.472C6.40337 11.5969 6.33337 11.7662 6.33333 11.9427V18.3333C6.33333 18.687 6.47381 19.0261 6.72386 19.2761C6.97391 19.5262 7.31305 19.6667 7.66667 19.6667H21C21.3536 19.6667 21.6928 19.5262 21.9428 19.2761C22.1929 19.0261 22.3333 18.687 22.3333 18.3333V7.94267C22.3333 7.81075 22.2941 7.68181 22.2208 7.57216C22.1475 7.46252 22.0432 7.37709 21.9213 7.3267C21.7994 7.27631 21.6653 7.26322 21.536 7.28908C21.4066 7.31495 21.2878 7.3786 21.1947 7.472L15.472 13.1947C15.4101 13.2568 15.3365 13.306 15.2555 13.3396C15.1745 13.3732 15.0877 13.3905 15 13.3905C14.9123 13.3905 14.8255 13.3732 14.7445 13.3396C14.6635 13.306 14.5899 13.2568 14.528 13.1947L10.1387 8.80533C10.0767 8.74325 10.0032 8.69399 9.92218 8.66038C9.84118 8.62678 9.75436 8.60948 9.66667 8.60948C9.57898 8.60948 9.49215 8.62678 9.41116 8.66038C9.33016 8.69399 9.25659 8.74325 9.19467 8.80533L6.528 11.472Z" fill="#E7F6F1"/>
<path d="M1 1V22.3333C1 23.0406 1.28095 23.7189 1.78105 24.219C2.28115 24.719 2.95942 25 3.66667 25H25M6.528 11.472C6.40337 11.5969 6.33337 11.7662 6.33333 11.9427V18.3333C6.33333 18.687 6.47381 19.0261 6.72386 19.2761C6.97391 19.5262 7.31305 19.6667 7.66667 19.6667H21C21.3536 19.6667 21.6928 19.5262 21.9428 19.2761C22.1929 19.0261 22.3333 18.687 22.3333 18.3333V7.94267C22.3333 7.81075 22.2941 7.68181 22.2208 7.57216C22.1475 7.46252 22.0432 7.37709 21.9213 7.3267C21.7994 7.27631 21.6653 7.26322 21.536 7.28908C21.4066 7.31495 21.2878 7.3786 21.1947 7.472L15.472 13.1947C15.4101 13.2568 15.3365 13.306 15.2555 13.3396C15.1745 13.3732 15.0877 13.3905 15 13.3905C14.9123 13.3905 14.8255 13.3732 14.7445 13.3396C14.6635 13.306 14.5899 13.2568 14.528 13.1947L10.1387 8.80533C10.0767 8.74325 10.0032 8.69399 9.92218 8.66038C9.84118 8.62678 9.75436 8.60948 9.66667 8.60948C9.57898 8.60948 9.49215 8.62678 9.41116 8.66038C9.33016 8.69399 9.25659 8.74325 9.19467 8.80533L6.528 11.472Z" stroke="#0FA376" stroke-width="2" stroke-linecap="round" stroke-linejoin="round"/>
</svg>
