<svg width="34" height="41" viewBox="0 0 34 41" fill="none" xmlns="http://www.w3.org/2000/svg">
<path d="M18.542 28.2964H8.79645M20.4911 12.7036H8.79645M24.3893 20.5H8.79645M1 2.95799C1 2.44105 1.20535 1.94529 1.57088 1.57976C1.93641 1.21423 2.43218 1.00888 2.94911 1.00888C3.43175 1.00622 3.90511 1.14147 4.31349 1.3987L6.13201 2.56817C6.53945 2.82852 7.01287 2.96687 7.49639 2.96687C7.97991 2.96687 8.45333 2.82852 8.86077 2.56817L10.6812 1.3987C11.0887 1.13834 11.5621 1 12.0456 1C12.5291 1 13.0026 1.13834 13.41 1.3987L15.2285 2.56817C15.636 2.82852 16.1094 2.96687 16.5929 2.96687C17.0764 2.96687 17.5498 2.82852 17.9573 2.56817L19.7758 1.3987C20.1832 1.13834 20.6567 1 21.1402 1C21.6237 1 22.0971 1.13834 22.5046 1.3987L24.325 2.56817C24.7325 2.82852 25.2059 2.96687 25.6894 2.96687C26.1729 2.96687 26.6463 2.82852 27.0538 2.56817L28.8723 1.3987C29.2807 1.14147 29.754 1.00622 30.2367 1.00888C30.7536 1.00888 31.2494 1.21423 31.6149 1.57976C31.9804 1.94529 32.1858 2.44105 32.1858 2.95799V38.042C32.1858 38.5589 31.9804 39.0547 31.6149 39.4202C31.2494 39.7858 30.7536 39.9911 30.2367 39.9911C29.754 39.9938 29.2807 39.8585 28.8723 39.6013L27.0538 38.4318C26.6463 38.1715 26.1729 38.0331 25.6894 38.0331C25.2059 38.0331 24.7325 38.1715 24.325 38.4318L22.5046 39.6013C22.0971 39.8617 21.6237 40 21.1402 40C20.6567 40 20.1832 39.8617 19.7758 39.6013L17.9573 38.4318C17.5498 38.1715 17.0764 38.0331 16.5929 38.0331C16.1094 38.0331 15.636 38.1715 15.2285 38.4318L13.41 39.6013C13.0026 39.8617 12.5291 40 12.0456 40C11.5621 40 11.0887 39.8617 10.6812 39.6013L8.86077 38.4318C8.45333 38.1715 7.97991 38.0331 7.49639 38.0331C7.01287 38.0331 6.53945 38.1715 6.13201 38.4318L4.31349 39.6013C3.90511 39.8585 3.43175 39.9938 2.94911 39.9911C2.43218 39.9911 1.93641 39.7858 1.57088 39.4202C1.20535 39.0547 1 38.5589 1 38.042V2.95799Z" stroke="white" stroke-width="2" stroke-linecap="round" stroke-linejoin="round"/>
</svg>
