<svg width="26" height="26" viewBox="0 0 26 26" fill="none" xmlns="http://www.w3.org/2000/svg">
<path d="M1 1V22.3333C1 23.0406 1.28095 23.7189 1.78105 24.219C2.28115 24.719 2.95942 25 3.66667 25H25M6.33333 11.9427C6.33337 11.7662 6.40337 11.5969 6.528 11.472L9.19467 8.80533C9.25659 8.74325 9.33016 8.69399 9.41116 8.66038C9.49215 8.62678 9.57898 8.60948 9.66667 8.60948C9.75436 8.60948 9.84118 8.62678 9.92218 8.66038C10.0032 8.69399 10.0767 8.74325 10.1387 8.80533L14.528 13.1947C14.5899 13.2568 14.6635 13.306 14.7445 13.3396C14.8255 13.3732 14.9123 13.3905 15 13.3905C15.0877 13.3905 15.1745 13.3732 15.2555 13.3396C15.3365 13.306 15.4101 13.2568 15.472 13.1947L21.1947 7.472C21.2878 7.37861 21.4066 7.31495 21.536 7.28908C21.6653 7.26322 21.7994 7.27631 21.9213 7.3267C22.0432 7.37709 22.1475 7.46252 22.2208 7.57216C22.2941 7.68181 22.3333 7.81075 22.3333 7.94267V18.3333C22.3333 18.687 22.1929 19.0261 21.9428 19.2761C21.6928 19.5262 21.3536 19.6667 21 19.6667H7.66667C7.31304 19.6667 6.97391 19.5262 6.72386 19.2761C6.47381 19.0261 6.33333 18.687 6.33333 18.3333V11.9427Z" stroke="#444955" stroke-width="2" stroke-linecap="round" stroke-linejoin="round"/>
</svg>
