<svg width="25" height="26" viewBox="0 0 25 26" fill="none" xmlns="http://www.w3.org/2000/svg">
<path d="M16.3333 25V14.895C16.3333 14.56 16.1987 14.2387 15.9591 14.0018C15.7195 13.7649 15.3944 13.6319 15.0556 13.6319H9.94444C9.60556 13.6319 9.28055 13.7649 9.04092 14.0018C8.80129 14.2387 8.66667 14.56 8.66667 14.895V25M16.3333 25L21.4444 25C22.1222 25 22.7722 24.7338 23.2515 24.2601C23.7308 23.7863 24 23.1437 24 22.4737V11.1056C24.0001 10.7381 23.9191 10.3751 23.7626 10.0417C23.6061 9.70836 23.378 9.41277 23.0941 9.17556L14.1496 1.5968C13.6884 1.21143 13.1039 1 12.5 1C11.8961 1 11.3116 1.21143 10.8504 1.5968L1.90594 9.17556C1.62202 9.41277 1.39386 9.70836 1.2374 10.0417C1.08093 10.3751 0.999911 10.7381 1 11.1056V22.4737C1 23.1437 1.26925 23.7863 1.7485 24.2601C2.22776 24.7338 2.87778 25 3.55556 25L8.66667 25M16.3333 25H8.66667" stroke="#6B7280" stroke-width="2" stroke-linecap="round" stroke-linejoin="round"/>
</svg>