<svg width="25" height="26" viewBox="0 0 25 26" fill="none" xmlns="http://www.w3.org/2000/svg">
<path d="M16.3333 25V14.895C16.3333 14.56 16.1987 14.2387 15.9591 14.0018C15.7195 13.7649 15.3944 13.6319 15.0556 13.6319H9.94444C9.60556 13.6319 9.28055 13.7649 9.04092 14.0018C8.80129 14.2387 8.66667 14.56 8.66667 14.895V25M1 11.1056C0.999911 10.7381 1.08093 10.3751 1.2374 10.0417C1.39386 9.70836 1.62202 9.41277 1.90594 9.17556L10.8504 1.5968C11.3116 1.21143 11.8961 1 12.5 1C13.1039 1 13.6884 1.21143 14.1496 1.5968L23.0941 9.17556C23.378 9.41277 23.6061 9.70836 23.7626 10.0417C23.9191 10.3751 24.0001 10.7381 24 11.1056V22.4737C24 23.1437 23.7308 23.7863 23.2515 24.2601C22.7722 24.7338 22.1222 25 21.4444 25H3.55556C2.87778 25 2.22776 24.7338 1.7485 24.2601C1.26925 23.7863 1 23.1437 1 22.4737V11.1056Z" stroke="#444955" stroke-width="2" stroke-linecap="round" stroke-linejoin="round"/>
</svg>
