<svg width="402" height="74" viewBox="0 0 402 74" fill="none" xmlns="http://www.w3.org/2000/svg">
<rect width="402" height="74" fill="#FCFBFA"/>
<path d="M63.3835 31.679C63.8707 31.6823 64.3446 31.7685 64.8053 31.9375C65.2694 32.1032 65.687 32.375 66.0582 32.7528C66.4294 33.1274 66.7244 33.6295 66.9431 34.2592C67.1619 34.889 67.2713 35.6679 67.2713 36.5959C67.2746 37.4709 67.1818 38.2531 66.9928 38.9425C66.8072 39.6286 66.5404 40.2086 66.1924 40.6825C65.8444 41.1565 65.4251 41.5178 64.9346 41.7663C64.4441 42.0149 63.8922 42.1392 63.2791 42.1392C62.6361 42.1392 62.066 42.0133 61.5688 41.7614C61.075 41.5095 60.6756 41.1648 60.3707 40.7273C60.0658 40.2898 59.8785 39.7893 59.8089 39.2259H61.6235C61.7163 39.6302 61.9053 39.9517 62.1903 40.1903C62.4786 40.4257 62.8416 40.5433 63.2791 40.5433C63.985 40.5433 64.5286 40.2367 64.9097 39.6236C65.2909 39.0104 65.4815 38.1586 65.4815 37.0682H65.4119C65.2495 37.3598 65.039 37.6117 64.7805 37.8239C64.522 38.0327 64.2286 38.1934 63.9005 38.3061C63.5757 38.4188 63.231 38.4751 62.8664 38.4751C62.2698 38.4751 61.7329 38.3326 61.2556 38.0476C60.7817 37.7625 60.4055 37.3714 60.1271 36.8743C59.852 36.3771 59.7128 35.8087 59.7095 35.169C59.7095 34.5062 59.8619 33.9112 60.1669 33.3842C60.4751 32.8539 60.9043 32.4363 61.4545 32.1314C62.0047 31.8232 62.6477 31.6723 63.3835 31.679ZM63.3884 33.1705C63.0305 33.1705 62.7073 33.2583 62.419 33.4339C62.1339 33.6063 61.9086 33.8416 61.7428 34.1399C61.5804 34.4349 61.4992 34.7647 61.4992 35.1293C61.5026 35.4905 61.5838 35.8187 61.7428 36.1136C61.9053 36.4086 62.1257 36.6423 62.4041 36.8146C62.6858 36.987 63.0073 37.0732 63.3686 37.0732C63.637 37.0732 63.8873 37.0218 64.1193 36.919C64.3513 36.8163 64.5535 36.6738 64.7258 36.4915C64.9015 36.3059 65.0374 36.0954 65.1335 35.8601C65.2329 35.6248 65.281 35.3762 65.2776 35.1143C65.2776 34.7663 65.1948 34.4448 65.0291 34.1499C64.8667 33.8549 64.6429 33.6179 64.3579 33.4389C64.0762 33.2599 63.753 33.1705 63.3884 33.1705ZM70.0553 40.777C69.7537 40.777 69.4952 40.6709 69.2798 40.4588C69.0643 40.2434 68.9583 39.9848 68.9616 39.6832C68.9583 39.3849 69.0643 39.1297 69.2798 38.9176C69.4952 38.7055 69.7537 38.5994 70.0553 38.5994C70.347 38.5994 70.6006 38.7055 70.816 38.9176C71.0347 39.1297 71.1458 39.3849 71.1491 39.6832C71.1458 39.8854 71.0928 40.0694 70.99 40.2351C70.8906 40.4008 70.758 40.5334 70.5923 40.6328C70.4299 40.7289 70.2509 40.777 70.0553 40.777ZM70.0553 35.7308C69.7537 35.7308 69.4952 35.6248 69.2798 35.4126C69.0643 35.1972 68.9583 34.9387 68.9616 34.6371C68.9583 34.3388 69.0643 34.0836 69.2798 33.8714C69.4952 33.656 69.7537 33.5483 70.0553 33.5483C70.347 33.5483 70.6006 33.656 70.816 33.8714C71.0347 34.0836 71.1458 34.3388 71.1491 34.6371C71.1458 34.8359 71.0928 35.0182 70.99 35.1839C70.8906 35.3497 70.758 35.4822 70.5923 35.5817C70.4299 35.6811 70.2509 35.7308 70.0553 35.7308ZM72.9873 42V40.6676L76.5221 37.2024C76.8602 36.861 77.1419 36.5578 77.3673 36.2926C77.5927 36.0275 77.7617 35.7706 77.8744 35.522C77.9871 35.2734 78.0434 35.0083 78.0434 34.7266C78.0434 34.4051 77.9705 34.13 77.8247 33.9013C77.6789 33.6693 77.4783 33.4903 77.2231 33.3643C76.9679 33.2384 76.6779 33.1754 76.3531 33.1754C76.0184 33.1754 75.725 33.245 75.4731 33.3842C75.2212 33.5201 75.0257 33.714 74.8865 33.9659C74.7506 34.2178 74.6827 34.5178 74.6827 34.8658H72.9277C72.9277 34.2195 73.0752 33.6577 73.3702 33.1804C73.6651 32.7031 74.0711 32.3336 74.5882 32.0717C75.1086 31.8099 75.7051 31.679 76.378 31.679C77.0607 31.679 77.6606 31.8066 78.1777 32.0618C78.6947 32.317 79.0958 32.6667 79.3808 33.1108C79.6692 33.5549 79.8133 34.062 79.8133 34.6321C79.8133 35.0133 79.7404 35.3878 79.5946 35.7557C79.4488 36.1236 79.1919 36.5312 78.824 36.9787C78.4594 37.4261 77.9473 37.968 77.2878 38.6044L75.5328 40.3892V40.4588H79.9675V42H72.9873ZM82.0555 42L86.3858 33.429V33.3594H81.3595V31.8182H88.2949V33.3942L83.9696 42H82.0555Z" fill="black"/>
<rect opacity="0.35" x="337.654" y="31.6746" width="21.6462" height="10.6513" rx="2.23333" stroke="black" stroke-width="1.03077"/>
<path opacity="0.4" d="M360.846 34.9385V39.0616C361.679 38.7124 362.22 37.9 362.22 37C362.22 36.1 361.679 35.2877 360.846 34.9385Z" fill="black"/>
<rect x="339.2" y="33.2207" width="18.5538" height="7.55897" rx="1.37436" fill="black"/>
<path fill-rule="evenodd" clip-rule="evenodd" d="M321.877 39.8857C323.203 38.7872 325.146 38.7872 326.472 39.8857C326.539 39.9448 326.578 40.0282 326.58 40.1162C326.582 40.2041 326.546 40.2889 326.482 40.3506L324.405 42.4033C324.344 42.4636 324.261 42.498 324.174 42.498C324.088 42.498 324.005 42.4636 323.944 42.4033L321.867 40.3506C321.803 40.2888 321.767 40.2042 321.769 40.1162C321.771 40.0282 321.81 39.9448 321.877 39.8857ZM319.123 36.9326C321.97 34.2741 326.379 34.274 329.226 36.9326C329.29 36.9948 329.327 37.0803 329.328 37.1699C329.329 37.2596 329.294 37.3465 329.231 37.4101L328.035 38.623C327.912 38.7469 327.712 38.7495 327.586 38.6289C326.651 37.7793 325.435 37.3086 324.173 37.3086C322.913 37.3091 321.697 37.7795 320.762 38.6289C320.636 38.7495 320.437 38.7469 320.314 38.623L319.118 37.4101C319.055 37.3467 319.019 37.2605 319.02 37.1709C319.021 37.0811 319.058 36.9949 319.123 36.9326ZM316.372 34.2314C320.734 30.1351 327.615 30.1351 331.977 34.2314C332.04 34.2922 332.076 34.3752 332.077 34.4619C332.077 34.5487 332.043 34.6327 331.98 34.6943L330.784 35.8769C330.661 35.9983 330.461 36.0002 330.336 35.8808C328.674 34.3325 326.468 33.4688 324.174 33.4687C321.881 33.4688 319.675 34.3324 318.013 35.8808C317.888 36.0004 317.688 35.9985 317.565 35.8769L316.369 34.6943C316.306 34.6327 316.272 34.5487 316.272 34.4619C316.273 34.3752 316.309 34.2922 316.372 34.2314Z" fill="black"/>
<path d="M295.564 38.3745C296.133 38.3745 296.595 38.8356 296.595 39.4048V41.4663C296.595 42.0356 296.133 42.4976 295.564 42.4976H294.534C293.964 42.4976 293.502 42.0356 293.502 41.4663V39.4048C293.503 38.8356 293.964 38.3745 294.534 38.3745H295.564ZM300.375 36.313C300.944 36.3131 301.405 36.7741 301.405 37.3433V41.4663C301.405 42.0355 300.944 42.4975 300.375 42.4976H299.343C298.774 42.4974 298.313 42.0355 298.313 41.4663V37.3433C298.313 36.7742 298.774 36.3132 299.343 36.313H300.375ZM305.185 33.9077C305.754 33.9079 306.215 34.369 306.215 34.938V41.4663C306.215 42.0354 305.754 42.4973 305.185 42.4976H304.154C303.585 42.4975 303.124 42.0356 303.124 41.4663V34.938C303.124 34.3689 303.585 33.9077 304.154 33.9077H305.185ZM309.995 31.5024C310.564 31.5024 311.026 31.9644 311.026 32.5337V41.4663C311.026 42.0356 310.564 42.4976 309.995 42.4976H308.964C308.395 42.4976 307.933 42.0356 307.933 41.4663V32.5337C307.933 31.9644 308.395 31.5024 308.964 31.5024H309.995Z" fill="black"/>
</svg>
